<svg height="128" viewBox="0 0 300 128" width="300" xmlns="http://www.w3.org/2000/svg"><g fill="#fff" opacity=".5"><path d="m107.77985 25.8790977c-.660853.6608522-1.302457 1.3329324-1.924812 2.0162406-1.241504 1.3730326-2.420452 2.7957895-3.536843 4.2682707-2.3478125 3.1282115-4.4796706 6.4128165-6.3807514 9.8309775-.6784962 1.2030075-1.443609 2.3434586-2.242406 3.4742857-.6015038.8613534-1.6890226 3.3972932-3.0219549 3.1181955-1.2463158-.2598497-1.9536842-2.4541354-1.924812-3.5416542.0625564-1.6649624 1.1356391-3.1615037 1.7419549-4.6628571 1.4917293-3.681203 3.0363909-7.3335338 4.7206015-10.9329323.9094737-1.9584963 1.9729323-3.8496241 2.8294737-5.8514286.119782-.2493924.2179854-.5085851.2935338-.7747369.1106767-.4186466-.1203008-1.2655639.0577443-1.5975939.2839098-.5148873 1.3762406-.2069173 1.8285711.0384962 1.443609.7795489 1.486918 3.4213534 1.308873 4.8120301-.264662 2.078797-1.443609 4.0950376-2.2712786 6.0102255-.0292337.047837-.0141528.1103152.0336842.1395489s.1103151.0141528.1395488-.0336842c2.4060146-2.9112782 4.7350376-5.8418045 7.4490226-8.4691729.909474-.8757895 6.573233-6.077594 7.376842-2.8872181.303158 1.1933835-1.005714 2.7476692-1.746767 3.5416542-.335183.4106867-.803204.691499-1.323308.7939849-.832481.0962406-1.443609-.8806015-2.107669-.6929323-.35609.1010526-1.005715 1.0778947-1.308872 1.3810526m-59.452632 21.0766918c-2.3001504 1.3136842-5.0045113 2.0066165-7.5548872 2.6610526-1.6243629.4498175-3.2792388.7811143-4.951579.9912782-.2757015.0274171-.5320191-.1448469-.610769-.410481-.07875-.265634.0422656-.5497623.288363-.6770378 3.4646617-1.8141354 7.0063158-3.6042105 9.9849624-6.1160902 1.6842105-1.4195489 3.3010526-2.8487218 3.1711278-5.2210527-.1203007-2.2857143-1.0393985-4.5714285-1.5157894-6.8042105-.7169925-3.3347368-1.1404512-7.1699248.5293233-10.3121805 1.3954887-2.6321804 4.0902255-3.9073684 6.9774436-4.1094736 1.8141353-.1251128 3.849624-.0336842 5.4616541.8806015 1.2078196.6833082 3.3203008 2.6225564 2.8102256 4.2153383-.2357895.7314286-1.0490226 1.0297745-1.6120301 1.4676692-.64.481203-1.284812 1.121203-2.1750376.8132331-2.406015-.8324812 1.4051128-2.9401504 1.1741353-4.2297745-.2935338-1.6601503-3.1518797-1.2992481-4.2634586-.9239097-1.6288397.6031736-3.0058695 1.7393928-3.9073684 3.2240601-.9244409 1.5238712-1.2822409 3.3247978-1.0105263 5.0863158.2550376 2.5263158.7362406 5.0141353 1.2222556 7.5019549.4282707 2.2135338 1.2222556 4.7350376.7603007 7.0063158-.481203 2.3530827-2.7957894 3.849624-4.7446616 4.9756391m138.6345868-16.957594c-1.259806 1.9577321-2.647063 3.8304489-4.152782 5.606015-1.335351 1.5684378-2.855802 2.9693206-4.528121 4.1720301-.913305.644419-1.879104 1.2110205-2.887218 1.6938346-.828851.4702596-1.687175.8865626-2.569624 1.2463158-2.689925.8613534-1.371428-2.9160902-.962406-4.0228572.791538-2.1520723 1.74047-4.2429386 2.839098-6.2556391 2.246063-3.9970959 4.930056-7.7317685 8.002406-11.1350376.818045-.9335338 1.640902-1.8670676 2.478196-2.7813533.269473-.2935339.808421-1.1548873 1.231879-1.2511279.298346-.0673684.856542.3031579 1.101955.4475188 1.65303.9862356 2.662826 2.771671 2.656273 4.6965414-.245446 2.7813534-1.698679 5.2932331-3.209656 7.5933834m6.42406-11.1975939c-.808421-1.5302256-2.199098-2.4060151-3.724511-3.1470677-3.248121-1.5687218-7.304662-1.9584962-10.668271-.4475188-.447519.2021053-1.352181.8228571-.582256 1.3040601.404211.2550376 1.063459-.1491729 1.443609-.2454135 1.756391-.4090225 3.820752-.6784962 5.442406.2790978-1.741955.8372932-3.743759 1.1885714-5.341353 2.3001503-1.581519 1.1536768-3.046524 2.4591274-4.374135 3.8977444-2.669682 2.7532997-4.856108 5.9369569-6.467369 9.4171429-1.482105 3.2384962-3.089323 7.1843609-1.751579 10.7067669.962406 2.5263158 2.887218 4.8697744 5.822557 4.7542857 3.315488-.1299248 6.332631-2.8872181 8.661654-4.9660151 2.864109-2.6342981 5.389002-5.6150301 7.516391-8.8733834 2.001804-2.9930827 4.330827-6.6069173 4.763909-10.2592481.221456-1.6151252-.046747-3.2595448-.769924-4.7206015m-110.7103763 17.0345864c-3.7753125 2.4185839-7.8188681 4.3903017-12.0493233 5.8754888-1.0734349.380481-2.1694833.6938673-3.2818045.9383458-.8132331.1780451-1.6745865.2165414-2.5070677.312782-1.1596992 2.6033082-2.3097744 5.2066165-3.4309774 7.8147368-2.1076692 4.9130827-4.2634587 9.8646617-8.0264662 14.4360902-1.6672725 2.0798146-3.7870061 3.7519026-6.1978947 4.8890226-.9624061.4427068-3.6619549 1.7178947-4.7398497 1.9007519-1.9488721.3320301-.5293233-.7651128 0-1.3136842 3.9795489-4.2730827 6.4577444-9.2294737 8.7723309-13.9548873 2.7428571-5.5771428 5.293233-11.1879699 8.0457142-16.7651127 1.5494737-3.0893233 3.2336843-6.0920301 4.8938346-9.113985 1.5302256-2.7717293 3.1759399-5.5338346 4.9227068-8.1804511.6672859-1.0295013 1.3918341-2.0207346 2.1702256-2.9690226.6784962-.8180451 1.4003007-1.7371428 2.3338345-2.2568421.7554888-.4234586 3.3684211-1.924812 3.9073685-.5293233.327218.8757895-1.5687218 2.406015-2.1413534 3.2433083-3.1615038 4.7494737-4.8842105 10.0090225-7.030376 14.9413534-.811629 1.8670676-1.6360902 3.7341353-2.4733834 5.601203 3.6715789-2.0451128 7.3816541-4.0276692 10.8944361-6.3422557 3.6042105-2.3723308 7.4201504-4.6003007 10.2544361-7.9254135 2.4830075-2.8872181 4.1768421-7.3816541.481203-10.071579-3.4502256-2.5022556-8.3873684-3.6042105-12.5545865-3.9651127-2.3628618-.1917968-4.7395858-.1256422-7.0881203.1972932-1.0345865.1395489-2.0932331.2165414-3.1085714.481203-.8517293.1972932-1.7323308.9190977-2.5984963.5726316-1.0827067-.4378948-3.368421-2.6610526-1.924812-3.6619549.8757895-.60631579 2.1846617-.86616542 3.2-1.12120301 1.2191228-.30677507 2.4617373-.51119482 3.7148872-.61112782 8.2333835-.65924812 19.3684211 1.58796992 24.7867669 8.51729323 5.6926316 7.2854135-3.5705263 15.4369925-9.2198496 19.0604511m-45.8923308 4.5762406c-2.3290226.6897243-4.6548371 1.3826567-6.9774436 2.078797-4.8505263 1.443609-9.277594 3.5657143-13.8345865 5.8129324-1.5334336.7603007-3.0861153 1.4740852-4.6580451 2.1413533-1.71789473.7218045-3.95548872 1.5446617-5.82736841 1.106767-1.32330827-.312782-2.53593985-1.4436091-3.33954888-2.5070677-1.11639097-1.443609-.96240601-2.6658647-.63037594-4.4078196.82285715-4.5233082 2.79578948-8.7338345 4.81203008-12.8240601 4.51368425-9.0899248 10.34105265-17.3233083 15.59578945-25.98496242-4.2107453.56579064-8.3052312 1.79527333-12.1311278 3.64270677-1.78045112.84210525-3.90255639 1.79007515-5.38466165 3.10857145-.58706767.5196992-.61593985 1.2607519-1.10676692 1.7948872-.35361533.2991307-.77211616.5116764-1.22225564.6207519-.42301723.1575053-.89915603.0138767-1.16451128-.3512782-.71169837-.899226-1.0277696-2.0488916-.87578947-3.1855639.14161259-1.0099056.69793366-1.91501732 1.53503759-2.49744364.85224362-.56883968 1.76387933-1.04321295 2.718797-1.41473684 1.38105263-.61593985 2.68030075-1.40511278 4.05172932-2.05473684 6.58285715-3.10857143 13.81533835-4.50406015 21.05263155-4.91308271 3.8789226-.22156947 7.7696261-.11532767 11.6306767.31759398 1.9248121.21814537 3.8496241.52130326 5.7744361.90947369.7554887.15398496 4.0902256.35127819 3.9603008 1.56390977s-3.195188.88541354-3.9795489.86616542c-1.9729323-.04330827-3.9314286-.29353384-5.8995489-.43789474s-3.9939849-.12511278-5.9909774-.06736842c-1.8141354.05774436-3.8015038.04330827-5.5723309.48120301-1.6793984.41864661-1.3762406 2.20390977-1.7034586 3.5849624-.4992991 1.91316623-1.2914137 3.73762692-2.3482707 5.40872182-2.1942857 3.681203-4.4655639 7.3190977-6.6887218 10.9858646 5.0670677-1.443609 10.1052632-2.7813533 15.3022557-3.8159398 2.6073106-.5509739 5.251304-.9112261 7.9109774-1.0778947.5774436-.0336842 2.4830075-.4475188 2.723609.2646616.3416542 1.0201504-1.924812 1.5687218-2.56 1.7371429-2.5792481.7073684-5.1055639 1.5446616-7.6607519 2.3386466-2.5551879.793985-5.1969924 1.443609-7.7618045 2.2664662-2.4386979.8165282-4.832077 1.7626358-7.1699248 2.8342857-.6111278.2742857-1.1067669.5245112-1.770827.2406015-.3272181-.1443609-.6063158-.5966918-1.0153384-.5196993-.7891729.153985-1.4821053 2.3386466-1.8045113 2.9593985-1.443609 2.7909775-2.9305263 5.5723308-4.330827 8.3825564-.65924816 1.3184963-1.28000004 2.6610526-1.94887222 3.9699248-.31278195.6063158-.63037594 1.2126316-.90947368 1.8285715-.19551585.4361509-.12437504.9456986.18312279 1.311621s.79718029.5237545 1.26048623.4062737c1.49172928-.4138346 2.97383458-1.0586466 4.33082708-1.5783459 2.1221053-.803609 4.2249624-1.6505263 6.3422556-2.4589473 4.2451207-1.697153 8.5828824-3.152713 12.9924812-4.3596993 2.1812494-.571317 4.3958239-1.0068393 6.6309775-1.3040601.481203-.0673685 4.6724812-.9624061 3.368421.7651127-.4523308.6015038-1.6938346.7603008-2.3482706.9624061l-3.6042106 1.0538345m84.6917294-16.4330827c.923939-1.2835777 1.961071-2.4817553 3.098947-3.5801503.793985-.6881203 2.762106-2.3723309 3.849624-1.4051128.938346.8421052-.962406 3.2625564-1.544661 4.0324812-.992595 1.266794-2.111543 2.4292752-3.339549 3.4694737-2.685935 2.3503977-5.611715 4.4116694-8.729023 6.1497744 1.924812-3.1181955 4.40782-5.8081203 6.674286-8.6616541m48.351278-7.98797c.928722-.33203 1.741955-.8757894 1.087519-1.924812-1.568722-2.5359398-4.653233.1876692-6.183459 1.2415038-2.304962 1.5927819-4.55218 3.2818045-6.693533 5.0911278-2.198177 1.8502147-4.273357 3.8418089-6.212331 5.9621053-1.838196 2.0258646-3.368421 4.5762406-5.634888 6.1497744.221354-1.6986466.760301-3.3347369.962406-5.0333835.404211-3.3010526.336843-6.6983458 3.132632-8.9840601.587068-.481203 1.20782-.9094737 1.766015-1.443609.346466-.312782.962406-.7362406 1.164511-1.1693234.606316-1.3521804-1.597594-2.1990977-2.579248-1.8141353-2.617744 1.0249624-4.937143 3.5897744-6.327819 5.9572932-.784361 1.3281203-1.193384 2.8102256-1.924812 4.1624061-.808421 1.5254135-2.372331 2.6033082-3.633083 3.7389473-2.786165 2.5118797-5.591579 4.9996993-8.517293 7.34797-2.74587 2.3128256-5.702112 4.3636678-8.830075 6.1257142-2.228535 1.2223158-4.597387 2.1692101-7.054437 2.8198497-.962406.2646616-3.079699.962406-3.536842-.481203-.457142-1.4436091.293534-2.9930828.818045-4.2538346.481203-1.1741354.914286-2.4060151 1.703459-3.4213534.962406-1.2126316 2.199098-1.6697745 3.570526-2.2279699 3.286617-1.3377444 6.207519-3.3684211 9.104361-5.4039098 2.685113-1.8622557 5.350978-3.6908271 7.044812-6.5780451.601504-1.0201504.991279-2.1846617.226166-3.2240602-.837293-1.130827-2.329023-1.3184962-3.257745-2.3049624-1.385864-1.4724812-2.752481.0336842-4.056541.962406-1.443609 1.0297745-2.84391 2.0836091-4.224962 3.1855639-2.694744 2.1015346-5.184086 4.4539232-7.434587 7.0255639-3.945864 4.6003008-9.426767 12.6412031-4.956391 18.6081204 1.679399 2.242406 4.81203 1.924812 7.218045 1.2318796 3.296434-1.0018201 6.391132-2.5752299 9.142857-4.648421 2.329023-1.756391 4.69173-3.4790977 6.96782-5.2932331 2.949774-2.3675188 5.577143-5.1103759 8.276692-7.7521804-.683309 4.0324812-.962406 8.2141353-4.619549 10.7741353-1.693835 1.1885714-3.81594 1.924812-5.774436 2.4830075-.452331.1299248-2.713985.312782-2.348271 1.1548872.149459.2292647.374024.3993899.635188.481203.422047.1724879.85435.3187314 1.294436.4378948.452331.1347368.904662.2646616 1.361805.3753383.918585.2287688 1.859158.3578354 2.805413.3849624h.375339c.764812-.0037607 1.527898-.0729858 2.280902-.2069173.752176-.1276221 1.491381-.3224889 2.208722-.5822556.707645-.2551297 1.389249-.577401 2.035488-.962406.433798-.2637882.847189-.559757 1.236692-.8854135.777444-.5968741 1.390164-1.381818 1.780451-2.2809023.346466-.9287218.418647-1.8911278.962406-2.7428571 1.206918-1.7806711 2.540067-3.4724347 3.989173-5.0622557 1.501354-1.7275188 3.989173-4.5281203 5.533835-6.2171428 1.544661-1.6890226 2.997894-3.3154888 4.864962-4.5714286-.891223 2.84405-1.535219 5.7597402-1.924812 8.7145865-.538947 3.6138345-1.405113 7.0159398-4.412631 9.3786466-1.424252 1.0577428-3.014736 1.8708737-4.706166 2.406015-.808421.2790978-1.626466.5437594-2.444511.7891729-.818045.2454136-1.61203.2742858-2.295339.7266166-.126118.0808788-.195551.2262065-.17923.3751386.016322.1489321.115582.2757729.256223.3274178 1.251128.481203 2.887218.3031579 4.143158.2309774 2.786374-.0939056 5.555394-.4777301 8.262256-1.1452631 1.377522-.3156615 2.665676-.9391742 3.767819-1.8237594.946622-.8944451 1.646115-2.0182749 2.030677-3.2625564.658611-2.1526016 1.128753-4.3584069 1.405113-6.5924812.365714-2.3242106.620751-4.6676692 1.029774-6.9870677.447519-2.5215038.928722-5.5819549 2.651429-7.6030075.732581-.8194951 1.671419-1.4276626 2.718797-1.761203" transform="translate(45)"/><path d="m21.3654135 16.7554887c-.0001098.082016.0471565.1567181.1213194.1917394.0741629.0350214.1618806.0240618.2251468-.0281304 1.9873684-1.6216541 3.6523308-3.9410526 5.0093233-6.0679699.7699248-1.2030075 3.3972932-5.77443607.635188-5.95729321-5.8177444-.42345865-6.0294737 7.69924811-5.9909775 11.86165411m-17.32330824 27.4285715v.481203c.00901837.3698003.14882552.7244331.39458647 1.0009022.4246126.3294908.98366602.4301563 1.49654135.2694737.35333657-.0826886.69457879-.2104523 1.01533835-.3801504 3.01652618-1.6013128 5.76377087-3.6649937 8.14195487-6.1160902.7603008-.7795489 1.5238095-1.5542857 2.2905263-2.3242105l1.1548872-1.1596993c.389271-.3068604.6816794-.7195738.8421053-1.1885714.2021053-.7747368-.481203-2.0258647-.6784962-2.7957895-.2887218-1.1404511-.5196993-2.2905263-.7362406-3.4454135-.149173-.803609-.3801504-2.5022557-.4234587-2.8872181-.0721804-.5726315-.2983458-.8902255-1.5109774.4330827-2.6899248 2.9449625-5.2932331 5.745564-7.84842107 8.8300752-1.54466166 1.8766918-3.04120301 3.9025564-3.68601504 6.2845113-.28810219.9768624-.43872251 1.9890957-.4475188 3.0075188m42.20631581-21.3365413c-1.924812.168421-3.6860151 1.0634586-5.3365414 2.0114285-1.6505263.94797-3.3972932 1.9873684-5.0285714 3.0845113-3.1876246 2.1474899-6.2558343 4.4671207-9.1909774 6.9485714-.6371883.5033279-1.1797736 1.1159767-1.6024061 1.8093233-.5245112.9287218-.2406015 1.5783459.2165414 2.4733835.7980349 1.527463 1.8090397 2.9337966 3.0027068 4.1768421 2.4581691 2.6598761 5.3596307 4.872607 8.5750376 6.5395489.6881203.3320301 1.3569924.7169925.5245112 1.4099248-.6063158.481203-1.4195488.4138346-2.1317293.2646616-2.7765413-.5822556-5.0574436-2.5551879-7.2180451-4.2875188-1.3597261-1.0910259-2.5900009-2.3342169-3.6667669-3.7052631-.5473439-.6810769-1.0412449-1.4034272-1.4772933-2.1606015-.3753383-.6784963-.5918797-1.4869173-1.2126315-2.0018045-.2069173-.1732331-1.3954888 1.2607519-1.761203 1.607218-1.4502353 1.3790616-2.9712918 2.6816771-4.5569925 3.9025564-1.5633892 1.206985-3.1888701 2.3313295-4.8697745 3.3684211-1.50135334.9142857-3.18556387 1.9584962-4.96120296 2.1990977-3.72451128.481203-5.98616542-3.4309774-5.46646617-6.7368421.54857143-3.5079699 2.59368421-6.6742857 4.81203008-9.3786466 2.47338346-3.036391 5.19218045-5.918797 7.93022555-8.7145865.6592481-.6736842 1.3281203-1.3425564 2.0066166-1.9969925.6784962-.6544361 1.5542857-1.2703759 1.9825563-2.1269173.3897745-.7747368.3031579-1.5783458.2454136-2.406015-.0769925-1.0827068-.1106767-2.1606015-.0962406-3.2433083.0625564-3.7822556.5966917-7.83879695 2.56-11.13984959 1.5783458-2.65142857 4.0228571-5.40390977 7.3768421-3.99398496 2.9882707 1.26075188 4.2778947 4.86496241 3.368421 7.83879699-1.0538346 3.50796996-3.9554887 6.68390976-6.4962406 9.21984966-1.3136842 1.3088721-2.5888721 1.9921804-2.3771428 4.008421s.5293233 4.1383459.8132331 6.2027068c.0540366.8812102.1698093 1.7575456.3464661 2.6225564.2839098.9864661.9094737.1876692 1.443609-.3031579 1.4917294-1.3425564 3.0171429-2.6418045 4.5906767-3.8833083 3.026767-2.406015 6.3085715-4.8120301 9.8646617-6.3326316 1.6285723-.7562379 3.4187559-1.0984059 5.2114286-.9960902 1.2463158.1058647 3.9266165.5966917 4.5569924 1.8815038.7506767 1.5302255-.962406 1.924812-2.0258646 1.8285714" transform="translate(53.180451 56.300752)"/><path d="m153.176541 15.0905263c-4.027669 0-8.098646-.2309774-12.121503-.0433083-3.021955.1395489-5.875489.4812031-8.878196.8132331-.433083.0481203-.962406.1347369-1.371428.1924812-.500264.06235-.992336.1785114-1.46767.3464662-.197293.1299248.793985 1.1308271 1.063459 1.4965413.535627.7178579.990692 1.4924376 1.356992 2.3097745.681347 1.5479302 1.057159 3.2129378 1.106767 4.9034586.129925 3.7052632-1.506165 6.8042106-3.27218 9.9464662s-3.686015 6.2267669-6.298947 8.7386466c-2.271279 2.1846617-5.375038 4.3548872-8.57985 4.7687218-2.593684.3320301-4.330827-1.3810526-4.908271-3.8015037-.741052-3.2192482.30797-6.5251128 1.689023-9.4123309 1.474012-3.1437833 3.325874-6.0960974 5.514586-8.7915789 2.069173-2.5022557 4.633985-5.3990978 7.699248-6.6261654 1.520602-.6015038 2.362707-.4042106 2.593685 1.2944361.202105 1.4965413-1.578346 1.4724812-2.540752 2.2375939-1.25594.9960903-2.223158 2.4396993-3.185564 3.7052632-1.020151 1.3377444-1.992181 2.713985-2.887218 4.1383459-1.82582 2.8192821-3.27073 5.8676707-4.297143 9.0658646-.230977.7506767-1.486917 3.8833083-.630376 4.3693233.856541.4860151 3.320301-1.3040601 4.027669-1.7515789 2.863158-1.8093233 4.744662-4.3067669 6.573233-7.0977444 1.953684-2.9882706 3.979549-6.1401503 4.922707-9.6240601.473434-1.654823.508259-3.4043395.101053-5.0766917-.346467-1.3569925-1.227068-3.7533835-2.713985-4.2009023-.85173-.2550376-2.045113-.0529323-2.887218.158797-.702557.1780451-1.790076.962406-2.483008.481203-.245964-.2032216-.399479-.4971267-.42575-.8151001-.026272-.3179735.076926-.6330885.286201-.8739225.529324-.5196992 1.794887-.5100751 2.473384-.64 7.896541-1.5157894 15.769022-2.887218 23.829173-1.8093233 1.948042.3078365 3.87621.7304265 5.774436 1.2655639.075682.0261282.122508.1019259.112003.181299s-.075438.1403791-.155312.1459191m-121.4508266 30.7344361c-.2742857.6688722-3.1663158.6207519-3.7581955.6929323-3.0315789.3657143-6.0727819.7169925-9.0995489 1.1452632-2.9957939.4376824-5.9540598 1.1020455-8.8493233 1.9873684-1.44360899.4330827-2.88721801.8998496-4.33082703 1.3762406-.55132389.1597585-1.0914547.3558775-1.61684211.5870677-.66406015.3127819-1.06345864.8517293-1.66977443 1.2174436-2.03067669 1.2318797-3.0075188-2.4060151-1.13082707-3.3684211 1.58315789-.7939849 3.40691729-.6303759 4.21533835-2.5215037.481203-1.116391.57263157-2.4300752.91909774-3.5945865.4256491-1.4117465.92682219-2.7996105 1.50135338-4.157594 1.07789474-2.5936842 2.32902257-5.115188 3.39248117-7.6992481 2.232782-5.4520301 4.7639098-10.7067669 7.5260151-15.9085714 1.3810526-2.5936843 2.7813534-5.1825564 4.1383458-7.79067674.630376-1.21744361 1.2511279-2.44451128 1.8718797-3.66676692.3320301-.66406015.6688722-1.32330827.9864662-1.99218045.2598496-.54857143.4523308-1.37142857.9287218-1.78045112 1.6697744-1.41473685 3.4790978 2.56481203 3.6908271 3.71969924.4475188 2.47819549-.1972933 5.17774436-1.0827068 7.48751879-1.0153383 2.6514286-2.4974436 5.0815038-3.7966917 7.5933835-1.443609 2.8390977-3.0219549 5.6300752-4.5762406 8.4210526-3.1470677 5.6589474-5.7744361 11.6066165-8.5509775 17.4676692-.1134539.2323422-.0849911.5089709.0733971.7133428s.4191659.3009566.6724676.2490632c2.5311278-.481203 5.0766917-.9046617 7.6366917-1.1741353 2.8102256-.2935339 5.8754887-.64 8.6616542-.1299249.4138345.0769925 2.5551879.3224061 2.2231579 1.1404512m27.0917293-6.2171429c-.1780451-1.2607519.6351879-2.5166917 1.116391-3.6186466 1.8237594-4.1816541 3.7581954-8.3103759 5.5771428-12.5112782-2.7621052 3.0893233-5.5867669 6.1209023-8.2045113 9.3353383-2.5455639 3.1278196-4.9227067 6.390376-7.2806015 9.6577444-2.1654135 3.0027068-4.1527819 6.3470677-7.0881203 8.6616541-1.3521804 1.0634587-2.4300752.9624061-3.6763909-.2598496-1.2382289-1.2276443-1.8915772-2.9267004-1.7948873-4.6676692.1106767-1.8766917.9624061-3.6378947 1.7323309-5.3221052.9190977-2.0499248 1.924812-4.0661654 2.7091729-6.1690226-2.5936842 2.6658647-5.12 5.5530827-8.1130827 7.7425564-3.3684211 2.4493233-5.1729323-2.0210526-4.1190978-4.8120301.5293234-1.3954887 1.5783459-2.5263158 2.4830076-3.690827 1.2270676-1.5735339 2.4348872-3.1615038 3.5897744-4.78797 1.0746883-1.4948481 2.0705321-3.044831 2.9834586-4.643609.2454136-.4378947.8421053-1.2415037.7843609-1.8045113-.0577443-.5630075-.6111278-.7266165-1.0634586-.9960902-.0546937-.0331382-.0881017-.0924414-.0881017-.156391 0-.0639495.033408-.1232527.0881017-.1563909 1.2607519-.8469173 3.8496241-.3416542 4.0421053 1.3858646.1203007.9912782-.5726316 2.1365414-.9624061 2.9978948-.481203 1.0057142-1.0009022 1.9873684-1.5639097 2.9449624-1.121203 1.924812-2.4060151 3.7485714-3.6523309 5.5723308-.6303759.9094737-1.2751879 1.8189474-1.8911278 2.7428571-.322406.481203-.6303759.9624061-.9335338 1.4676692-.3031579.5052632-.8421053.9046617-.481203 1.275188.0769925.0769925.2309774.0384962.3705263-.0818045 3.4357895-3.0171429 6.8378947-6.0439098 10.2159399-9.1428572 1.6583629-1.4731359 3.2282174-3.0429904 4.7013533-4.7013534 1.0538346-1.2174436 1.8574436-3.0027067 3.7966918-2.6418045 2.406015.4475188 1.6793985 2.4445113.9287218 3.9747369-1.0297745 2.1028571-2.1894737 4.1383458-3.1855639 6.2556391-1.9007519 4.0276691-4.2730827 8.0649624-5.2595489 12.4439097 5.7166917-7.1747368 11.3275188-14.4360902 17.6697744-21.1007518 1.5687218-1.6457143 3.1871679-3.2401003 4.8553384-4.7831579.7827569-.7218045 1.5847619-1.429173 2.406015-2.1221053.7073684-.6063158 1.1741353-1.4051128 1.8670677-2.0018045 1.0942226-.855154 2.5975918-.961722 3.8015037-.2694737.5726316.3320301 1.2511279.8998496 1.0057143 1.5687218-.1299248.3464662-.6977443.6977444-.962406.962406-.3609023.3897745-.7073684.798797-1.0345865 1.2222557-2.8439097 3.6619549-4.330827 8.1804511-6.5299248 12.1840601 1.9969925-1.924812 3.9699248-3.8784962 6.0246617-5.7503759 1.0522306-.962406 2.1140852-1.916792 3.1855639-2.8631579.962406-.8469173 2.1894737-2.406015 3.4935338-2.6369925.7169925-.1251128 2.242406.0336842 2.5984963.7699248.3993985.8180451-.3897745 2.4060151-.6929324 3.1278196-1.0778947 2.6129323-2.4781955 5.0622556-3.522406 7.6992481-2.1338011 5.5448972-3.9776964 11.1970465-5.5242105 16.9335338-.1972932.7266166-.4042105 2.6369925-1.3906767 2.6851128-.7218045.0288722-1.8045113-1.2366917-2.1894737-1.7900752-1.130827-1.6409022-.0914286-3.7822556.4475188-5.4520301 1.0249624-3.1663157 2.0691729-6.3326315 3.2529323-9.446015s2.8487219-6.082406 3.9699249-9.2198496c-3.4261655 2.4300752-6.3326316 5.9765413-8.8974437 9.2679699-1.4520509 1.7689994-2.7831894 3.6338794-3.9843609 5.5819549-.5678195.962406-1.4724812 3.8159398-3.0556391 2.9209022-1.0778947-.6063157-2.3627067-2.5840601-2.5359398-3.8159398m44.5160903-13.6806015c-.659248.793985-1.30406 1.602406-1.924812 2.406015-2.550376 3.2433083-5.0045114 6.5780451-7.8339851 9.590376-2.5840601 2.7524812-8.5894737 7.997594-9.7010526 7.4778947-.7121805-.317594 4.9371429-8.4210526 8.1804511-11.9097744 1.2992481-1.3954887 2.5022557-2.8872181 3.7822557-4.3308271 1.2616337-1.4846993 2.6582959-2.8491433 4.1720299-4.0757895.765113-.5630075 3.806316-2.723609 4.624361-1.5735338.548571.7699248-.832481 1.8333835-1.294436 2.406015m-22.7849625 37.5627068c-4.6339849 2.9305263-10.2255639 4.1816541-15.6439097 4.5473684-.6833083.0481203-1.6409023.0866166-2.0451128-.6015037-.7699248-1.3233083 2.718797-3.4550376 3.5945865-4.0372933 7.2565413-4.802406 15.8027067-7.2854135 24.1563909-9.4796992-2.6885025 3.8451802-6.1154852 7.1167628-10.081203 9.6240601m26.6971426-32.4090225c.606316-2.0499248 1.472481-4.1287218 1.924812-6.2171429.197294-.962406.23579-1.3666165.87579-2.1124812.577443-.6688722.524511-1.1115789.09624-1.8815037-.510075-.9094737-1.924812-2.5936843-2.661052-1.0827068-.327218.6592481-.89985 2.237594-1.766015 2.3242105-.683309.0673684-1.097143-.7843609-1.756391-.9239098-.750756-.1044574-1.514384-.0685604-2.25203.1058647-3.5031582.6736842-6.7368424 3.3684211-9.3978951 5.5819549-2.7497731 2.27285-5.2587827 4.8221714-7.4875188 7.6078195-1.9584962 2.4589474-4.6628571 5.4135339-5.293233 8.6183459-.5630076 2.8246617.8661654 6.9918797 4.4174436 6.5010526 1.6601503-.2261654 3.2673684-1.5350376 4.5425564-2.56 1.5132533-1.2501464 2.9468291-2.593722 4.2923308-4.0228571 2.8198496-2.9305263 5.4039098-6.072782 8.0938341-9.113985-1.2900241 4.2409606-3.0121392 8.3382401-5.1392477 12.2273685-.5100751.9174937-1.0474185 1.8221553-1.61203 2.7139849-.481203.7651128-1.28 2.083609-1.8285715 2.3771429-.3609022.1876691-2.3627067.6255639-3.3972932.8709774-1.1789474.2839098-2.3627068.5678196-3.5368421.8806015-7.6366917 2.0306767-15.1193985 4.7687218-21.7263158 9.1717293-1.4099248.9624061-2.8006015 1.9969925-3.6908271 3.4646617-1.1500751 1.8815038.6881203 3.6330827 2.2568422 4.4703759 2.0368021 1.0364087 4.2980291 1.5537801 6.5828571 1.5061654 5.1003986-.0861257 10.0968098-1.4564564 14.5275188-3.9843609 3.0214931-1.7501069 5.8076441-3.8781247 8.2911278-6.3326315 1.3882531-1.3329405 2.7084248-2.7350208 3.9554887-4.2009023 1.2222557-1.443609 2.1076692-3.1470677 3.2818045-4.6195489.5870677-.7362406 1.6457143-.6784962 2.5166913-.8372932.962406-.1732331 2.021053-.3512782 2.978647-.481203 1.557294-.1645185 3.09382-.4869793 4.585865-.962406.099932-.0450175.159926-.1488498.14902-.2579096s-.090273-.1989559-.197141-.2232934c-2.752481-.3657143-5.519398-.1732331-8.406616.0962406 2.146165-3.9025564 3.594586-8.1275188 4.898647-12.3717293.654436-2.1124812 1.260751-4.2345865 1.886315-6.3566918" transform="translate(101.300752 56.300752)"/></g></svg>