<svg height="128" viewBox="0 0 300 128" width="300" xmlns="http://www.w3.org/2000/svg" xmlns:xlink="http://www.w3.org/1999/xlink"><mask id="a" fill="#fff"><path d="m0 .02605941h237.832128v93.93515969h-237.832128z" fill="#fff" fill-rule="evenodd"/></mask><mask id="b" fill="#fff"><path d="m.0852477.15606747h124.8233173v34.84393253h-124.8233173z" fill="#fff" fill-rule="evenodd"/></mask><g fill="#fff" fill-rule="evenodd" opacity=".6" transform="translate(1 13)"><path d="m276.063559 54.2712474c.146286-.0140828.231944.1618368.138248.2758844-1.281436 1.560421-3.174425 1.7044812-5.20038.5711617-2.108629-1.1792618-3.229082-3.1937955-4.343334-5.2007107-.345391-.6224138-.555748-.8105693-1.211164-.2985093-1.65071 1.2898465-3.334949 2.5425235-5.066725 3.7199384-1.667934 1.1340121-3.524409 1.9704383-5.495019 2.3873817-1.802048.3811592-3.842931.5127526-5.424058-.6124866-.919281-.6542732-1.543924-1.6596932-1.938918-2.7200591-.662994-1.7788199-.771388-3.9658103.125617-5.6871446.840053-1.6116732 2.178442-2.8202549 3.433009-4.0987889 3.083025-3.141389 6.693782-5.6652123 10.130465-8.3924284 1.047425-.8311163 1.923303-1.7093293 1.959587-3.4034215.09783-4.5785277.792515-9.0947216 3.186826-13.1309459.927319-1.5631914 2.145602-2.9347643 3.954999-3.4708343 2.267086-.6718191 4.866702.2927376 6.258599 2.5125109 1.225861 1.9549704.872662 4.0957876-.247791 6.0068936-2.014243 3.4357427-5.024929 6.009433-7.819286 8.7576578-1.104378 1.0857612-.858655 2.7699261-.729592 4.1643547.101963 1.0975353.246182 2.1911459.432886 3.277138.158457.9234626.224137 2.065555.801242 2.838955.265244.3414503.486854.0387854.782411-.1789209 3.631195-2.6766564 7.313143-5.2745877 11.358853-7.3117462 1.096569-.5522307 2.298318-.8719796 3.524409-.9103033.26065-.0080803.529338-.0043865.780344.05333.7436.1710714 1.361583.6348805 1.527389 1.3450233.143071.6136409-.609945.7854049-1.015504 1.039588-4.99186 3.1291531-9.947206 6.3056337-14.611358 9.927685-.806983.6268003-1.307386 1.3237837-.956484 2.3631409.403032 1.194268.776211 2.4564106 1.316113 3.5955017.867151 1.8293795 2.40166 2.7671558 4.348616 2.5801546m-26.614373-4.1574288c-.011483.07734-.020898.1551418-.028247.2331744-.095074 1.0201953.299002 2.1465888 1.186592 2.6503377.509818.2895055 1.124127.3458367 1.704677.2696511.941787-.123744 1.921465-.4878192 2.757844-.9310812 3.374219-1.7887471 6.16628-4.4333132 9.373315-6.4695483.415663-.2638795.291194-.6115631.192904-.9853346-.646-2.4596427-1.240099-4.9308287-1.390978-7.4828177-.044781-.7586246-.449881-.7413096-.920659-.4280249-.868988.5780876-1.689062 1.2314374-2.559428 1.8072163-2.088879 1.3821927-4.088883 2.9156024-5.864293 4.6904976-.99805.9978013-1.958438 2.0429302-2.781727 3.1931029-.727754 1.0167323-1.480081 2.1879138-1.67 3.4528267m18.619176-22.3078558c2.417734-2.5173591 4.997141-4.8772678 6.546806-8.0537484.323115-.6618919.436561-1.4170534.296246-2.1408173-.277874-1.4322905-1.210704-1.6756229-2.296939-1.682349-.770699-.0048172-1.379267.5591876-1.825014 1.1347357-.403721.5215255-.720865 1.1074626-1.077279 1.6608475-.253301.3929334-.433805.8484313-.610863 1.2810736-.297624.7269959-.487543 1.5043206-.60742 2.2804909-.255828 1.6543833-.227581 3.3350853-.373637 4.9998576-.015386.1736109-.03238.3467602-.0519.5199094"/><path d="m236.803801 21.5465218c-.593959-.0886485-1.219605-.0514208-1.822816-.0044208-4.891143.3811188-9.754299 1.1245099-14.537197 2.2220297-.255116.058401-.527578.1284356-.698735.3273713-.171156.1991683-.161673.5702822.079333.6726584-.904353-.5742376-2.087415-.5249109-3.094462-.1624059-1.006817.3625049-1.887116 1.001193-2.787769 1.5812475-2.171143 1.3983663-4.521306 2.4868119-6.790054 3.7178861-4.651062 2.5242723-8.951483 5.6432574-13.297932 8.6675446-.327742.2280198-.743143.4644158-1.10049.2866534-.331674-.1647326-.417483-.5923861-.463973-.9616386-.36868-2.9284257-1.008667-6.0236782-.757483-9.0205099.210476-2.5112426 2.289796-4.4219554 4.299265-5.6695495 2.161198-1.341594 4.71513-1.9600396 7.245007-1.8904703.944368.0260594 2.029592-.1002822 2.205374-1.2527128.190123-1.2459654-.513469-2.0670694-1.800149-2.2373862-.58517-.0774802-1.201102-.177995-1.770313-.0779455-2.821306.4951287-5.755483.7080247-8.447497 1.7571485-1.555211.6061138-3.033864 1.5244752-4.116081 2.8172079-1.211973 1.4476931-1.744177 3.3139653-2.135756 5.1304455-.461659 2.1426882-.72834 4.1925397-.503523 6.4192228.140163 1.3899901.140163 1.3899901-1.162245 1.4488565-2.769034.1247128-5.477007.6133267-8.162082 1.2785396-2.545374.6310099-2.604122.6175148-2.411224-1.9328169.278245-3.6760049.840054-7.3022178 2.53566-10.6385198.694108-1.3662574 1.371102-2.7725346 3.158299-3.0312673.40985-.0593317.785932-.3971733.724639-.8767129-.138081-1.0835594-.729034-1.9898218-1.62853-2.4958861-.550014-.3092228-1.318599-.2208069-2.0023.151703-2.039074 1.1103168-3.770993 2.5491683-5.100231 4.4694208-.746843 1.0791386-1.567238 2.0747475-2.585156 2.9349405-5.768898 4.875203-11.397402 9.9079258-16.853361 15.1400496-3.237633 3.1050247-6.615429 6.0709108-10.573306 8.2545495-2.036068 1.1231138-4.18385 1.9942425-6.485674 2.3707079-.811374.1326237-2.087877.2773465-2.175768-.7289654-.154504-1.7664554-.000232-3.6108564.35966-5.3528812.208163-1.0081732 1.596149-.7217524 2.413537-1.1233465 3.853333-1.8930297 7.239456-4.4740743 10.581401-7.1135198 2.587007-2.0428713 5.378014-3.8944851 6.86615-7.0586089 1.092626-2.3237079.839129-3.1199158-1.464313-4.2197624-3.153673-1.5058614-5.91785-.5279356-8.760898 1.0277178-7.160354 3.9182179-12.647769 9.1484802-14.676435 17.4446783-.974667 3.9859257-.111946 7.3436336 2.750993 10.1971386.778762.776198 1.774014 1.3269356 2.886762 1.3411287 4.299959.0551435 8.030939-1.563797 11.471877-4.0378119 6.172735-4.4380099 10.711157-10.5836089 16.238354-15.6991634 2.114939-1.9572475 3.969674-4.2016138 6.550898-6.4115445-.94668 2.8951534-1.231864 5.4282673-1.458068 7.9527723-.120966 1.3541584-.633048 2.6552673-1.899143 3.2902326-1.568394.7864357-3.246884 1.3546238-4.814122 2.1668862-1.366939.7082574-2.736422 1.4132574-4.067279 2.1885247-.602748.351104-1.178435.7380396-1.774014 1.0942624-.777143.4648812-1.575333 1.1291634-1.717809 2.0847525-.083034.5584158.086734 1.1226485.297211 1.6459307.448707 1.1156683 1.111129 2.1720049 2.062435 2.9021336 1.144898.8783416 2.681605 1.2336337 4.089483 1.3539258 1.693293.1444901 3.405088.1982376 5.093524-.0321089 2.595333-.3536634 5.588258-1.4211684 6.733619-4.0001188 1.243428-2.7990595 1.965986-5.7263218 2.321714-8.7499109.112177-.9537278.541225-1.4623515 1.431701-1.7538911 3.446258-1.128698 6.949877-1.9702773 10.557578-2.3765248.754708-.0849257.969347.2049852 1.089157.882297.209088 1.1803515.409387 2.3809456.808829 3.5026634.371225 1.0426089.048341 1.5926485-.746843 2.2413416-3.29985 2.6915644-5.811225 4.1736931-9.065973 6.9208663-.38834.327604-1.431932 1.6605891-.791714 2.4156139 2.18849 2.5808119 8.342721 3.0489505 12.932952 1.3334505 3.227456-1.2061782 4.403347-2.1508317 4.309442-4.5985545-.087428-2.2841534-.299061-4.5690049-.97536-6.7721881-.244476-.7969059-.224354-1.2820297.375388-1.833.648081-.5951782 1.307034-1.1780247 1.97917-1.7457475 1.344041-1.1347475 2.73619-2.2117921 4.171592-3.2271782 2.839115-2.0086683 5.847074-3.7765198 8.982013-5.2758664-2.314544 2.3446486-4.647823 4.7123317-6.417905 7.4955693-.92887 1.4607228-1.706707 3.0652377-1.903074 4.7877179-.251415 2.2094653.526884 4.5192128 2.074231 6.1074406 1.547347 1.5882277 3.835524 2.4181732 6.032571 2.1722376 2.391334-.2675743 4.488463-1.702703 6.328857-3.2618465 6.284218-5.3237971 10.945456-12.9887525 11.276436-21.2470248.020122-.5007129.048109-1.058896.408-1.4053465.208857-.2012624.49566-.293401.771823-.3794901 3.443483-1.0726238 6.886966-2.1452476 10.330449-3.2178713-.323116-.1703169-.670055-.2694357-1.028327-.3229505m-98.601387 14.8066287c3.160381-3.7551139 7.309537-6.320802 11.266721-9.106599.676762-.4765149 1.573945-.5377079 2.078857-.0907426.461891.4085743-.276857.9895594-.605293 1.3832426-4.172054 5.0001485-9.474898 8.5919257-15.181809 11.8535396.80351-1.3553218 1.441646-2.8514109 2.441524-4.0394406m19.707972 14.2130792c-.488258.0814356-.989932.1105198-1.50502.0770149-.188735-.0123317-.384871-.0351337-.543075-.138906-.210245-.1375099-.315714-.3978713-.327279-.6498564-.024517-.5386386.241238-1.0884456.629578-1.4493218.302762-.281302.859252-.715005.859252-.715005 1.7-1.3111138 3.616953-2.2888069 5.459429-3.3774851 1.178435-.6961584 2.435279-1.258297 3.905143-2.0079703-.092749.0472327-.195905.7608416-.234762.8878812-.088123.2885148-.187347.5735396-.299062.8536782-.208163.5225842-.458653 1.0279505-.753551 1.5065594-.546081.8855545-1.243197 1.6675693-2.043932 2.327198-1.510571 1.2443367-3.224911 2.3667525-5.146721 2.6862129m31.450694-4.219995c.036313.7971386-.137387 1.823693-.582857 2.4961188-.278707.4211386-.697578.729198-1.135646.9779257-.825714.4688366-1.683116.8727574-2.588626 1.1584802-1.228163.387401-2.516231.5907574-3.803837.5900612-.051347 0-.104544-.0009325-.150571-.0237345-.045796-.0230346-.081646-.0751534-.069157-.1249455.008327-.0332723.035388-.0581683.061062-.0809703 1.581347-1.3995297 3.183047-2.7762574 4.78336-4.1536832.195442-.1682227.390885-.3362128.586558-.5042029.583551-.5016436 1.168721-1.0030545 1.798993-1.443505.096449-.0674752.202612-.1363465.320109-.1333218.086503.0020941.167456.0432773.239156.0921386.382096.2589654.521334.7059307.541456 1.1496387m30.004885-13.1662822c-2.651769 5.9343317-6.209048 11.1194554-11.908327 14.523-.569211.3399356-1.282979.8885792-1.836694.4216039-.610149-.5142079-.296285-1.4339653-.129524-2.1336138.702204-2.948203 1.866068-5.6842079 3.797361-8.0630594 2.393878-2.9491337 4.347837-6.2416931 7.147633-8.8825347 1.299864-1.2259554 2.802802-2.0305396 4.515523-3.1452772-.318721 2.6894703-.593959 5.0599455-1.585972 7.2798812m-138.1625854 15.9211336c7.4073741-3.9224059 14.9946939-6.8243069 20.3907484-13.160698 1.434013-1.6836237 2.584231-3.5868911 2.907809-5.8684851.336531-2.372802-1.152761-3.7218416-2.832639-4.8340198-4.5039592-2.9819406-9.6418912-3.4984753-14.8205307-3.3435149-4.2587891.1272723-8.5603673.433703-12.4308163 2.6094307-.0316871.0179159-.0763265.0137277-.1063945.0330396-.5490885.3520347-1.2376463 1.2129258-1.6824218.7727079-.5275782-.5223515-.7063674-1.5433217-.7732109-2.3697772-.253034-3.1334109-.2139456-3.1403911 2.9709524-3.725099 8.4877415-1.5582129 16.8552109-1.5407624 24.9411973 1.9821436 2.7079725 1.1796534 5.0886665 3.1150297 6.7814965 5.5490247 1.908857 2.7448465 1.798531 6.0406634.359197 9.0139951-2.68253 5.5422772-7.3923398 8.8206435-12.4076867 11.7797821-3.9860953 2.3516288-8.0394966 4.9177822-12.6304218 5.5248268-3.5598231.470698-3.8137823 3.1424851-4.8152789 5.2986683-4.7301633 10.1841089-8.9262721 20.6043812-13.2063401 30.985797-.6631157 1.6082376-1.4210613 3.2516089-2.8735783 4.1843961-1.229551.788995-2.7373469.4029901-3.8988979-.4755842-2.3945715-1.8115941-3.003796-4.1476337-2.0904218-7.0686139 2.731102-8.7338564 6.6302313-16.9742128 10.5110884-25.2099158 4.0899456-8.6794109 8.469932-17.2199158 13.2611565-25.5375198.1096326-.1903267.1991429-.3918218.4674422-.9246436-1.8891973 1.2054802-3.5260545 2.1666535-5.0747891 3.254401-3.8822449 2.726698-7.7147619 5.5250594-11.5912245 8.2603664-.7931021.5595792-1.0243946 1.1982673-.77483 2.1131386.4549524 1.6689653.7801497 3.3560792.687864 5.1081089-.0851157 1.611495-.6524762 3.2518416-2.058966 4.1634554-1.718966 1.1140396-4.0534014 1.4379208-6.027483 1.7711089-2.7706531.4676733-5.5584218.8071436-8.3348571 1.2329357-.7824626.118896-1.5792653.2377921-2.3612653.1163366-.2507211-.0390891-.5180953-.1156386-.6691293-.3206237-.1542721-.2089406-.1461769-.4941981-.1117143-.752.2969796-2.2259852 2.0504082-3.7727971 3.7053061-5.0857723 2.4065987-1.9097822 5.022517-3.5173218 7.4510885-5.3898763.6779183-.5225841 1.6188163-1.0421435 1.2947755-2.0168118-1.297551-3.9056535-2.1417687-7.8915792-1.9615919-12.041307.2053878-4.7258267 3.2029388-8.2063861 7.8206939-8.8785792 1.2482857-.1817178 2.5772925.0791089 3.6763946.8657772.4098503.293401.6513197.7403664.4850204 1.2829604-.1676871.5470149-.6318912.6863862-1.1263946.7775941-1.5718639.2894455-3.1166666.5856386-4.5809796 1.3455495-1.7589796.9130099-2.1542585 2.4430693-2.0457823 4.1236683.209551 3.253703 2.2592653 5.9143218 3.0958504 8.9867723.2139455.7848069.8222449.1002822 1.1469796-.1323911 4.7456598-3.4000544 9.3886258-7.0530247 14.527483-9.845802 1.7726258-.9635 3.6342993-1.8413762 5.1416326-3.2143812 1.5986939-1.4565346 2.9367211-3.151094 4.1133061-4.971995.6249524-.9674554 1.6294558-1.5072574 2.6263266-.8762475 1.1159864.7066287.8615646 1.7820445.2116326 2.8439653-1.2933877 2.1126733-1.1479048 4.616005-1.7027755 6.9308713-.8146122 3.3977277-2.2516327 6.5709257-3.3958367 9.8488267-.5782313 1.656401-1.3382585 3.2488169-2.1891837 5.2840099m-31.9498231 7.2549852c-.1491837.2408168.079102.5484109.3522585.4769802 1.9463265-.5090891 3.8292789-1.2629505 5.5908027-2.2390149.5870204-.3252772 1.199483-.7196584 1.4351701-1.352995.0529659-.1426287.0654557-.3013119.0645774-.4534802-.019938-3.1271287-1.2113257-1.8115941-2.1152169-1.1573168-.7910204.5726089-1.5825034 1.1426584-2.3457687 1.7522623-1.0847619.8662426-2.2444626 1.7836733-2.9818231 2.9735644m-29.8915511-48.71573269c-3.2878231.48535644-6.401483 1.16220297-9.4351156 2.19852971-1.98587756.67847528-3.9627347 1.40674258-6.11306123 1.30436638-.18503401-.008609-.39897959.0104703-.54839456-.0742228-1.90538775-1.08262873-1.05931972-3.01893566-1.27789115-4.57505447-.13229932-.94209406.86572789-1.35299505 1.76221768-1.52307921 1.93776871-.36832178 3.81609524-1.36253466 5.73767347-1.90024258 6.86244899-1.92048514 13.99504759-2.73670297 21.09989119-2.97193564 3.566068-.11819802 7.136068-.08562376 10.7012109.04932673 3.3694693.12773763 6.8187346.20289109 10.031619 1.35020297.6635782.23709406 2.0635918.98420792.9230884 1.76389604-.2722313.18637129-.6110748.23825743-.9371972.28455941-5.8396735.82971287-11.898381 1.66919802-17.8060531 1.66919802-.2181102.01140099-.4362191.13634653-.6492395.12308416-3.672-.22755446-4.6482857 2.14059406-5.558653 5.17628217-1.4950748 4.9845594-4.0635783 9.786703-6.5749524 14.3191782-1.1627075 2.0982475 2.8987891.5726089 3.600068.4011287 2.1681361-.5300297 4.3536191-.987698 6.5518232-1.3723069 1.6474966-.2882822 14.9583809-2.6813267 15.2847346-.9681535.2761633 1.445599-3.3005442 2.2978812-4.1667346 2.6375842-2.2812381.8953267-4.5895375 1.7210842-6.9202722 2.4761089-2.6846122.8692673-5.3995238 1.645-8.1377959 2.3246386-2.5488435.6326386-5.2998367.9018416-7.7607891 1.8020545-.1283673.0474653-.3483265.0563069-.4336735-.0204753-1.7691564-1.5910198-1.9548843.3229505-2.4581768 1.1924505-2.5550885 4.4131139-4.2671157 9.212698-6.2499864 13.8917575-1.03549662 2.4433019-1.68404084 5.0124801-2.71514288 7.4474059-.10662585.2515198-.4110068.5602772-.09783673.7980693.13692517.1042376.48594557-.0162871.71492517-.1005149 6.62352384-2.4337623 13.38489794-4.4736089 20.20941494-6.2535594 6.9001497-1.799495 13.7482585-3.7555792 20.643551-5.5771782 1.1689524-.3087574.9661089.2712971.3147892.8857872-.8060545.7601435-2.1221089 1.2338663-3.1048708 1.7164306-5.7605714 2.8283763-11.6566803 5.3775446-17.6605714 7.6358713-6.0600953 2.2792674-12.1729252 4.1446089-18.1680272 6.6577129-4.34945581 1.8232277-5.97174153 1.1633663-8.93621772-2.4800644-1.73330612-2.1303564-1.26308843-4.3349356-.78685714-6.3945594 1.8299864-7.9132178 4.89692517-15.4108811 8.39429932-22.7079802 3.25174154-6.7847524 6.74425854-13.4531683 10.12575514-20.17509897.145483-.28944554.2419319-.60378713.4024489-1.01119802m94.2193196 36.98388119c3.148816-4.1471683 6.656136-7.9725495 10.07834-11.8712228 1.464545-1.6687326 3.066708-3.2236881 4.911266-4.3875198 1.071578-.6763812 2.688081-.7436237 3.866285-.1805544.923089.4411485.264136 1.5230792-.113564 2.2599554-.90181 1.7590099-2.410068 3.0233565-3.694898 4.4689555-.247483.2782772-.500749.5512029-.749388.8280841-.950381 1.0593614-1.845483 2.5798812-3.059537.2098713-.380939-.7436238-.723946-.106099-.990626.1761337-3.89913 4.1292524-6.997987 8.8243663-9.830857 13.7400544-1.86283 3.2322971-3.590123 6.567203-5.949307 9.494-.858095 1.0647129-1.923197.8971881-2.992693.1933515-3.008422-1.9802822-2.328191-4.349594-1.359307-7.1263168 2.583075-7.4052921 5.520953-14.6405 9.014858-21.6625792.698272-1.4032525 1.285292-1.5121436 2.45887-.9057971.390885.2019604.837742.3157377 1.272109.4067129 2.525946.529797 2.590014 1.986797 1.769157 3.9054208-1.339647 3.1313168-2.782912 6.2179604-4.178068 9.3253119-.165375.3687871-.302531.7503713-.45264 1.1261386" mask="url(#a)"/><path d="m123.62044 12.9683289c-1.284491-.7-2.664352-1.1568421-4.098843-1.3963157-3.499768-.5841777-7.02037-.3246711-10.53287-.1420724-.473611.0246381-.946759.0589474-1.419445.0983224-.457638.0379934-.926851.057796-1.379629.123421-.808102.1169737-1.625232.153125-2.435185.2525987-.415278.0508882-.828936.1183553-1.246528.1489803-.412963.0301644-.830787.0103618-1.244676.0119736.171065-.1045394.364583-.1745394.544907-.263421.248611-.1220395.506019-.2431579.717593-.4232237.192592-.1639474.308333-.3518421.420139-.574046.150231-.3852303-.064815-.7299343-.390509-.94108557-.271528-.17592106-.605093-.21322369-.920371-.16671053-.103935.01542763-.206713.03960526-.307407.07046053-.53588.16325658-1.068519.40134867-1.5377317.70460527-1.6479167 1.0649671-3.2643519 2.1713816-5.2576389 2.534046-.4701389.0856579-.9238426.2829935-1.3717593.4623685-1.4625.5857894-2.91875 1.1867763-4.4877315 1.8269079.1631945-.6276974.28125-1.1708882.4460648-1.6995724.41875-1.3419737.738426-2.7523355 2.3928241-3.2054934.3525463-.0964803.4233796-.47480266.1273148-.71404608-.4657407-.37694079-1.1354166-.62101974-1.5905092-.25467106-.7893519.63552634-1.7113426 1.01523024-2.5381945 1.56555924-3.1282407 2.0820394-5.9736111 4.5108552-8.7671296 7.005296-.6287037.5613816-1.2467593 1.1345066-1.975 1.7978948.2428241-1.0004935.4472222-1.8559211.5708333-2.7375987.2083334-1.4840461.0469908-2.9904277.3502315-4.4565132.2398148-1.1596052.6581019-2.2243421 1.9208333-2.66437498.1215278-.04259868.2523149-.06953947.2037038-.214375-.1909723-.57151316-.4555556-1.14486842-.9365741-1.48980263-.4085648-.29335526-.8543982.03292763-1.2324074.28575658-.869213.58210526-1.3256945 1.47-1.7662037 2.36848683-.175.3573684-.3349537.7145066-.6497686.9901316-3.493287 3.0576645-7.1481481 5.9120066-10.8965277 8.6532895-2.0479167 1.4976315-4.2666667 2.5711184-6.7791667 3.0205921-.5074074.0909539-.7912037-.1183553-.9581018-.5696711-.3331019-.8996381.5018518-2.5547697 1.4090277-2.80875.3831019-.1075329.7594908-.2429276 1.1310185-.3863816 1.5861112-.6129605 3.0844908-1.3963158 4.5152778-2.3111513 1.4016204-.8961842 2.6293982-1.9745066 3.5643519-3.3583881.5067129-.7504277.3548611-1.4960198-.1696759-2.1861185-.481713-.6334539-.9877315-1.1186184-1.8418982-1.0974342-.5979167.0147369-1.1673611.2491448-1.7053241.5093421-.6041666.292204-1.1895833.6226316-1.7520833.9882895-1.9400463 1.26-3.6081019 2.9337829-4.8506944 4.8792763-.6194445.970329-1.3645834 1.8326645-1.6706019 2.975-.3118056 1.1642106-.0747685 2.3394737.5238426 3.3724342.7178241 1.2385856 1.7972222 1.8508553 3.1664352 1.4676974 2.3094907-.6465789 4.4712963-1.6123026 6.3877315-3.0730921.2662037-.2028618.4006944-.2965789.6768518.0828947 1.2050926 1.6560527 2.9668982 2.4974342 4.9252315 2.2648685 2.2212963-.2636514 4.3145833-1.0177632 6.0009259-2.7336843 1.8574074-1.8897697 3.8912037-3.61375 5.9085648-5.3400328 1.4328704-1.2261514 2.9655093-2.3367106 4.6203704-3.6294079-.4518518 1.2484868-.8511574 2.2770723-1.193287 3.3240789-.2164352.6631579-.631713 1.0437829-1.2585648 1.351875-2.1444445 1.0539145-4.2365741 2.1980921-6.0412038 3.8014145-.5363425.4766447-.3608796.7545723.1157408 1.05875 1.325.8459868 2.8206018 1.0173026 4.3351852.9880592.6504629-.0124342 1.2930555-.2288816 1.8298611-.6866447 1.5412037-1.3143422 2.4715278-2.9763816 2.8787037-4.9333882.1115741-.5365132.3592592-.9044737.8564815-1.1319737 1.1962963-.5471053 2.3787037-1.124375 3.5824074-1.654671.7930555-.3493093 1.6131944-.6380593 2.4212963-.9539803.0067129.1782237-.0456019.2364803-.1006945.2915132-1.862037 1.8563815-3.4671296 3.8433223-3.8474537 6.5772368-.3407407 2.4483882 1.1631945 4.5780921 3.35 4.5007237 1.5680556-.0554934 2.9048611-.7739145 4.0791667-1.7741777 2.1476854-1.8285197 3.9280094-3.9651315 5.2090274-6.4752302.616899-1.2093421 1.321065-2.4410198.801621-3.9073355-.104398-.2945066.14537-.3290461.375926-.3836185 3.692592-.8731579 7.442129-.8195065 11.192824-.6537171 1.128009.0497369 2.256481.2219737 3.370833.4172369 1.905093.3341118 3.733796.9307237 5.516435 1.7348026-.299537-.5233882-.78125-.8376974-1.288194-1.1140132m-62.5384261 2.4354935c1.031713-.9210527 1.9912037-1.9438816 3.2497685-2.6075.5203704-.2742435 1.0634259-.3688816 1.6111111-.4678948.4726852-.0854276.3689815.2426974.2481482.4913816-.5319445 1.0946711-1.3923611 1.9261513-2.2534723 2.7576316-1.6513888 1.5945724-3.674537 2.5881579-5.8914351 3.6317105.8856481-1.5282566 1.8664351-2.761546 3.0358796-3.8053289m11.4493055 4.5216776c-1.6912037 1.3914803-3.6009259 2.2128289-5.8685185 1.4884211-.0900463-.0287829-.1726852-.0805922-.3467592-.1634869 2.8453703-2.166546 5.5377314-4.4132237 8.1604166-6.7819408-.6583333 1.8349671-.2444444 4.0579277-1.9451389 5.4570066m8.8997686 1.1301316c-.1456019.0062171-.3263889.0812829-.3810186-.1096053-.0467592-.1630263.1006945-.2730921.2270834-.3534539 1.1587963-.7379935 2.2703703-1.5563487 3.6914352-2.1366119-.86875 1.4476645-1.8307871 2.5273684-3.5375 2.5996711m21.271065-7.704375c-.074769.8197368-.511343 1.4898026-.891667 2.1895723-1.543981 2.8402961-3.6907406 5.1710198-6.1391203 7.2512172-.4168981.3541447-.9206018.5355921-1.4386574.6624671-.6118055.1494407-1.0571759.0412171-.9291666-.7598685.1930555-1.4195723.6960648-2.7251644 1.524537-3.9225329 1.1101852-1.6044736 2.1761574-3.2188486 3.6581019-4.5483881 1.1856481-1.0635855 2.6039354-1.0152303 3.9907404-1.2309869.314815-.049046.241435.1830593.225232.3585198m-57.0699076-2.0900987c-.5490741-1.0200658-1.9194445-1.54990132-3.0643519-1.29200658-1.0208333.23003288-1.7791666.88858548-2.5525463 1.51398028-1.1018518.8904276-2.0800926 1.9116447-3.0296296 2.9747697.1020833-.517171.231713-1.0101645.4018518-1.4891118.35625-1.0041777.2680556-2.1299342.8694445-3.06894739.1840278-.28713816.1962963-.5800329-.1349537-.82756579-.3680556-.27493421-.5490741.05111842-.7666667.20907894-.4446759.32305921-.6740741.85013154-1.1446759 1.16812504-.6032407.3599013-1.18125.7653947-1.7842593 1.1278289-2.3335648 1.4032237-4.6148148 2.8900329-6.9974537 4.2085197-.468287.2590461-.9388889.5144079-1.4113426.765625-.2782407.1480593-.9770833.6617764-1.3083333.4817106-.1393518-.0757566-.1652778-.2502961-.175463-.3999671-.0810185-1.1876974-.2752314-2.4504606-.0854166-3.647829.1587963-1.0034868 1.112037-1.7117763 2.0171296-2.1552631.9733796-.4773356 2.0976852-.6523356 3.1930556-.5517106.4090277.0375329.8831018.0179606.9902777-.44026312.1159723-.49529605-.1668981-.84552632-.7203703-.95098684-.2518519-.04789474-.5162037-.10615132-.7657408-.08243421-1.237037.118125-2.5152778.11927631-3.7111111.46375-.6907407.1987171-1.3567129.52546052-1.8608796 1.01407897-.5645833.546875-.8458333 1.281875-1.0643519 2.0007566-.2581018.8480592-.4289352 1.6643421-.3914352 2.5658223.0233797.5627632.050926 1.3401316.0847223 1.6157566.0587963.4805592.1134259.9689474.25625 1.4313158.1331018.429671-.0217593.6415131-.3842593.879375-1.5034722.9871381-2.6326389 1.5107566-4.118287 2.5213816-.1770834.1204276-.6655093.6263158-.4083334.9482237.8796297 1.1004276 3.5361112 1.4653947 5.5731482.9079276.6645833-.1819079 1.4592592-.3495395 1.805787-1.0110855.2-.3820066.282176-.843454.3310185-1.2675987.0451389-.3889145.0460649-.7826645.0027778-1.1718092-.0423611-.379704-.0997685-.7571053-.01875-1.1368092.0289352-.1342435.0682871-.3373356.1527778-.4510856.100463-.1349342.3388889-.2040131.4837963-.2804605 1.2131944-.6394408 2.3543981-1.4025329 3.5050926-2.1446711.5516204-.3557565 1.1037037-.7108223 1.6546296-1.0675.5300926-.3435526 1.0458334-.7075986 1.5680556-1.0633552.1266203-.0863487.2534722-.1724671.3805555-.258125.5506945-.3651974 1.0770834-.7653948 1.6756945-1.0486184.1175926-.0557237.2372685-.1068421.3590278-.1526645.0842592-.0317763.2703703-.134704.3543981-.0817434-.0219907.1883552-.1340278.3619737-.2256944.5236184-3.08125 5.4383553-5.5914352 11.157171-8.3060186 16.7751316-.5405092 1.1188487-1.0060185 2.2807565-1.2800926 3.5016118-.1430555.6373684.657176 2.1246382 1.2916667 2.17875.5847222.0495066 1.0608796-.4529276 1.3164352-.9574342.9738426-1.9224671 1.8611111-3.8884539 2.8395833-5.8083882 1.5289352-2.9991776 2.4381945-6.2673026 4.1761574-9.183125 1.6006945-2.6860197 3.3435186-5.2299671 5.7648149-7.2500657.6046296-.5042764 1.1710648-1.0886843 2.0236111-1.2210856.8689814-.1349342 1.0493055.0269408.7513889.8363158-.8819445 2.3958882-2.0453704 4.6492434-3.5740741 6.7020395-1.4645834 1.9666776-3.0467593 3.7986513-5.6143519 4.3823684-.0921296.020954-.1796296.0626316-.2701389.1151316-.1858796.1082237-.162037.3875329.0400463.4616776 1.2898148.4743421 2.5870371.4870066 3.8208334.2410855 1.4226852-.2834539 2.4942129-1.3258552 3.4446759-2.402796 1.9608796-2.221579 3.0768518-4.8838816 3.9310185-7.6663816.1946759-.6341447.4594908-1.3348355.1092593-1.9848684m-22.9159723 9.6722039c-.1324074.1614145-.3222222.2730921-.5189814.3603619-.3708334.1648684-.7534723.3025658-1.1539352.3912171-.5430556.1206579-1.1071759.1653289-1.6655093.1280263-.0222222-.0016118-.0453703-.0034539-.0645833-.014046-.0194445-.0105922-.0335648-.0324672-.0268519-.0520395.0046297-.0133553.0168982-.0225658.0287037-.0308553.7236112-.517171 1.4553241-1.0244408 2.1865741-1.532171.0891204-.0619408.1784722-.1238816.2678241-.1858224.2666667-.1849013.5340278-.3695724.819213-.528454.0435185-.0244078.0914351-.049046.1423611-.0444407.0375.0034539.0712963.0223355.1011574.0439802.1587963.1151316.2071759.2986513.2039352.4775658-.0057871.3216776-.1087963.7292434-.3199075.9866776m-14.0356481-8.9464144c2.3465278-.5581579 4.5199074-.8761513 6.6972222-1.1695066 1.4092593-.1899671 2.8263889-.1948026 4.2446759-.1485197.1391204.0046052.2895834.0177302.3430556.1545065.0726852.1869737-.1.2567435-.2217593.3377961-.7537037.5015131-1.6273148.6822697-2.4916666.8125987-1.9340278.2917434-3.5951389 1.2077302-5.4831019 1.6645723-.7960648.1927303-1.7583333.0838158-2.55439812.2519079-.36412037.0766777-.66805556-.0780592-.84097222-.4006579-.22962963-.4282894-.39421297-.3249013-.58101852.0246382-.99143519 1.8554605-1.98842593 3.7079276-2.9800926 5.5633882-.45902777.858421-.91018518 1.7212171-1.44375 2.7311513.96967593-.2355592 1.77986112-.4503948 2.59814815-.6281579 3.39837963-.7382237 6.84004631-1.0898356 10.31689811-1.1229934.1736112-.0016119.3030093.0221052.3488426.1964144.0516204.1950329-.1076389.2447698-.2391203.3219079-1.1252315.6578619-2.3932871.8851316-3.6370371 1.1635198-1.7041666.3813157-3.3597222.93625-5.06736109 1.313421-1.86550925.4119408-3.69305555.9947369-5.5349537 1.5112171-1.19768518.335954-1.93171296-.2694079-2.05208333-1.4902631-.12013889-1.2183224.42314815-2.1888816.89837963-3.2041119 1.65300926-3.531546 3.12662037-7.1508224 5.14976852-10.50230262 1.30648148-2.16424342 2.77546296-4.21450657 4.39930557-6.15493421.1157407-.13815789.2824074-.29036184.3479166-.45361842.0122686-.03108552-.7030092-.02095394-.7791666-.01588816-.41620372.02786185-.83240743.05963816-1.24814817.09555922-1.4099537.12180921-2.80671296.23855263-4.15486111.68572368-.31481481.11490132-.63796296.25674342-.98171296.21414474-.21805556-.02717106-.42175926-.12802632-.59722222-.25996711-.58912037-.44302631-.61296297-1.02904605-.46620371-1.68460526.06666667-.29796053.55532408-.37625.88125-.46144737 1.77731482-.46421053 3.59166667-.72947369 5.41851852-.89296053 3.29351855-.29450658 6.59097225-.47802631 9.87754625.06309211 1.482176.24407895 2.9048612.72855263 4.3319445 1.18539474.137963.04421052.2550926.1112171.2717593.25674342.018287.1593421-.1261575.21322368-.2368056.28667763-.8481482.56299342-1.8291667.46927631-2.7581019.47134868-1.4300925.00322369-2.8622685-.10638158-4.2902777-.21138158-1.2773148-.09348684-1.7532408.87730263-2.300926 1.69519737-1.1969907 1.78845395-2.2837963 3.64828948-3.5773148 5.37526316-.54282405.72486841-1.0046296 1.50983551-1.6071759 2.42513161m43.3215278 3.2271381c1.3574074-1.1824013 2.7905092-2.2010855 4.3046296-3.1064802.7685185-.4596053 1.5710648-.8089145 2.4974537-.7391448.3331019.0250987.7016204.0283224.8428241.4057237.1550926.4137829.0018518.8003947-.2865741 1.0925987-.2537037.2569737-.5662037.4642105-.8747685.6585526-.9481482.5966119-1.2388889.4727303-1.456713-.617796-2.1097222 1.3276973-4.049074 2.8285526-5.7048611 4.699671-1.9712963 2.2280263-3.6270833 4.6826316-5.3375 7.0999342-.35.4946053-.6474537.3757895-1.0030092.0105921-.8916667-.9166776-.762963-1.8948355-.225926-2.9176644 1.525926-2.9066119 2.8370371-5.9299671 4.7141204-8.6452303.194213-.280921.1694444-.8535855.6020833-.8091447.582176.0598684 1.0064815.5339802 1.4606482.8911184.6550926.5148684.3011574 1.2542434.4675926 1.9772697" mask="url(#b)" transform="translate(174 68)"/><g transform="translate(82 65)"><path d="m25.8063528 15.805421c1.4571548-2.1085807 1.9243959-5.5090645-.019632-7.86882261-1.2509035-1.51829033-2.6967411-2.77558065-4.4252792-3.63248387-4.0506548-2.00848387-8.4477563-2.37308871-12.85478932-2.6287333-2.22418781-.00254896-4.4238934.20536233-6.61967258.47127362-.3503731.04233064-.54207361.29935484-.52960153.6468871.03464467.96869354.08984518 1.84804838.59912183 2.69395967.07644924.12722581.19493401.24533065.34159645.25351613.08407106.00467742.16560152-.02759677.24366751-.05940322.41204061-.16698387.82015482-.34098387 1.24189594-.4801371 2.59442386-.85643548 5.3514467-.82229032 8.0484188-.79960484.3517589.00280645.4125025.10337097.2032487.40646774-2.90714974 4.20944355-5.77249491 8.44695158-8.28977664 12.91318548-1.45438325 2.5802984-2.76233502 5.2274839-3.55823858 8.1029274-.24181979.8739758-.26838071 1.7224597.36908122 2.4837097.4797132.5732177 1.1758401.6405726 1.68396193.0928468.44691624-.4817742.97767259-.7161129 1.63199492-.6639597.12864721.0102903.26283757.001871.38963706-.0229194 1.28531726-.2530483 2.56185787-.5657338 3.85618274-.7542338 1.66225127-.2420565 3.25059395-.7652258 4.74608885-1.4607581 2.3244264-1.0814193 4.55-2.3691129 6.6674822-3.8488145 2.3687716-1.6551048 4.6098198-3.4357984 6.2746117-5.8449032m-6.7194492 2.2898306c-2.8949087 2.1181694-6.0487285 3.7716371-9.21063203 5.4234678-2.04426649 1.0678548-4.00792639 2.2921693-6.10808629 3.2545483-.07460152.0341452-.15197462.0626775-.39102284.1604355.90307106-1.8604435 1.72160913-3.5945967 2.58102792-5.3079355 1.84240355-3.6727096 4.16428934-7.0579919 6.22379944-10.6009032.7908224-1.3604274 1.4837158-2.77862095 2.2396625-4.16033063.1845406-.37372581.4459924-.72242742.6928934-1.05545968.1053198-.14195967.2154898-.27994354.324736-.41862903.097467-.12371774.1974746-.24766935.3342056-.32929032.1704518-.10196774.3515279-.06735484.5381472-.04934678 3.0579696.29420968 5.772033 1.36908065 7.9306269 3.6790242 1.3941015 1.49186294 1.5266751 2.53679834.370467 4.21318544-1.468703 2.1293952-3.470703 3.6874436-5.5258248 5.1912339"/><path d="m90.5524602 20.261575c-.6739544-.1361129-1.3555305-.277371-2.0438046-.1952823-2.3179594.2766694-4.4610787 1.2914355-6.5683985 2.4158871-2.6791878 1.4296533-5.3920964 2.7397984-8.2267233 3.663121-.4914924.1599677-.9074594.1501452-1.3206549-.241121-.6427741-.6085322-.4644695-2.0386532-.1651396-2.8270322.3390559-.8924516 1.2645305-1.1723952 2.073599-1.4853145 1.3527589-.5234033 2.6646371-1.2547178 3.607665-2.3674758.5261371-.6206936.9384086-1.4001855.8910609-2.2170968-.0394949-.6800968-.4166599-1.3318952-.9841396-1.6979032-.9437208-.6085323-2.1918528-.2058065-3.0411091.4064677-.5044264.3636694-.9280152.8290726-1.3319721 1.3045323-.7730381.909758-1.4922614 1.8756451-2.034797 2.9427983-.3064898.6029194-.5547766 1.2376452-.7192233 1.8952904-.0588959.2359758-.1030102.4754596-.1388096.7161129-.4060356.3248467-.8233884.634258-1.2599112.9165403-.9354061.6047903-1.8149188 1.3225403-2.8542589 1.7467823-.2833934.1157661-.5822614.1875645-.8852868.2256854-.2196472.0275968-.5610127.0528549-.7247665-.1543548-.0540457-.0680565-.0810685-.1529516-.1004695-.2387823-.0667488-.2937419-.1147894-.5928629-.1147894-.8945564 0-1.3218387.4083452-2.5915242.8804366-3.8090565.441604-1.1380161.8915228-2.2811774 1.5650152-3.3029596 1.4481472-2.1974517 3.7942843-3.5188226 5.7209898-5.2337984 1.3788579-1.2273549 2.6750305-2.53422584 3.8409391-3.97206455.3808604-.46984677.7504036-.95395967 1.027099-1.4935.3676954-.71704838.6790355-1.79051612.2531371-2.55153225-.1240279-.22100807-.3129569-.40529839-.5677107-.55778226-.3995685-.23925-.8661167-.31946774-1.3255051-.29140323-.9462614.05753226-1.859033.50773387-2.638769 1.02762904-1.7089061 1.13965322-3.0505787 3.13784677-4.1903883 4.82756451-1.4047259 2.08191934-2.5909594 4.30486294-3.7187589 6.54979034-.2822386.5622258-.5605508 1.1263226-.838401 1.6904193-.3000229.609-.6866574.9427339-1.2102538 1.3744597-.5178224.4270484-1.0504264.8349194-1.5830305 1.2427903-.4175837.3199355-1.2573705.7406694-1.5266751 1.1918065.8079137-1.3529436 1.7174518-2.6453145 2.2666853-4.1339032.3360533-.9104597.4404492-1.8101613-.1937792-2.6067258-.5522361-.6934275-1.3647691-1.067621-2.262297-.938992-2.0756776.2977178-3.600967 1.4326936-5.1470431 2.8006049-.9783655.8657903-1.7936701 1.9184435-2.6614036 2.8553306-.1076294.116-.2020939.4445887-.3360533.3587581-.1337284-.0855968.1073985-.3872904.1829239-.5072662 2.0126243-3.2049677 4.0896878-6.3898225 6.3369721-9.44254028 1.1880812-1.61370968 2.5313705-3.12498387 3.4810964-4.88883871.2713833-.50399194.4413731-1.14666936.7711904-1.53957258.8116091-.96658871.7753477-1.25448387-.0515051-2.12799194-.0187081-.01987903-.0498883-.05168548-.0699822-.07203225-.4649315-.47405646-.9568858-.54351613-1.4661625-.09144355-1.0668249.9464758-2.0447284 1.97363709-2.9286294 3.08990322-2.0197843 2.55106452-3.640462 5.34348387-5.3907107 8.08211289-1.4615431 2.2867903-2.8646523 4.5663307-4.036335 7.0261855-.6878122 1.4441532-1.4989594 2.5077984-2.8092208 3.4704113-1.3102614.962379-2.7403934 1.9778468-4.0391066 2.9912097.2817766-.7516613.584571-1.6064597.9190076-2.3178952.7430127-1.5805 1.5322183-3.1123548 2.3532969-4.609129.1979366-.3610968.0401879-.5322903-.3039492-.5856129-.5545457-.0860645-.942566.1110887-1.4063426.4394435-1.4723985 1.0416613-2.9069188 2.0891694-4.3511396 3.2215726-1.3550686 1.0622419-2.7669543 2.2199032-4.1305686 3.2915.0332589-.0935484.1351143-.3351371.1762259-.4001532 1.1883122-1.8824274 2.5577005-3.570742 3.8065254-5.3865162 1.0019239-1.4570161 1.9264746-2.9339112 2.515896-4.6095967.2238045-.6363629.0750634-1.1796452-.5229036-1.526242-.6794975-.3936048-1.4280533-.5449193-2.2131015-.2822822-2.4096523.8063871-4.5405305 2.0428629-6.649467 3.4891209-1.3084137.8973629-2.2221092 2.0056775-2.9376371 3.4470242-.2889365.5823387-.5949644 1.2016291-.9986903 1.7301775-1.0388782 1.3601935-2.2766168 2.4654677-3.5746371 3.5730806-.1582107.1349436-.3048731.251879-.4905685.3938387-.1859264.1419597-.6309949.5194274-.7818147.1302661-.0856879-.2212419.0831472-.4682096.2094847-.6517983.7247665-1.053121 1.4382158-2.0968871 2.2837767-3.0564597 1.3368223-1.5175887 2.6309162-2.9982258 4.2550584-4.2190323.3473705-.261.5453071-.6515645.3452918-1.0683226-.2000152-.416758-.643467-.3119838-.9827538-.2039354-.3392868.1080483-.6453147.2233467-.9148502.4162903-2.11933 1.5175887-4.0460356 3.1448629-5.8196117 5.0663468-.5226726.5662016-.8550305 1.2481693-1.0587411 1.9988951-.149896.5514678-.1076295 1.1179032-.0297944 1.6787258.0406497.2939758.1392715.5814032.2545228.8515242.1485102.348.3078756.6585807.6480863.8456774.3399797.1870968.7146041.2095484 1.0968503.1779758.3824771-.0315725.7418578-.105008 1.0776802-.3063709.6529365-.3917339 1.2783883-.7514274 1.8340888-1.2986855 1.6370761-1.6130081 2.950802-3.2248468 3.893599-5.3790323.3577639-.817379.6259137-1.7039838 1.345599-2.3478306 1.3432893-1.2013952 2.8283908-2.262 4.3816269-3.213621.9631218-.5900564 2.0444974-.9572339 3.1207918-1.3173951-.175302.4689112-.2427436.6613871-.5857258 1.0809516-2.2759239 2.7842338-4.7363884 5.363129-6.6192107 8.5414355-.7702665 1.3007903-1.0102386 2.9383548-.0256371 4.2234758.6231422.8134032 1.1871574 1.0503145 2.0590483.3395806 2.1151725-1.7243306 4.1938528-3.684871 6.304868-5.515379.5637842-.4887904 1.2490558-1.091242 1.9054568-1.4890565-.6554771 1.0545242-1.377934 2.176871-1.9116929 3.2882258-.5337588 1.1113549-.5182842 1.9528226.0351066 3.0234839.1593655.3087097.4185077.4635323.7746549.3547823 1.143736-.349871 2.0142411-1.1120565 2.9494162-1.8639517.832165-.6691048 1.6456218-1.4057983 2.5556218-1.9684919-.1150203.7137742-.0120101 1.5047258.4004924 2.0798145.6139036.8564355 1.540764 1.1861936 2.4731675 1.3281532 2.02833.3089436 3.6813427-.2182016 5.3715406-1.2091129 2.1659848-1.2694516 3.9822894-2.7262338 6.0152386-4.1724919.9876041-.7023145 1.9673553-1.5870484 2.9295533-2.350871-.350604 1.2558871-.9233959 2.4954033-1.0908452 3.7950242-.1092462.8498871-.0436522 1.7224597.1917005 2.5454516.1859264.650863.4623909 1.451871 1.0418808 1.8473468.2778502.1894355.6150583.2731613.949033.2967823 1.1206395.0790484 1.9962258-.5680726 2.8863629-1.1585968.7298477-.4843468 1.4322107-1.013129 2.0839924-1.6010806.2136421-.1927097.4194315-.3945404.6210634-.6005807.1422741.831879.3593807 1.6104355.8531828 2.3274839.5399949.7846371 1.3432893 1.3651048 2.2985584 1.4645.4702436.0039758 1.0587411-.0159032 1.6349974-.2074436 2.3648452-.786508 4.6061244-1.9663871 6.8605685-3.1067419 2.7186828-1.3751613 5.3623021-3.0024355 8.3061752-3.6336532.1274924-.0273629.2778502-.0383549.2804166-.250242.0022839-.2205403-.1508456-.2834516-.2926577-.3122177m-14.9170711-3.4156855c.3979518-.4020242 1.4807132-1.5379355 2.0112386-.6323871.3351294.5718145-.156132 1.3805403-.5379163 1.8024436-.6420812.7095645-1.4566929 1.2923709-2.2495939 1.8125-.5397639.3538467-1.1744543.6227984-1.6844238 1.0166371.5118172-1.5016855 1.3486015-2.8766129 2.4606954-3.9991936m-3.4593858-9.1719516c.8148426-1.11954032 1.7153731-2.10998387 2.8281599-2.89579032.3471396-.2448629.7834315-.50095161 1.1139416-.18171774.3887132.37559677.1967817.82065322-.1140964 1.21940322-1.7627208 2.25966129-3.6605559 4.43770164-5.6657894 6.49880644-.6635609.6824355-1.3910989 1.3117823-2.0770634 1.9710645 1.1402716-2.31275 2.4008756-4.53195158 3.9148477-6.6117661m-18.4540609 16.5646129c-1.2996371.9001694-2.7875102 1.4043952-4.3388985 1.6927581-.1785355.0332096-.3224264-.1513145-.2503655-.3201694.6042031-1.4165564 1.3211168-2.7769839 2.2080203-4.0286613 1.3807056-1.9486129 2.8889036-3.6633548 4.6331472-5.2859516 1.059896-.986 2.2394315-1.7767177 3.5711726-2.354379.3570711-.1548226.7527132-.2125887 1.0786041.0322742.3261218.2450967.2427436.6480564.1309568.9953548-.5427665 1.6871452-1.2238807 3.2002903-2.3271979 4.5920565-1.4074975 1.7755484-2.8189213 3.3698467-4.7054391 4.6767177"/></g></g></svg>