<svg height="128" viewBox="0 0 300 128" width="300" xmlns="http://www.w3.org/2000/svg" xmlns:xlink="http://www.w3.org/1999/xlink"><mask id="a" fill="#fff"><path d="m.02316034.07791425h175.97683966v67.83933505h-175.97683966z" fill="#fff" fill-rule="evenodd"/></mask><g fill="#fff" fill-rule="evenodd" opacity=".6" transform="translate(-1 28)"><path d="m7.49761176 71.1177316c10.55358824-8.6695366 19.95209844-18.4073542 27.44462944-29.8980191-1.7106825 1.2208287-3.3712604 2.6460223-5.140955 3.7701406-3.9609359 2.5153628-7.7568606 5.1774662-12.4067905 6.1646713-4.6497072.9869817-9.17337346.8339872-12.88200486-2.3867134-3.59483828-3.1217569-5.24227764-7.0234504-4.20767325-11.7709687.93216831-4.2784842 3.54183874-8.21234 6.19871884-11.6257914 2.65710279-3.4134513 5.68742917-6.2439603 9.18807087-8.7150999 5.4709773-3.8617139 10.9591015-7.29146978 17.2293029-9.81643658 5.7555715-2.31792175 11.6590072-3.16553334 17.980872-3.79336896 2.0999396-.20838514 5.5030443.21999932 6.3191926 2.72017431.2863756.87776378-.3758959 1.60543666-1.2506109 1.72448197-3.3823948.46032345-6.763008.95504273-10.0808235 1.84821763-4.3697895 1.17660553-8.5026399 2.79655983-12.5029914 4.92619793-2.1988127 1.1703517-4.4764566 2.1843587-6.6318453 3.4302026-2.517478 1.4555691-4.8775161 3.1536958-7.201479 4.8931422-1.9538568 1.4624929-3.7021735 3.1094726-5.4048392 4.8553961-1.4819829 1.5196704-2.7811395 3.1501222-4.019948 4.8929189-1.52874715 2.1506329-2.98200333 4.1931647-4.01170861 6.7136645-1.02948258 2.5207231-1.56949886 5.1281059.11267969 7.5469817 1.01834823 1.464503 2.86865556 1.7722787 4.55907352 1.8122583 3.9852088.0938068 7.4580146-1.2840366 10.9424-3.0435845 5.148081-2.5997889 9.8870857-5.6181349 14.5548306-8.9531905 1.4866592-1.0622505 3.160821-1.9257199 4.6209805-3.0569855.7444431-.5769119 1.4276472-1.2279759 2.0015119-1.977537.283258-.3700902.5553817-.7491144.8580135-1.1037935.1540995-.1806898.3155477-.3551258.4890209-.5172776.1351711-.1261925.2892706-.3549025.4867941-.3741105.3752278-.0366294.8232743.532242 1.1434984.6859065.286821.1375833.114468.6034905.0013361.7580484-3.1508001 4.3079663-5.5168508 9.0740226-8.2031256 13.6721201-.7678253 1.3144122-1.5568057 2.6163167-2.3827523 3.8947696-2.3996765 3.71542-4.7935631 7.3377032-7.6081057 10.7636621-2.6141241 3.1820612-5.3652009 6.0107835-8.668319 8.5696994-2.8230047 2.1865922-5.6829755 3.8123537-9.37668685 4.133977-.59012088.0513704-1.23836311.1735426-1.86879036.1288727-.44671037-.0317156-.6279777-.5880794-.28147653-.8726267m73.75486694-28.2711409c1.5002431-4.1185659 3.3723738-7.8203615 5.6353204-11.51434.4464877-.7290129 1.3746476-1.2005038 1.3477025-2.1238309-.0445375-1.5308379-1.0533101-1.9882578-2.3754036-2.5566825-.4415886-.1900705-1.2069642-.0160811-1.6055742.4471458-.6379986.7410739-1.1967206 1.7544109-1.9941632 2.398551-4.832756 3.9030336-9.3907161 8.046168-14.6980184 11.3106452-.4124165.2537251-.8894124.4004657-1.3579461.5545769-.3028545.0993906-.6065997-.165502-.5429112-.4786381.0594575-.2934813.1654565-.5762419.3073082-.8418045 2.0578518-3.8494297 5.101094-6.4811576 8.3819435-9.2573926 3.0688513-2.596662 6.3229782-4.3919458 10.1776924-5.5828457 1.3042785-.4026992 2.6595523-.5860692 4.0130447-.7609519.5731966-.0739287 1.0183482-.3658466 1.1312506-.9932355.0563398-.3126894-.3293543-.8129925-.6462381-.9166266-2.0518391-.6704954-4.0141581-.5563638-6.0245775.1717558-5.5239768 2.000542-10.1211298 4.6814068-14.4528398 8.7083994-2.9853436 2.7753416-5.5092795 5.5949065-5.9118978 9.8247005-.1990823 2.0894352 1.6236118 4.1569821 3.6271279 3.6727602 2.0032933-.4842218 3.3975374-1.6166041 5.0124645-2.6799714 1.3436941-.8844642 2.5555574-1.8830601 3.8714157-2.776235-.0454282.0308222-.0859573.1873903-.1106755.2394307-.0452055.0944769-.0913018.188507-.1385114.2818672-.0915244.1811364-.1863891.3604861-.2830354.5387191-.1948512.3602628-.3966057.7165054-.591457 1.0765449-1.3247657 2.4472411-1.5432218 5.1352531-.0264997 7.5824943.3611985.5831657.8239423 1.1294787 1.4396722 1.4294372 1.5855324.7721194 3.5509689-.2204461 4.8053655-1.2112247 1.3401312-1.0589003 2.3809708-2.4354036 3.4703562-3.7373082 2.7987318-3.344213 5.2970587-6.7940704 8.1581429-10.0525171 2.2959042-2.6149767 4.8202855-4.9291015 7.311041-7.3863934 2.304144-2.2730285 4.752811-4.4471131 7.425502-6.303818-.274573.4093997-.560949.9101494-.862244 1.2793463-2.952609 3.6160294-5.7914244 6.8715726-8.4825983 10.7924742-.4119712.6003636-.8459884 1.1857628-1.2359136 1.8006441-.3756732.5923231-.7128215 1.2174785-.9152441 1.8922175-.2084351.6950638-.2549767 1.426087-.1233686 2.1405822.116688.633196.3681018 1.3465745.8577908 1.7897001.3384844.3062122.8018963.4469224 1.2575142.4636736.6956745.0259086 1.2372496-.2304967 1.7536611-.6854598.8332952-.7343733 1.6534515-1.4810309 2.4662595-2.2399727.654255-.6106377 1.29938-1.2313262 1.938715-1.858045.601477-.5896429 1.197834-1.1848695 1.792186-1.7821062 2.446886-2.4588553 5.127148-4.6501379 8.080202-6.4994722-2.155166 3.056092-4.345294 6.2084477-6.193152 9.4414327-.858459 1.5024725-1.651893 3.0654727-2.110628 4.7426046-.089743.3281005-.242952.7328099-.229813 1.0749814.012915.3356944.034739.6827796.090633 1.0160172.120474.7165053.394602 1.4073255.803455 2.0074658.438026.6428001 1.028815 1.178839 1.706674 1.5574165 1.022802.5708815 2.110184.5094604 3.202464.1592482 1.142608-.3662932 2.181888-.9709005 3.172624-1.6375989 2.795391-1.8814968 5.309529-3.9635614 8.144113-5.7378503.427337-.2673494.857568-.5304552 1.290472-.7886473.432681-.2584154.868034-.5121405 1.305837-.7618453.436467-.2490348.875161-.4938259 1.316081-.7348201.440475-.2407708.883177-.4777447 1.327884-.711145.445151-.233847.89253-.4643438 1.341244-.6917136.450496-.2282633.902551-.4533996 1.355942-.6758558.456286-.2237962.913685-.4449123 1.372421-.6637949.230481-.1101113.461407-.2195526.692779-.3287705.225582-.1060911.447602-.2065984.660713-.3383746.060126-.0372994.119583-.0759389.177927-.1159184.110676-.0754922.21957-.1567914.303077-.2615424.083731-.1045276.140739-.2360805.134213-.3700902-.001937-.0232284-.0055-.0475735-.02042-.0652181-.031621-.0368527-.1011.0022335-.138066.0127309-.063688.0180914-.127154.0359593-.190842.054274-.127155.0366293-.254086.0737053-.381018.1112281-.253641.0748221-.506836.1518777-.759363.2311668-.340934.1067611-.680755.2170957-1.019239.3312274-.802787.2702529-1.598671.560384-2.387652.8686064-.783413.3059889-1.559923.6296224-2.32953.9688904-.766934.3379279-1.526965.6914903-2.280761 1.0582302-.753128.3662933-1.500021.7457642-2.241123 1.1359559-.742217.3908617-1.478643.7924443-2.210615 1.2027374-.7342.4114099-1.4635.8315304-2.189238 1.2579047-.729077.4283845-1.454592.8632461-2.177212 1.302128-.727073.4415621-1.451474.8873678-2.174539 1.3351837-.62152.3848313-1.235246.7828402-1.862778 1.1585141-.173028.1034109-.355409.0976038-.271233-.1378066 1.965436-5.495516 4.477347-10.5680079 6.881032-15.9036056.494365-1.0973164 1.372643-2.2515869.193961-3.3937966-.972698-.9423118-2.074776-1.3870008-3.524247-.5556937-1.799312 1.0323217-3.786795 2.2169677-5.524422 3.5963746-2.135347 1.6952232-4.363332 3.6289837-6.489771 5.3822778.062575-.1491975.213334-.5005264.288157-.6137646 1.970781-2.9799299 3.997011-5.8057485 5.58388-8.9904899.790094-1.5857819 1.570389-3.1476654 2.317727-4.7740969.216452-.4705975.108894-.9838548-.446487-1.201844-1.737628-.6821096-3.237426.1389234-4.609624 1.1136209-3.88255 2.7579204-7.1228702 5.8968751-10.4892315 9.1649259-3.1136114 3.022813-5.9684604 6.0715345-8.8625023 9.3587934-1.66904 1.8957911-3.5186793 3.9512771-5.2436137 5.8537687-.0271679.0301521-.0750456-.0006701-.0592348-.0379695.2839261-.6783126.6484649-1.5529495.870484-2.1622471m-21.778801-15.5031398c.7268508-1.1649913 1.0136718-1.7662483.0852892-3.0018181-.7413254-.986535-1.390013-2.3326628-2.7459549-.7962412-.0670289.0761622-.2999596.0667815-.4622985.0871063-.7696067 0-1.6091372.1994512-2.3767397.2950448-.8907485.1112281-1.7801609.233847-2.6677918.3683034-5.3707681.8123224-10.834174 1.9114256-15.9181211 3.8601505-5.6609295 2.1705111-10.0024377 3.9624446-14.8507818 7.1489728-.6221878.4087297-.6738512.7868605-.2367164 1.3988383.1478643.2070451.2166746.5807089.2730144.8672664.0926379.4705975.3754505.8692765.8197113 1.0274079 1.055537.3754507 1.2566235-.716952 1.814232-1.1808491.1803766-.1498675.3629801-.2968316.5482558-.4406687 1.9625416-1.5259242 4.1644719-2.6319512 6.3908978-3.7073794 2.3493492-1.1348391 4.7113915-2.2118307 7.1562735-3.1271172 5.014914-1.8781464 10.2191122-3.2108733 15.5520235-3.7460188.1471962-.0147411 1.0548689-.0390862 1.4770837-.119492.1002092-.0192081.185721.0808525.1498684.1766695-.1483096.3964454-.4919158.7524646-.6885486 1.1051336-.2750186.4938259-.5493691.9878751-.8228289 1.4825944-.5466969.9894385-1.0902762 1.9804406-1.6316286 2.9725593-1.7981985 3.2952994-3.5725695 6.6033298-5.362974 9.9026495-.4614078.8505152-.7733924 1.6501066-.0703692 2.5137994.7030233.8634694 1.012113 1.9179027 2.2088336 2.2879929 1.196498.3703136 2.0268983.4029226 2.6292669-.8297436.2075444-.4245876.2821446-.9936822.561617-1.3997317 1.7338419-2.517373 3.4151297-5.059091 5.2384919-7.5181697 1.8233622-2.4590786 4.4023018-4.4946865 6.5291866-6.5436954.6117215-.5889728 1.3802148-1.6559137 1.9641004-1.6480964 1.7741483.0238984 2.5243813-.5914297 3.675451-1.5980662.6190702-.5413993 1.0862678-1.2034074.6295365-1.9201361-.3436062-.5391659-1.3225388-.7377237-1.9293612-.5572572-1.2345775.36741-2.1409141 1.1938034-3.0666244 2.0693337-3.2792907 3.1023254-6.6389713 6.1023567-9.6151848 9.5024071-.0320669.0366293-.091079-.00067-.0710372-.0451166 1.3833325-3.0782037 3.0517044-6.0619305 4.8138276-8.8866324"/><path d="m111.30645 44.1035515c2.784404-.5629508 5.532986-1.2001443 8.373016-1.5200787.062523-.0071344.153082-.1507148.153305-.2274098.01157-4.6340328 1.496556-8.1426099 4.677016-11.469705 2.654908-2.7775213 5.138043-5.4509246 8.4302-7.4461114 1.865021-1.1301377 3.888243-1.6879607 6.053421-1.9579541.399838-.049941.994366-.0755804 1.135656.4608393.141289.5359738-.34488.9230164-.837947 1.1357115-2.022109.8721836-3.72448 2.1608393-5.402822 3.5600787-1.81073 1.5096-3.289931 3.2352393-4.658326 5.1412459-1.452278 2.0232787-2.800647 4.0828983-3.824829 6.3512-.489507 1.0842098-.884005 2.2600524-1.139216 3.3754754-.113032.4947278.057628.5390951.456131.5310688 2.344071-.0465967 4.60181.0136 6.899378.5428853.166432.0383475.306164.1979803.447454.2920656-.16265.0535081-.33509.1511606-.507307.1614163-2.360314.1422427-4.7698.1567345-7.070038.5859148-.36357.067777-.307055.2802492-.297264.5003016.038715.8588066-.261887 1.8420197.807464 2.0964066 1.96626.4677508 3.591868-.6744262 5.150948-1.704459 3.621016-2.3920394 5.897669-5.517364 8.082205-9.1610492 1.132763-1.8892852 2.199666-3.6789115 2.423949-5.8937049.172217-1.7006689-.997259-2.5507803-2.597724-2.2020853-.497517.1085771-.930064-.0673311-1.20085-.4744393-.270786-.4073312-.71913-.8498885-.441001-1.3220984.278351-.4726557.699105-.5107803 1.253138-.5163541 2.320708-.0240787 4.537062-.8427541 6.827954-1.2527606 5.037249-.9011672 10.052693-1.5619935 15.175383-1.8616394 1.828309-.1070164 3.658397-.2369967 5.490933-.2055606 1.802498.0312131 3.593204.2387803 5.333401.7127737 1.554184.4233837 3.104586 1.1716066 4.323014 2.2390951.409406.3585049.783433.7772066.988136 1.2819672.440334 1.0866623.073426 2.4497836-.715125 3.282282-.082771.0873967-.227398.144918-.340652.1286426-.113032-.0164983-.167545-.1578491-.192243-.2430164-.864425-2.9694819-1.501674-4.0171278-4.804511-4.3682754-6.056981-.6438819-12.316217-.4786754-18.456637.1739017-2.184091.2320918-4.37864.5640655-6.533583 1.078859-.20448.0488262-.399393.0675541-.214048.3549377 1.419348 2.2000787 1.161022 4.4329311.090559 6.6840656-1.910412 4.0193573-4.126098 7.4568131-7.249153 10.5424524-1.754882 1.7336656-3.818599 2.8814164-5.981775 4.0331803-2.763489 1.4712525-5.328951 1.6032394-8.170538.195082-1.229998-.6093246-1.950241-1.840682-2.63377-2.9913311-.16443-.276682-.236744-.4100066-.604986-.3388853-3.097022.5966164-6.244774 1.3588853-9.268592 2.2399869-.868207.2528262-.912263 1.1392787-1.21331 1.7800394-1.053107 2.2433311-2.142705 4.4804196-3.502867 6.5565377-1.335909 2.0393311-2.969082 3.853259-4.770245 5.4903868-3.714023 3.3756984-8.0247993 5.8591476-12.9697095 6.8376787-2.9844349.5905968-6.053866.7323935-9.0868066.5493509-.246756-.0147148-.493067-.0323279-.739378-.0523935-1.163914-.0954229-2.3249355-.249259-3.4652642-.5045377-1.0034893-.2247344-2.3333907-.4572721-3.1433022-1.1256787-.9945891-.8209049-.9569861-1.6647738.1059115-2.5877901 5.3069229-4.6077246 11.504526-8.0304656 17.735282-11.2848787 4.3684045-2.2816787 8.9980278-4.343305 13.562903-5.7528 3.099246-.956682 3.329092-3.3041312 4.546852-5.6769968 1.217759-2.3726426 1.953355-4.4050623 2.983322-6.7529573.056738-.1293115.053846-.2559476.089446-.3966295-.133947.0488262-.294816.0760262-.40451.162977-2.370104 1.8761312-4.592911 3.8884853-7.039555 5.6765508-2.446645 1.7880656-4.727525 3.8108984-7.6932697 4.742164-2.9657446.9314885-3.4394538-.1375607-3.7979064-3.3984394-.2325158-2.1140197.7186852-4.6409442 2.1885411-6.5904262 3.8648799-5.1258623 8.046159-9.2399738 14.102028-11.7945443 3.381603-1.4266623 6.873345-1.7626492 10.41693-.7714098 1.102948.3085639 1.456728 1.3575475 1.106508 2.2819016-.214938.566741-.710675.5547017-1.201517.3721049-.5547-.2064524-1.244682-.1696655-1.837431-.1805901-1.387084-.0251935-2.775282.1154885-4.132773.398859-3.164885.6601574-6.15822 2.0816918-8.75016 4.0066492-2.055706 1.5269901-3.8737797 3.3585311-5.4637873 5.3639737-.9919191 1.2512-1.897062 2.5708459-2.7258862 3.9359738-.4147459.6833443-.8050165 1.3796197-1.1879444 2.0812459-.1036865.1901771-.4198635.5832394-.3126169.8177836.1541946.3366558.6601668.0744656.881335-.0196196 2.849598-1.2099541 5.2090218-3.0896525 7.6954938-4.8864132 3.750069-2.7092983 7.107641-5.6671868 10.599384-8.7617442.418083-.3707672.285026-1.1854295 1.201517-1.1218885 2.475125.1710032 3.143747 1.0282491 2.205896 3.6115803-1.299196 3.5779147-2.703413 7.5029639-4.034427 11.1843278-.384931 1.0643673-.934514 2.2263869-1.378407 3.2847345m-35.6670346 21.3676065c.6494867-.0744655 1.298751-.1511606 1.9475702-.2307541.0422756-.0053508.0847737-.0104787.1270493-.0156065.6915398-.0849443 1.3815221-.1834885 2.0659418-.3156984.2374109-.0459279.4739318-.0956459.7095626-.1502688 1.6429634-.3805771 3.2839242-.6779935 4.894402-1.2512 4.3635095-1.5535213 8.2753376-3.4816 11.8640911-6.5086033 2.5636814-2.1621771 4.5446266-4.8119476 6.2634636-7.6833312.158423-.2646426-.101461-.5819016-.389603-.4728787-1.289406.4880394-2.618417.9667148-3.8524194 1.5102689-5.5641366 2.4504525-10.9293553 5.1298754-16.2044602 8.1334689-.5796207.3299672-1.1525664.6719737-1.7190594 1.0240131-.564713.3511475-1.1229735.7123278-1.6758938 1.0819803-.5522529.3692066-1.0989431.7471082-1.6407383 1.1314754-.5426852.3850361-1.0804754.7767607-1.614483 1.1733902-.3778103.2806951-.7542857.5627278-1.1292035.8467672-.1875702.1420197-.3746953.2844852-.561598.4273967-.1637623.1255213-.3346447.2414557-.4968495.3698754-.1488547.117941-.2901442.2452459-.422756.381023-.0631909.0644328-.1332794.1284196-.1806726.2062295-.0389381.0637639-.0618559.1409049-.0465032.2142557.0164653.0789246.0754286.1442492.1452946.1841574.0700885.0399082.1504121.0575213.2300683.0686688.2868065.0408.5771732.0084722.8621997-.0305442.2736789-.0374558.5498053-.0626492.8245967-.0940853m-29.9128799-38.4848787c-1.6778963 1.990282-3.3266447 3.8075541-4.9333401 5.8183476-2.0988723 2.6270295-4.2909734 5.081718-5.1758685 8.3836197-.3996156 1.4908721.4610266 2.5460983 1.4024374 3.5304262.5896334.616459 1.2909634.6262688 2.0225538.3092328 2.4931479-1.0810886 4.2582655-2.9204328 6.268359-4.7227672 1.5955702-1.4311214 3.2303009-2.9623476 4.7991707-4.4362754-.7258053 1.939895-1.7771328 3.6595147-1.7704577 5.8270426.0075651 2.5235803 1.648971 4.7664655 3.8869078 5.7947147.9318432.4280656 1.7766877.2791345 2.5251883-.2766819 2.1180076-1.5729181 3.4897396-3.8242754 5.1772036-5.7944918 1.5608596-1.8221771 3.1622149-3.5810361 4.862584-5.2500459 2.6348825-2.5864525 5.2030139-5.2404591 7.7896132-7.8755148 1.2095272-1.2320262 2.4637775-2.4424262 3.7037876-3.6639738.0881112-.0865049.2271757.0240787.1650973.1308722-2.7036359 4.6469639-5.4566675 8.980236-7.9860834 13.8604065-.9779014 1.8870558-2.1362528 3.6615213-.3257446 5.6963935.4552414.5116721 1.0827003 1.0882229 1.517249-.0486033.1593123-.4166951.4174159-.9671607.7669684-1.3265574 1.8703616-1.9229508 3.7574109-3.8273967 5.7076511-5.6798951 2.673153-2.5396328 5.3663312-5.0070295 8.2813451-7.298741.5206574-.4093377 1.1990696-.8073049 1.75733-1.1979147-3.0140278 5.136118-6.1428673 10.082059-8.8780986 15.4215082-.8646473 1.6877377-1.7177244 3.3790426-.7086726 5.2973115.6746296 1.2819672 1.8788167 2.3804459 3.305062 2.7917901 1.6549785.4775607 1.6714437-.5943869 2.1852035-1.631777.3916056-.7905836.3969456-1.4132853.6670645-2.0808 1.199737-2.9652459 2.6791605-5.8072 4.0629077-8.6288656 1.5321567-3.1248787 3.5671707-6.2281311 4.7804804-9.3574689.7649659-1.9724459.7629633-3.213836-1.1225285-4.2028459-1.2951909-.6791082-2.503828-1.2830819-3.7489557-.0909639-.0262554.0254164-.0930063.0327738-.138842.0521705-2.8636157 1.2206557-5.10756 2.9766164-7.5288394 4.9700197-1.2344476 1.0164328-2.6582453 2.1909377-3.9182807 3.2220852.3680202-.6224787.915823-1.4919869 1.2486878-2.0823606 1.3984323-2.4805509 2.6909532-4.8652328 4.1752718-7.2325246.8868976-1.4150689 1.6625436-2.8354885 2.5167332-4.2632656.1902402-.317482.2859166-.6240393-.2082629-.7992787-.3900481-.1382295-.768081-.3070033-1.1543464-.4548197-.2721214-.1043409-.5506954-.1988721-.8386145-.2483672-.2859165-.0490492-.5308925-.022518-.811914.0309902-.6118837.1163803-1.1850518.3901639-1.7019267.7328393-.5985335.3968525-1.1287585.8864525-1.6563135 1.3736-.5644905.5212591-1.1332086 1.0414033-1.6827914 1.5751476-.987469.9586885-1.9649254 1.9276328-2.9368192 2.9021508-.9730063.9756328-1.9404501 1.9568393-2.9070038 2.9391607-.9674437.9827672-1.933775 1.9666491-2.9041113 2.9467409-.9703362.9800918-1.9446776 1.9563935-2.927474 2.924223-.982574.9678295-1.9736031 1.9271869-2.9773148 2.8727213-1.6732238 1.5762623-3.1270594 3.4078033-4.6634438 5.1205115-.3967231.3431213-.7004399.008918-.494847-.4258361.5571479-1.3693639 1.2344475-2.9206557 1.7495423-4.2828852.9738964-2.5761968 2.4304021-5.6587148 3.7927889-7.7459804 1.2940784-1.9831475 1.6249406-2.3128918-.0787661-3.5890623-1.5379418-1.1515409-3.5972086-.7620459-4.8521264.5716459-1.5653098 1.6632132-2.5198483 3.7214951-4.3474893 5.1243017-4.0264172 3.0909901-7.7295373 6.7034623-11.7759797 9.6956852-.316622.2343213-.6528243.5723148-1.052885.6501246-.3468824.0673312-.7064475-.0980983-.7060025-.4989639.000445-.2802492.1677674-.5292853.3295272-.7578099.529335-.747777 1.0700177-1.4875278 1.621603-2.2188065 1.618933-2.1465705 3.3190796-4.2552394 5.1471656-6.2276853.7950038-.8576918 1.5492895-1.7827147 2.2606321-2.7206688.7182402-.9468721 1.372622-1.9619672 1.7579975-3.0943344.4801618-1.409941-.4910645-1.8692197-1.5277067-2.4381902-.5894109-.3235016-1.1158534-.2780197-1.6305032-.0423607-.2549886.1168263-.2718988.4739935-.0413856.6340722.5128698.3560524.3965007.8744131-.1203742 1.4875278m10.3328243-26.31711471c-1.0003742-.48469508-2.1304678-.56295082-3.2242933-.5861377-.4583565-.00958689-.917158-.00579673-1.375292.01226229-.7965614.03121311-1.5915651.10523279-2.3798938.22428853-3.2060481.48424918-6.2398787 1.82619016-8.8518433 3.73576393-2.5659064 1.87568525-4.3708521 4.1067541-6.2572339 6.50503606-3.9759089 5.0551869-7.5279494 10.2423607-10.7613653 15.7797902-2.6764905 4.5836459-5.1456081 9.2896918-7.9713983 13.7850491-.71023 1.1299148-1.4427104 2.2462296-2.2050063 3.3418099-.6434791.924577-1.4311403 1.6745836-2.0436915 2.6062951-.4790493.7283803-.9850215 1.4382557-1.50300885 2.1392131-1.12408597 1.428-2.28199242 2.8265705-3.48128445 4.1903606-1.62939065 1.7490492-3.38293805 3.3823869-5.25530215 4.8676853-.61410872.4871475-1.02440455 1.1294688-.45501896 1.813482.49684955.5970622 1.12964854.9114229 1.89817446 1.0182163.78031858.1081312 1.57287484.0280918 2.35653097-.0528393 3.19803793-.3304131 6.36514788-.7671738 9.51312268-1.4286689.3404298-.0715672.775201-.0967606 1.092713-.2381114 2.6885057-.6062033 5.3491985-1.3363672 7.9709532-2.1871476 2.601507-.8445377 5.2909027-1.4719213 7.9811884-1.9789114 2.7172086-.5118951 5.4622301-.7772066 8.2295019-.6762099 1.691914.0617574 3.0620885.5060984 4.8051782 1.0757377 1.2951909.4236066 2.5336435 1.0833181 1.829866 2.8013771-.0858862.2093508.1399545.2929574.3562276.294518.564713.0037902 1.095828-.2436852 1.3303464-.7564721.320182-.7007345.2205006-1.4627804-.3284147-1.9662033-3.0211479-2.7708328-6.4005259-4.1711869-10.4491934-4.4035016-4.8405563-.2775738-9.325775.566295-13.9342605 1.8328786-.7923337.217823-1.584.4378755-2.3752212.6597115-1.0257396.2873836-2.0508116.5772197-3.0754387.8686164-2.5142857.7147803-5.0230088 1.4478426-7.53573702 2.1695344 2.52785842-1.5301114 4.81007332-3.4659934 6.73739572-5.7066491.742938-.6686295 1.4476055-1.3791738 2.11556-2.1227148.8203692-.9132066 1.5888951-1.8716721 2.3267156-2.8526557 2.2935626-3.0495213 4.0658002-6.3320263 5.9079039-9.6390558 2.2408293-4.0231475 4.3356966-8.0824131 6.7006827-12.0297573 1.9275449-3.2176263 3.9618913-6.3280132 6.1390847-9.4018361 2.3814513-3.3620984 4.8385537-6.55430821 8.1193628-9.1233705 1.9920708-1.55976394 4.0800405-2.23998689 6.6693098-2.42146886 2.0201061-.14179672-.6784122 3.29097705-.8250418 3.88558689-.3709127 1.50491803 1.368617 1.81727213 2.4105993 1.36557377.8234842-.35649836 1.518139-1.00350164 1.9337749-1.80010492 1.1314286-2.16908852-.0427206-4.58699016-2.1362528-5.60097049" mask="url(#a)" transform="translate(126)"/></g></svg>