<svg height="128" viewBox="0 0 300 128" width="300" xmlns="http://www.w3.org/2000/svg" xmlns:xlink="http://www.w3.org/1999/xlink"><mask id="a" fill="#fff"><path d="m39.6408644.35885168s-13.2136214 16.72997462-39.6408644 50.18992382l3.32019641 15.8419009 28.38983969 7.4075222 11.9690892 3.1978824 8.2488581 4.8468112 1.5134594 13.0477968-9.7623175 31.783952h256.3208747v-51.9630317h-42.02237l3.144449-18.2893065 30.605828-56.06345112c-168.058028 0-252.0870426 0-252.0870426 0z" fill="#fff" fill-rule="evenodd"/></mask><g fill="#fff" fill-rule="nonzero" mask="url(#a)" opacity=".5"><path d="m347.20002 11.3674085c-.430355.6733308-.86071 1.3466617-1.342028 1.9917013-2.712367 3.6325914-5.883402 6.9709543-9.241302 10.1056205-1.602505 1.4937759-3.250311 2.9422859-4.937754 4.3625047-.843722.7129385-1.693106 1.4145605-2.548153 2.1105243-.447343.3621275-.88336.7355715-1.34769 1.0807243-.334091.2546209-.804084.724255-1.109862.4526594-.305779-.2715957 4.592338-8.8664655 7.570846-12.9007922 2.389601-3.2365145 5.243533-6.6201433 8.703358-8.96265559.798422-.54319125 1.81202-1.23915504 2.842607-1.38061109.605894-.08487363 2.372613.10184836 2.531165.82610336.152889.65069785-.770108 1.76537152-1.121187 2.31422102m-22.536999 13.5118823c-.673845 1.1486232-1.381665 2.2802716-2.072498 3.4175783-1.59118 2.6197661-3.13706 5.3413806-4.314873 8.1987929-.424692 1.0298001-.537943 1.6691815-1.047574 2.3877782-.622882.888344-1.443953 1.6239155-2.293337 2.2972463-.039638.0282912-.079276.0622407-.113252.0905319-.639869.5149-1.268414 1.0411166-1.919608 1.5447001-.520956.4187099-1.092875.7808374-1.619493 1.1825726-.090601.0678989-.186865.1357978-.277466.2036968-.062288.0396076-.130239.0848736-.19819.1357978-2.208399 1.5277254-1.43829-1.120332-1.381665-1.3183705.368067-1.0976989.645532-2.2576386 1.223114-3.434553.826734-1.6748396 1.63648-3.3553376 2.423576-5.0528102.526619-1.1429649 1.913947-2.9762354 1.291065-4.3115806-.249153-.537533-1.013599-1.3692946-1.642143-1.567333-.68517-.2206715-.996611.1697472-1.432629.5601659-1.313714 1.1712562-2.678392 2.3085628-4.031744 3.4402113-1.32504 1.1090154-2.661405 2.1953979-4.031745 3.2591475-.736133.5714824-1.483591 1.1316484-2.242374 1.6861561-.571919.4130517-1.234439 1.0807243-1.96491 1.2334968-.351079-1.8445869 1.574193-3.4062618 2.763331-4.509619 1.460941-1.3466616 3.012483-2.5858167 4.57535-3.8023387 1.381666-1.0807243 2.910557-2.0143342 4.603664-2.6820068.44168-.1754055 1.489254-.3847605 1.596842-.8940023.135902-.6393813-.719145-.9788759-1.274076-.9901924-.872035-.0169747-1.738407.4583177-2.47454.769521-.900348.3791022-1.778045.7921539-2.633092 1.239155-1.766719.9166352-3.437175 1.9690683-5.045343 3.0894002-3.397537 2.3708035-6.528934 5.0301773-9.518767 7.802716-1.483592 1.3749528-2.93887 2.7838551-4.377161 4.1984157-.741796.7299132-1.483592 1.4654847-2.219725 2.2010562-.577581.5714825-1.189138 1.5107507-2.066835 1.7483968 3.120072-5.4828366 6.160868-10.9486986 9.716957-16.1938891.866372-1.2787627 1.721419-2.5631837 2.587791-3.8362882.588907-.8600528 1.257089-1.403244 2.378277-1.6465484 2.735017-.5941155 5.634249-.910977 8.425893-1.3296869 3.188022-.4752924 6.393033-.956243 9.649006-1.1373067 1.608168-.0905319 3.227661-.1131649 4.847154-.0565824 1.1948.0396077 2.899232-.0905319 4.037407.3621275.962635.3734439.413367 1.1373066.073613 1.7144473m25.136115-18.25348922c-1.517567-.90531874-4.190296-.85439456-5.730513-.40739343-1.783708.51490004-3.386213 1.39758581-4.835829 2.41606941-3.029471 2.13315734-5.736176 4.70199924-8.046501 7.47453794-1.206126 1.44851-2.327313 2.9592606-3.42585 4.4813278-.351079.492267-.770109 1.5220671-1.56853 1.4824594-.758784-.0339494-1.738407-.8487363-2.47454-1.1259902-4.026082-1.4881177-8.79396-1.1316484-12.825704-.6224066-4.184634.5262165-8.244691 1.4089023-12.333061 2.2463221.798421-1.1316484 1.59118-2.2632968 2.440564-3.3666541.668183-.8600528 2.219725-1.8162957 2.236712-2.9592606.016988-.9788759-.894684-2.4500189-2.083823-2.5745002-1.302389-.1357978-1.998884 1.3466616-2.610441 2.1048661-1.817682 2.2689551-3.493801 4.6284421-5.300158 6.9087137-1.562868 1.9747265-3.810905 1.9690682-6.313758 2.1331573-.317103.0226329-.481317.3394945-.294453.5884572.351079.4752923.843722.8091286 1.494917.9449264.402042.0848736 1.942259.0396077 2.32165.0396077-.073613 0-.181202.2263297-.215177.2715956-2.71803 4.0456432-5.498348 8.0460204-8.029514 12.2274614-1.268414 2.0992078-2.587791 4.1927574-3.652353 6.3994719-.838059 1.7427385-1.421303 3.7683892-.124576 5.6299509.821072 1.1769144 2.950195 1.4428518 3.941144.6054319 1.585517-1.3353451 2.967182-2.9705771 4.411136-4.4360618 2.865256-2.89702 5.707863-5.8110147 8.556132-8.713693-.096264.0961901.181202 1.0354583.215177 1.1938891.096264.4583176.209515.910977.402042 1.3410034.645532 1.4315353 2.180087 2.0482837 3.561752 1.1655979 2.236712-1.4315353 4.269572-3.2648057 6.370383-4.86043-.996611 2.0992078-2.304663 4.2097321-3.029471 6.4164466-.113252.3451528-.118914.724255-.056626 1.0807242.181202 1.0524331.90601 2.053942 1.857321 2.5405508 1.217451.6224066 2.836943.3564692 4.037407-.1697473 1.081549-.4752923 2.015872-1.1995473 2.98417-1.8672199 1.08155-.7412297 4.48475-3.4741607 4.524388-3.6269332-.951311 3.3327046-1.851658 8.1874764 1.251426 11.0335722 2.904894 2.6650321 5.736176-.3621275 7.519883-2.195398 2.610441-2.6820067 4.835828-5.6016597 7.038565-8.5722368 1.160825-1.5560166 2.378276-3.0780838 3.612715-4.5888345.855047-1.0411165 2.061173-2.2350056 3.278624-3.1403244-.509631.9166353-1.381666 2.1501321-1.891296 3.1629574-.458668.8996605-1.019262 1.7427386-1.404316 2.6763486-.362404.888344-.781433 1.8841946-.130239 2.8178046.368067.5262165 1.319377 1.3749528 1.947922.8826857.515293-.4017351.775771-1.5107506 1.030586-2.0596001.39638-.8713693.753121-1.7597133 1.092875-2.6480573.70782-1.8389287 1.359015-3.7004904 2.225387-5.4828367.237827-.4866088.48698-.9619012.758783-1.4315353.215178-.3677857.679508-.8261033.775771-1.2278385.158552-.6450396-.605894-1.0298001-1.325039-.9788759-.736134.0509242-1.024924.6620143-1.443954 1.1033572-.622882.6506979-1.432628 1.1825726-2.134786 1.7653716-6.625198 5.4715201-12.316073 11.7917766-18.380678 17.7499057.277466-1.9124859.503968-3.8023388 1.121188-5.6356092.628544-1.8841947 1.523229-3.6495663 2.327313-5.465862.713483-1.612599 1.34769-3.270464 2.361288-4.7359487 1.155163-1.6748397 2.87092-2.8008299 4.479087-4.0909091 3.097422-2.4839683 5.990991-5.1546586 8.776972-7.921539 2.774656-2.755564 5.617262-5.5224444 8.001201-8.5778952 1.115525-1.425877 2.049848-2.9705771 2.859594-4.57185963.503968-.95624293.934323-2.18408148-.152889-2.82912109m-173.801031 12.94039982c-.826734-2.314221-3.861868-2.9422859-6.313757-3.083742-3.397538-.1980384-6.8064-.2319879-10.2096-.2093549-1.653469.0113165-3.284287.0565824-4.92643.164089-.843722.0565824-1.687443.1018484-2.536828.022633-.560593-.0509242-1.489254-.4356847-2.004547-.2206715-1.37034.560166-.922998 3.2987552.033976 4.017352.475655.3564692 1.268414.4526594 1.817682.6393813.753121.2546209 1.551542.396077 2.349964.4583177 1.574192.1301395 3.171035.1301395 4.750889.1980384 2.729356.1188231 5.458711.2489627 8.188066.3508111-.498306.2998868-1.002274.5827989-1.438291.9053187-1.092875.7921539-2.180087 1.5956243-3.272961 2.3877782-2.061173 1.5050924-4.116683 3.0158431-6.172193 4.532252-2.587791 1.9124858-5.203895 3.785364-7.706748 5.8166729-2.536828 2.0596002-4.932092 4.2946058-7.180129 6.6767258-.571919.6054319-1.138175 1.2108638-1.676119 1.8389287-.368066.4300264-.600231.8034704-.554931 1.3975858.022651.2885704.090601.5714825.17554.8430781.203852.6846473.600231 1.4881177 1.325039 1.612599.702158.1244813 1.376003-.3677857 1.96491-.6733308.68517-.3564693 1.398652-.6733308 2.112135-.9788759 1.483592-.6337231 3.006821-1.1655979 4.558363-1.5956243 3.244648-.9053187 6.568573-1.5164089 9.875509-2.1557903.736133-.141456 1.477929-.2715956 2.214062-.4356846 1.744069-.350811 5.379434-.9732177 6.766762-1.1599396.305779-.0396077 1.047574-.1527726 1.064562-.605432.011325-.4583176-.764446-.6054319-.985286-.6733308-1.007936-.3225198-2.015872-.5884572-3.057784-.7412297-2.089485-.2998868-4.207284-.2150132-6.291107.0622407-3.907168.5205582-7.75771 1.5164089-11.60259 2.4273859-.090601.0226329-.141564-.1075066-.067951-.1697473 5.866415-4.5209355 11.636566-9.1267446 17.67852-13.3760845 2.599116-1.8332705 5.203895-3.7457563 7.972888-5.2508487.147227-.0792154.741796-.373444 1.557205-.3451528.617219.0169747.88336.2772538 1.336365-.186722.634207-.6676726.532281-1.7144474.254815-2.4896266m-72.650677-1.1995473c-.339754.3168616-.526618 1.1486232-.770108 1.5729913-.164215.2829121-.747459.93361-.526619 1.2957375.260478.4243681 1.353353.1357978 1.755395.1357978.50963.0056582.956973.1244813 1.449616-.0339495.24349-.0792154.532281-.2206714.809746-.4073934.741796-.5092418.63987-1.6465485-.169877-2.0482837-.945648-.4696341-2.129123-.910977-2.548153-.5149m242.046234 7.8253489c.520956-.141456 1.619493-.2093549 1.823345-.7695209.305779-.8261034-.939985-1.8162958-1.738406-1.9690683-1.443954-.2829121-2.299001.8770275-3.046459 1.7314221-.26614.3055451-1.047574.8487363-.815409 1.3353452.249153.5318747 1.121187.3791022 1.562867.328178.741796-.2150132 1.472267-.4470011 2.214062-.6563561m-161.054602-7.0501697c.526618-.1584308 1.625155-.2263297 1.87997-.8430781.379392-.9053188-.775771-1.9803848-1.551542-2.1557903-1.409978-.3112033-2.355626.9619012-3.171035 1.8955111-.294453.3338363-1.115525.9279518-.92866 1.4598265.203852.582799 1.081549.4130517 1.523229.3564693.741796-.2263297 1.489254-.4866088 2.248038-.7129385m-59.830636 20.748774c6.466647-4.6227838 12.010295-9.9245568 16.302518-16.1599396.118913-.1754055-.158552-.4017352-.356742-.2942286-7.282055 4.0173519-12.995581 9.2116182-16.047702 16.3862693-.016988.0509242.056626.0961901.101926.0678989m13.30136-8.5665786c-2.42924 2.5575254-5.028356 4.9849113-7.723736 7.3330818-1.262751 1.097699-2.485865 2.2067145-3.958131 3.1007167-.407704.2489627-.809746.8034704-1.353352.8600528-.707821.0735572-1.342028-.6620143-1.698769-1.1486231-1.874308-2.568842.271803-6.003395 1.744069-7.944172 1.857321-2.4443606 4.128008-4.7472652 6.466647-6.8464731 2.27635-2.0426254 5.011367-3.9381365 8.074814-5.1490003.679507-.2715957 1.41564-.4017352 2.219724-.2942286.922998.1244813 1.138175.0905318 1.551542-.5884572.583244-.9562429 1.359015-1.635232 2.882245-1.1882309 2.191411.6393814.90601 2.0935496.385054 3.1969069-.719146 1.5277253-1.432628 3.0554507-2.117799 4.5944926-1.364677 3.0780837-2.610441 6.2127499-3.550426 9.4492644-.486981 1.6861562-.237828 1.4768012-.911673 3.0950585-.169877.4073934-.656857 1.6748397-1.302389 1.6918144-.702158.022633-1.523229-1.3013957-1.755395-1.776688-.787096-1.6069408-.855046-1.3919276-.50963-2.9139948.419029-1.8502451 1.075887-3.6325914 1.557205-5.4715201m-80.2951367-1.4258771c.0736133-.2206714-.1698769-.4017352-.362404-.2772538-.6002316.3960769-1.4552786 1.3919275-1.7384067 1.6578649-.7814336.7355715-1.5628672 1.4654848-2.3386383 2.2010562-1.5232293 1.4315353-3.0464586 2.8574123-4.5640254 4.2889476-.090601.0848736-.0113251.2376462.1132513.2036967 1.0532366-.2489626 2.1121358-.4979253 3.1653724-.7468879.5492686-.1301396 1.1041997-.2602792 1.6534683-.3904188.4190296-.1018483 1.2457637-.141456 1.6138303-.3847604.68517-.4526594.9626356-2.2632969 1.2344386-3.0384761.4077045-1.1712561.815409-2.3425122 1.2231135-3.5137684m-7.8936121 13.8004527c1.772382.022633 2.8312812-.5092418 3.6580154-2.0596002.271803-.5149.5379434-1.0015088.7870961-1.5277253.1585518-.3281781.6681824-1.142965.6172194-1.5107507-.0792759-.5431912-1.6421432.0622407-2.1177984.2036967-2.0158723.5714825-4.1280081 1.2334968-5.979666 2.2463222-1.0645618.5827989-.2604779 1.0807242.4699927 1.635232.7531208.5601659 1.6081677.9845341 2.5651408 1.0128253m14.0658052-7.0954357c.1868646.0792154.181202.350811-.0113251.4243682-.5889065.2263297-1.2004632.3394945-1.8346702.4130517-.5945691.0678989-1.2797392.0452659-1.81202.3677857-.6908327.4187099-.8267342 1.3296869-.9909485 2.0482837-.6908326 3.0215013-2.7293551 7.361373-6.2797818 7.6952093-1.1268499.1018484-2.265025-.1980385-3.2672986-.701622-1.138175-.5714825-2.1404486-1.3862693-3.0974216-2.2180309-.6002317-.5205583-1.217451-1.9068277-2.1857492-1.7540551-.6795075.1075066-1.268414 1.0128253-1.6874436 1.4824594-.6115567.6846473-1.2004632 1.3919276-1.7384067 2.1388156-.4699927.6506978-1.087212 1.4202188-1.3533524 2.1897397-.1642143.4809506.0113251 1.1203319-.5266183 1.3806111-.3680666.1810637-1.3193771.0056582-1.6874437-.1527726-.7304705-.3112033-1.087212-1.0807242-.8040838-1.8219539.2831281-.7412298 1.0249238-1.4089023 1.5232293-2.008676.6115567-.7355715 1.2344386-1.4654847 1.862983-2.1897397 2.4292394-2.7838552 4.983055-5.4545455 7.6444594-8.0120709 3.5560893-3.4119201 7.3330185-6.6144851 11.1948861-9.6755942.634207-.5035835 1.2740765-1.0071671 1.9139461-1.4994341.3227661-.2489627.6455321-.4979253.9682982-.7412298.1528892-.118823 1.7950323-1.612599 2.4122516-1.5390418.9286603.1075066 1.2401012.9845341.6681824 1.589966-.5889065.6280649-1.2231135 1.1259902-1.7044313 1.8615617-.8663721 1.3070539-1.2797391 2.9422859-1.721419 4.4304036-.362404 1.2165221-.634207 2.4669936-.8040839 3.7231234-.0736133.5262165-.3850542 1.5616748-.1585517 1.8955111.1585517.2376462 1.2401011.2772539 1.7270815.2998868.6228819.0396077 1.1721505.1301396 1.7497318.373444m201.0549446 14.6605055c.809746-.3621275 1.319377-1.4598265 1.829007-2.0426254.758784-.8770276 1.409978-1.8276123 2.015872-2.8008299 2.378277-3.8136552 4.547038-7.7517918 6.976277-11.542814 4.320536-6.7333082 9.422504-12.9969823 13.709064-19.7529235 1.472267-2.314221 4.609326-5.85062238 2.610442-8.82685776-.736134-1.09204074-2.197075-1.90116937-3.55609-2.06525839-.97396-.11316485-1.177813.1754055-1.121187.97321765.056626.82610336-.334091 1.49943417-.696495 2.20671445-1.704432 3.29875515-3.816567 6.42776315-5.866415 9.54545455-2.151774 3.270464-4.365836 6.5069785-6.653511 9.6925688-2.559478 3.5646926-5.079318 7.1576764-7.338681 10.8921162-1.047574 1.7257639-2.038522 3.4854772-2.950195 5.27914-.872035 1.7201056-1.925271 3.4854771-2.225387 5.4149377.084938 1.1995474 1.551542 3.7910223 3.267299 3.0271596m-143.880051-28.8966428c.192527-.7808374.249153-1.6069408-.345416-2.2350056-.668183-.7072803-1.998885-1.097699-2.933208-1.2617881-.713483-.1244813-1.251426.0396077-1.579855.6903056-.373729.7412297-.628544 1.2165221-1.228776 1.8332705-2.859594 2.9253112-5.753163 5.8675971-8.476856 8.9230479-2.565141 2.874387-4.756552 6.0599773-7.4972325 8.7702753.9569731-2.1614485 1.8969585-4.3342135 2.8652565-6.4900037.645532-1.4371936 2.468877-3.7400981.503968-4.8321389-1.766719-.9845341-2.3499633 1.3127122-2.9445323 2.5405508-.9003475 1.8389287-1.8290077 3.6665409-2.7293551 5.5054696-.7134829 1.4654847-1.9252713 3.5081102-1.5458796 5.1999246.1585517.7072802.6228819 1.403244 1.2174509 1.8162957.7361332.5205583 1.3023894.2263297 1.9479215-.2829121 3.0238086-2.4160694 5.3058206-5.7035081 7.7746986-8.6571105 2.508515-3.0045266 5.198232-5.8053565 7.876624-8.6514523-1.981897 4.5831762-4.212946 9.064504-6.002316 13.7268955-.622882 1.6239155-1.540217 3.4967937-1.56853 5.2678235-.016988.9279517.305778 1.7314221.900348 2.4387023.339753.4073935.838059 1.2787628 1.325039 1.5050925.554931.2602791 1.477929-.2998869 1.942259-.6224067.696495-.4809506.900348-1.1825726 1.183476-1.940777.741795-1.9747266 1.59118-3.8476047 2.627429-5.6865334 2.129123-3.7966805 4.422461-7.5424368 6.959289-11.0901547 1.115525-1.5616748 2.349963-3.061109 3.782592-4.3511882.537943-.4866088 1.483591-1.7031309 2.095148-.7525462.44168.678989-.594569 1.3240286-.101926 1.7936627s2.463214-1.2448132 3.4032-2.2123726c.436017-.4470012 1.862983-2.3877782.588906-3.3892871-1.274076-1.0015089-4.558363.910977-6.223156 2.172765-2.044185 1.5447001-3.782592 3.3383629-5.617262 5.1207092.600232-1.5786496 1.398653-3.1912486 1.800695-4.8491136m275.511978 23.6005281c-.560593 1.471143-1.704431 3.2082233-.832396 4.8547718.849384 1.6012825 2.98417 2.4443606 4.790528 2.4726518 2.191411.0282912 3.527776-1.7257638 4.909441-2.9592606 2.96152-2.6367409 5.962679-5.1659751 9.365879-7.3443984 3.352237-2.1444738 6.930976-4.0060354 10.588992-5.7317993 3.675003-1.7314221 7.446269-3.3723123 11.506327-4.3568465 1.998884-.4866088 4.292222-1.052433 6.443996-.6676725.571918.1018483 2.010209.9901923 2.310325.3168615.249153-.560166-.481318-.7695209-.92866-.9392682-4.235597-1.5843078-8.408905-.5149-12.270773.8204451-4.082708 1.4145606-7.961563 3.247831-11.744155 5.1603169-3.62404 1.8332705-7.146154 3.8362882-10.413452 6.1335345-3.272961 2.2972463-6.132555 4.9679366-9.077088 7.5820445.990949-3.7344398 2.01021-7.4009807 3.476814-10.9769898.651194-1.589966 1.336364-3.1629574 1.993222-4.7472652.571918-1.3692946 1.534554-2.9592606 1.61383-4.4700113.050963-.9958506-.730471-1.3013957-1.676119-1.5560166-.549268-.1527725-1.245763-.4073934-1.744069-.1131648-.503968.2998868-.656857 1.0976989-.911672 1.5560166-.855047 1.5220671-2.338639 2.7272727-3.567415 3.9777442-.860709.8713693-1.727081 1.7370804-2.621766 2.5801584-2.678392 2.5405508-5.19257 5.2621653-8.340955 7.3557149-.073613.0509241-.175539-.0396077-.124576-.1075066 1.596842-2.3877782 3.052121-4.7812147 4.99438-6.9596379 1.936596-2.172765 3.635365-4.3285553 5.985329-6.1278763 1.081549-.8261033 2.412251-1.7597133 3.561751-2.5066013.809747-.5262165 1.857321-.9562429 2.836944-1.2278385.549269-.1527726 3.13706.0792154 1.851658-1.1033572-.849384-.7808375-2.327313-.373444-3.255973-.1697473-5.249196 1.1599396-9.847197 4.8264806-13.36931 8.2666918-1.840333 1.7936628-3.652353 3.7514146-5.000043 5.8902301-1.121187 1.7880045-1.879971 3.6778574-.458668 5.7091664 1.74407 2.500943 4.614989.4752923 6.177856-.7129385 2.378276-1.8106375 4.314873-4.1305168 6.376045-6.2297247-.979623 2.0369672-1.642143 4.2153904-2.446227 6.331573m-350.9542982-42.64617124c-2.2820127 1.38626933-4.3092101 3.15164089-6.251469 4.96793662-4.0430696 3.77404752-7.8143362 8.24405882-9.5074424 13.59675592-.6568573 2.0765749-.4643302 4.6227839 1.2117883 6.2184082.6511947.6167484 2.1347861.2602791 2.123461-.7808374-.0056626-.5035836-.4133671-1.0071672-.5152932-1.5050925-.1132513-.5601659-.1019261-1.1373066-.0396379-1.7031309.2661404-2.4443606 1.5288918-4.6284421 2.8709191-6.6314598 2.7350177-4.0739344 6.0589419-7.76876649 9.9887603-10.7223689 1.0192612-.7638627 2.0724979-1.47680121 3.1597099-2.14447379.6511947-.39607695 2.0215348-1.61259902 2.8142935-1.45416824 1.1495002.23764618-.453005 1.86156168-.7474582 2.33119578-.6908326 1.10335722-1.3476899 2.22368917-1.9818969 3.36099585-1.2401012 2.2010562-2.4405644 4.5152773-3.6466902 6.682384-2.6727295 4.8151641-5.2661832 9.6755941-7.9898757 14.462467-2.5481532 4.4813278-5.1699196 9.0079215-8.3296295 13.0931724-1.228776 1.589966-2.6217664 3.061109-4.1789711 4.3398717-3.3748872 2.7725387-7.5595209 4.7359487-11.8970438 5.3753301-2.0498476.2998868-4.19595881.2036967-6.14954288-.5205583-1.93659637-.7185967-3.64669025-1.8728781-5.53798612-2.7046397-.181202-.0792154-.44167987-.1301396-.53228087.0452659-.0453005.0905319-.01698769.2036967.02831281.2942286.09626356.186722.26047787.3394945.41902962.4809506 2.65574181 2.3481705 5.57762406 4.3907959 8.969499 5.5111279 4.33186034 1.4315352 9.06576254 1.3975858 13.36364754-.1471143 4.4167987-1.5843079 7.8879495-5.2112411 10.6399549-8.877782 3.8788553-5.1546586 6.613873-11.2542437 9.5470804-16.9803848 3.0691088-6.0033949 6.0249665-12.057714 8.8845605-18.1629573.945648-2.02565075 6.6591735-11.19200307 1.087212-11.22069004-2.6161038-.02789545-5.617262 1.46588048-7.8030111 2.7955674m310.7954052 25.35458314c1.840333-1.3749528 4.144996-3.3609958 6.829051-2.2463221.577581.2376462 1.319377.5149 1.257088-.3621275-.02265-.350811-.458667-.8091286-.73047-1.0637495-.934323-.8657111-2.191412-.7299133-3.346575-.605432-5.617262.6110902-10.339839 4.8038477-13.493886 8.6401358-1.636481 1.986043-2.989833 4.1984157-3.708978 6.6484346-.492643 1.6691814-1.387328 4.7133157 1.132512 5.6242927 2.933207 1.0637495 5.152932-1.6691814 6.755437-3.3327046 2.134786-2.218031 4.150658-4.554885 6.228819-6.8238401-.41903 2.0199925-1.353353 4.1022256-2.23105 5.9694455-.804084 1.7144474-2.061173 3.5873255-1.39299 5.4771784 1.268414 3.5760091 5.41341.4922671 6.868688-1.6012825 2.525503-3.6382497 6.126893-6.8804225 9.207327-10.1056205.322766-.3394946 5.373772-5.4036213 4.694264-3.5364014-.096263.2546209-5.19257 9.6303282-6.138218 11.6729536-.809746 1.7483969-2.746342 3.4006036-2.412251 5.4488872.203852 1.2787628.979623 2.3651453 1.845995 3.3949453.537944.6393814 1.56853.6506979 2.027197.0396077 5.351122-7.1350433 8.742997-14.6661637 15.560722-20.9298378.028313-.0226329.067951.0056583.050963.0396077-1.019261 1.6182573-1.642143 3.4119201-2.338638 5.1716334-.809746 2.0369672-1.625155 4.0626179-2.361289 6.1278763-.53228 1.4937759-1.460941 3.2648057-1.132512 4.9283289.113251.5827989.577581 1.7936628 1.291064 2.0199924.804084.2546209.973961-.865711 1.177813-1.3636363 1.477929-3.6043003 2.768993-7.2821577 4.048732-10.9600151.63987-1.8389287 1.274077-3.6778574 1.925272-5.5167861.413367-1.1599397.866372-2.5801585-.753121-3.3157299-1.970572-.8940023-3.595727.865711-4.722577 1.9464353-1.387328 1.3353451-4.144996 3.6099585-5.520999 4.9566201.764446-1.6578649 1.296727-3.4006035 1.902621-5.1150509.447343-1.2674463 3.284286-4.0795926 1.998885-5.3526971-.475655-.4696341-1.12685-.6224067-1.727082-.8826858-.577581-.2489626-1.1948-.7412297-1.845995-.7185967-.736133.0282912-1.007936.5262165-1.279739 1.0467748-.424692.8147868-.990949 1.3466616-1.676119 1.9747265-5.48136 5.024519-10.198275 10.5752546-15.170005 16.0015088.877697-3.0894002 2.519841-5.9920784 4.167646-8.7533006.702158-1.1769144 1.37034-2.4839683 1.189138-3.9098453-.164214-1.2957375-1.449616-1.8559035-2.49719-.9392682-.549268.4809505-.934322.9732176-1.545879 1.4145605-.741796.537533-1.472266 1.097699-2.180087 1.6691814-1.325039 1.0580913-2.593453 2.1671068-3.833555 3.3100717-2.616103 2.4160694-5.158594 4.8377971-8.018188 7.0275368 2.049848-5.1093927 5.317146-9.6925689 9.898159-13.1158054m-285.2289355 9.273859c.5322809-1.0467748 1.0702243-2.0935497 1.6025052-3.1403245 1.1325125-2.2067144 2.2706875-4.4077706 3.4315129-6.5975103.9682981-1.821954 2.355626-3.5250849 2.134786-5.7035081-.1585517-1.6069408-.9116725-3.7514146-2.7746556-2.3764617-1.6478057 1.216522-2.6557418 3.5081101-3.6750031 5.2055827-5.0396806 8.3968314-9.2866025 17.1501321-13.3240095 26.0618635-2.0781605 4.5831762-2.4518896 5.4941531-4.4734244 10.0999623-.8550469 1.9577518-2.1517738 4.1531497-1.6931062 6.4107884.181202.8770275.6625198 1.8332704 1.7553944 1.754055.9456479-.0735571 1.2910642-1.1203319 1.7893697-1.7427386 2.9728453-3.6948321 2.6047788-4.0965673 4.7622151-8.3062995 2.2140619-4.322897 4.8301658-8.3289324 6.8120627-12.7536778.724808-1.6182573 1.9875594-2.5745002 3.8675302-2.6310826 2.2876752-.0735572 4.6263135-1.0128254 6.7214617-1.7710298 4.1506583-1.493776 8.1654151-3.7683893 11.7498171-6.2127499 3.3805499-2.3029046 6.7157992-5.3357224 8.4315556-9.0588458 1.5798549-3.4288947.2265025-7.219917-2.9785079-9.4888721-3.5900646-2.5405507-8.3296294-3.9381365-12.6048641-4.6227838-4.9490796-.7864957-10.1812874-.5941155-14.9151896.6280648-.9569731.2489627-1.8799708.5771407-2.7689931.9845342-.6115567.2829121-1.8573205.678989-2.2706875 1.239155-.9343229 1.2504715 1.6874436 3.3892871 2.9162196 2.5179178.3397538-.2433044.543606-.5884572.9229977-.7978122.453005-.2546209 1.0022736-.4187099 1.5005791-.5827989.8210716-.2715956 1.6591308-.5035836 2.5141777-.6676726 2.5877911-.5092418 5.294496-.7638627 7.972888-.7808374 4.6036634-.0339495 9.5640681.7695209 13.6920762 3.0780837 1.3986529.7808375 2.6387541 1.9294606 2.808631 3.5307432.1925271 1.7936627-.8323967 3.5590343-1.7667195 4.9849113-2.4122517 3.7061486-6.291107 6.2863071-10.1359869 8.4986798-3.9354809 2.2689551-9.1054005 4.8038476-13.5844874 5.9977367.8890223-1.4315353 1.0815494-2.7838552 1.5798549-3.7570728m108.0133795-13.574123c-.645532-.6676726-1.608168-1.0467748-2.372614-.3791022-.894684.7864956-1.574192 2.0992078-2.225387 3.0894002-1.87997 2.8347793-3.510788 5.8336477-4.898116 8.9343644-.232165.5205583-.560594 1.5616748-.237828 2.0426254.486981.724255 1.511904 1.6069408 1.902621 1.5164089s.707821-.5658242 1.030587-1.0411166c.345416-.5205582.690832-1.0354583 1.019261-1.5729913 1.302389-2.1331573 2.383939-4.3851377 3.590064-6.5748774.668183-1.2052056 1.387328-2.3708035 2.151774-3.5137684.549269-.8261033.815409-1.6918144.039638-2.500943m56.455748 5.7148246c-.062288.1188231.073614.2433044.186865.1697472 2.457552-1.567333 5.67955-3.1176914 7.961563-4.8095058 1.17215-.8713693 5.662562-3.9890607 3.38055-5.6186345-1.030587-.7355715-2.610442.396077-3.459826.9505847-1.189138.7808374-2.2537 1.7087891-3.250311 2.7159562-1.919609 1.9294606-3.510789 4.204074-4.818841 6.5918522m-21.364848-2.732931c1.098537-.8713693 2.197074-1.7483968 3.295611-2.6197661.990949-.7864957 2.044185-1.9124859 3.171035-2.4839683.934323-.4752924 2.185749.0905318 2.066836 1.1712561-.141564 1.2221803-.673845 2.4783101-1.1042 3.621275-.962636 2.5631837-1.619493 5.211241-2.621766 7.75745-.956974 2.4387024-1.868646 4.8547718-2.661405 7.3500566 3.816567-2.9875519 6.715799-7.1237269 9.983098-10.6657865 1.710094-1.8559034 3.482476-3.6552245 5.390759-5.3017729 1.778045-1.5333837 3.725966-2.8234629 5.543649-4.3002641 1.76672-1.4371935 3.691991-3.3496793 5.968341-3.9211618 1.602505-.4017352 3.42585.1244813 4.688602 1.1429649 1.37034 1.097699 2.140448 2.9536024 1.087212 4.5435685-.611557.9222935-1.602506 1.6182572-2.440565 2.314221-.88336.7355715-2.383939 1.8615617-3.323924 2.5179178-1.874308 1.3127122-3.924156 2.6254244-6.081592 3.3383629-.90601.2998868-2.038523.8317616-2.440565 1.239155-.741795.7525462-1.257088 2.0199925-1.579854 3.0045266-.351079 1.0863825-.611557 2.3990947-.44168 3.5420596.147226 1.0184836 1.336364 1.0071671 2.163099.9845341 2.582128-.0622406 5.226545-.8826857 7.684097-1.612599 4.937754-1.4541682 9.654669-3.4854772 14.286645-5.7204828.317104-.1527725 2.412252-1.4089023 1.987559-.3281781-.152889.3791023-.809746.5771407-1.126849.7864957-.634207.4130517-1.240102.888344-1.868646 1.3127122-5.101969 3.4402112-10.736219 5.8393059-16.50637 7.8875896-1.381665.492267-2.831281.8826858-4.292222.8204451-2.91622-.1244813-5.107632-2.3764617-5.719188-5.1546586-.566257-2.5858167.198189-5.1490004.838059-7.638627-2.208399 2.5235761-4.439449 5.0358356-6.596885 7.5990193-1.172151 1.3975858-2.304663 2.8234628-3.454163 4.2436816-1.121188 1.3862693-2.361289 2.687665-3.437176 4.1022256-.696495.9166352-1.024924 1.9747265-2.366951 1.3806111-1.404316-.6280649-2.434902-2.1274991-2.797306-3.5873256-.713483-2.89702 1.398653-6.0486608 2.536828-8.5835533.843722-1.8898529 1.738407-3.7570728 2.678392-5.5960015.486981-.9505847.985286-1.8955112 1.494917-2.8347794.385054-.7129385.945648-1.4089023 1.013598-2.2236891-.758783.701622-1.574192 1.3410033-2.327313 2.0426254-.792759.7355715-1.421303 1.5956243-2.134786 2.3990947-1.268414 1.4315352-2.701042 2.7159562-3.941143 4.1757827-1.308052 1.5447001-2.248038 3.3327046-3.391875 4.9905696-1.217451 1.7653715-2.287676-1.3296869-2.242375-2.4047529.073613-1.9181441 1.37034-3.8419465 2.248037-5.488495 1.041912-1.9520935 2.146111-3.8645794 3.210673-5.8053564 1.030587-1.8785364 2.049848-3.7740476 2.899232-5.7431158.469993-1.0863825 1.664794-3.6382497-.294453-3.7174651-2.05551-.0848737-4.246922.5149-6.206169 1.0694077-1.075886.3055451-1.376002.3394946-1.325039 1.493776.0453 1.0241418.011325 2.0482836-.107589 3.0667672-.48698 4.2153904-2.361288 8.0969446-4.609326 11.6390042-1.896958 2.9988683-4.337523 5.6186345-7.134829 7.8027159-2.814293 2.195398-6.217493 4.6171256-9.869846 4.8151641-1.61383.0905319-4.077045.2829121-5.203895-1.097699-1.143838-1.3862693-1.778045-3.5250848-1.959247-5.2847982-.390716-3.8136552 1.494917-7.5141456 3.816568-10.422482 2.633091-3.2987552 6.16653-6.0203697 9.74527-8.1082611 1.177813-.6846473 2.412251-1.2561297 3.675003-1.7710298 1.749732-.7129385 3.980781-1.7597133 5.736176-.4809506 1.83467 1.3353452-2.112136 1.7597134-2.876582 1.9917013-1.76672.5318748-3.499464 1.8389287-4.915104 2.9875519-1.562868 1.2674462-3.476814 2.9762353-4.779203 4.486986-1.517567 1.7597133-2.582129 3.2308563-3.850543 5.1886081-1.262751 1.9464353-2.151773 4.1814409-2.163099 6.5296114 0 .4017352.101927.8374199.407705 1.0920408.186864.1584308.436017.2376462.679507.2659374.900348.1018483 1.857321-.3677858 2.678392-.6789891.855047-.328178 1.676119-.7921539 2.446227-1.284421 1.625156-1.0354583 3.09176-2.3029045 4.603664-3.4911354 3.188022-2.5179178 5.537986-5.9128631 7.729398-9.2964919 1.12685-1.7427386 2.282012-3.5816673 3.080434-5.5054696.560593-1.3466617-.067951-2.8857035 1.024923-4.0795926 1.160826-1.261788 3.476814-1.612599 5.067994-1.9238024 1.59118-.3112033 3.374887-.6167484 4.960405-.1357978 3.335249 1.0015089 2.887906 4.4134289 2.395264 7.1407017-.351079 1.9238023-1.313715 3.6835156-2.089486 5.4545454" transform="translate(7.227144 9.688995)"/><path d="m436.20984 10.5865711c-.532281.8543946-1.070225 1.7031309-1.664794 2.5179178-3.369224 4.5944926-7.321693 8.8268578-11.511989 12.8102603-1.993222 1.8955111-4.060058 3.740098-6.155206 5.539419-1.053236.9053188-2.112136 1.7936628-3.18236 2.6820068-.554931.4639759-1.1042.93361-1.681781 1.3749529-.41903.3168615-1.002274.9222935-1.39299.5827989-.390717-.3394945 5.673887-11.2033195 9.377203-16.3070539 2.972845-4.0965674 6.51761-8.3798567 10.84947-11.36740855.996611-.69030554 2.259362-1.57864956 3.556089-1.76537155.764446-.11316485 2.984171.10184835 3.193685 1.0071671.192528.82610336-.956973 2.23500566-1.387327 2.9253112m-28.193899 17.2350057c-.838059 1.44851-1.710094 2.8800452-2.570803 4.3172387-1.976235 3.31573-3.884518 6.750283-5.339797 10.3545832-.526618 1.3013957-.66252 2.1048661-1.291064 3.0158431-.775771 1.1259902-1.800695 2.0596001-2.859594 2.9139947-.045301.0396077-.096264.0792154-.141564.1188231-.798422.6506979-1.585518 1.3240287-2.395264 1.96341-.651195.537533-1.364678.9901924-2.027198 1.5050925-.113251.0905318-.232165.1754055-.351078.2602791-.079276.0509242-.158552.1075066-.249153.1697473-2.763331 1.9464353-1.823345-1.3919276-1.749732-1.6408903.453005-1.3806111.781434-2.8404375 1.500579-4.3285552 1.019261-2.1161826 2.021535-4.2380234 2.989833-6.376839.651195-1.4371935 2.372614-3.762731 1.579855-5.4319124-.322766-.6733309-1.291064-1.7087892-2.083823-1.9520936-.866372-.2659374-1.251426.2263297-1.795032.7185968-1.636481 1.4881176-3.340912 2.9309694-5.034018 4.3681629-1.653469 1.4032441-3.323925 2.7951716-5.034018 4.1418333-.922998.724255-1.851658 1.4428517-2.797306 2.1388155-.713483.5262165-1.540217 1.3749529-2.457552 1.5729913-.464331-2.3198792 1.936596-4.3059222 3.42585-5.6978498 1.817682-1.7087892 3.759941-3.2817805 5.707863-4.8321388 1.727081-1.3749529 3.641028-2.5631837 5.758826-3.4232365.554931-.2263297 1.868646-.4979254 1.998884-1.142965.164215-.8034704-.917335-1.2278385-1.61383-1.2334968-1.092874-.0113164-2.180086.5941155-3.103084.9901924-1.12685.4866088-2.225387 1.0184836-3.295611 1.5899661-2.2084 1.1769143-4.297885 2.5122595-6.308095 3.9381365-4.246922 3.0158431-8.15409 6.3938137-11.880056 9.9132403-1.851658 1.7483968-3.663678 3.5307431-5.453048 5.3244059-.922998.9279517-1.845995 1.8615617-2.768993 2.7895134-.719145.7299132-1.483591 1.9124858-2.576466 2.2180309 3.861868-6.9256884 7.627472-13.8344021 12.044271-20.4658619 1.075886-1.6182573 2.134786-3.2421728 3.216335-4.8547718.730471-1.0863825 1.56853-1.776688 2.967183-2.0935496 3.42585-.7751792 7.078203-1.2108638 10.577667-1.7597133 4.003431-.6280649 8.029513-1.2674463 12.117883-1.5390419 2.021535-.1301396 4.054395-.1754055 6.09858-.1244813 1.500579.0396077 3.64669-.1471143 5.084981.4073934 1.211789.4752924.526619 1.4428518.107589 2.1671068m31.410234-23.22142591c-1.913946-1.12033195-5.277508-1.02414184-7.208442-.44700114-2.236712.66767258-4.241259 1.79366277-6.053279 3.09505847-3.782592 2.71595625-7.157479 5.97510378-10.034061 9.48321388-1.500579 1.8332705-2.893569 3.7457563-4.252584 5.6695587-.44168.6224066-.956974 1.9238023-1.953585 1.8841946-.956973-.0396077-2.197074-1.052433-3.125734-1.3862693-5.073656-1.8276122-11.07031-1.3296869-16.132641-.6393814-5.254858.7129385-10.356826 1.8615617-15.487108 2.9649189.996611-1.4315353 1.976234-2.8630705 3.035133-4.2549981.826735-1.0920407 2.768994-2.3085628 2.780319-3.7457563.011325-1.2278386-1.149501-3.0667673-2.644417-3.2138816-1.642143-.1584308-2.49719 1.7087892-3.255973 2.6763486-2.265025 2.874387-4.343186 5.8619389-6.585561 8.7419841-1.942259 2.5009431-4.767877 2.5179178-7.916262 2.755564-.396379.0282912-.600232.4300264-.368067.7468879.44168.5941155 1.070225 1.0128254 1.891296 1.1712562.509631.1018483 2.440565.0226329 2.91622.0226329-.096264 0-.226503.2829121-.26614.3451528-3.369225 5.1150509-6.829051 10.1735194-9.960448 15.4583176-1.56853 2.6480574-3.20501 5.2961147-4.518725 8.0856281-1.036249 2.1953979-1.744069 4.7585816-.096263 7.0784609 1.041911 1.471143 3.720303 1.7823463 4.960404.7185968 1.981897-1.6974727 3.697654-3.7683893 5.498349-5.6242927 3.567414-3.6721992 7.112178-7.3670313 10.662605-11.050547-.118914.1244813.237827 1.2957375.283128 1.5050924.124576.5714825.271803 1.1429649.520956 1.680498.832396 1.7880045 2.76333 2.5518672 4.484749 1.4315352 2.797306-1.821954 5.328471-4.1531497 7.9559-6.1788004-1.228776 2.6480573-2.853931 5.3187476-3.737291 8.1026028-.141564.4413429-.141564.910977-.062288 1.3579781.237828 1.3240287 1.160825 2.5745002 2.366951 3.1742738 1.540217.769521 3.573077.41871 5.073656-.2546209 1.359015-.6110901 2.525503-1.5333836 3.737291-2.3821199 1.353353-.9449265 5.600275-4.4190871 5.651238-4.6114674-1.160826 4.1984157-2.236712 10.3149755 1.693106 13.8626933 3.680666 3.3213882 7.214105-.5205582 9.428167-2.8404375 3.25031-3.4062618 6.013641-7.0954357 8.759984-10.8525085 1.438291-1.9747265 2.955857-3.8985289 4.490412-5.8053565 1.064562-1.3240287 2.565141-2.8347793 4.082707-3.9834025-.634207 1.1542814-1.710094 2.7216145-2.344301 3.994719-.566256 1.1373067-1.262751 2.2010562-1.738406 3.3836288-.447343 1.120332-.962636 2.3764617-.135902 3.5477179.46433.6563561 1.670456 1.7087891 2.457552 1.0863825.645533-.5092418.962636-1.9068277 1.274077-2.6027914.492643-1.097699.922998-2.218031 1.34769-3.3440212.872034-2.3198793 1.670456-4.673708 2.735018-6.9143719.28879-.6110902.600231-1.2165221.934322-1.8049793.266141-.4639758.843722-1.0467748.962636-1.5503583.192527-.8091286-.770109-1.2900792-1.676119-1.2165221-.922997.0735572-1.279739.8487364-1.800694 1.3975858-.781434.8261034-1.783708 1.4994342-2.667067 2.2406639-8.273004 6.9539797-15.35687 14.9603923-22.916391 22.5198039.334091-2.4104112.594569-4.7868729 1.34769-7.1010939.770109-2.3764617 1.879971-4.6058092 2.865257-6.8973972.877697-2.031309 1.659131-4.1248586 2.916219-5.980762 1.432629-2.1161826 3.57874-3.5533761 5.583287-5.1942663 3.86753-3.1516409 7.474583-6.5465862 10.945733-10.0546964 3.459826-3.4967936 6.998928-7.010562 9.96611-10.8694832 1.387328-1.8106375 2.542491-3.7570728 3.550427-5.78272349.622882-1.25047152 1.1495-2.80082988-.22084-3.59864202m-218.388048 18.17427381c-1.064562-2.9026782-4.886791-3.6552244-7.972888-3.8079969-4.275235-.2150132-8.556132-.2206715-12.837029-.1471143-2.07816.0339494-4.128008.1018483-6.194843.2659373-1.0589.0848737-2.123461.1414561-3.188023.0565825-.70782-.0565825-1.874308-.5318748-2.525503-.2602792-1.721419.724255-1.12685 4.158808.090601 5.047152.605894.4413429 1.596843.5545078 2.293338.7864957.945648.3112033 1.953584.4809506 2.96152.5488495 1.976234.1414561 3.992107.1301396 5.974003.1980385 3.431513.1188231 6.863026.2546209 10.300202.350811-.622882.3847605-1.257089.746888-1.800695 1.1486232-1.364678 1.0071671-2.723693 2.0256507-4.08837 3.038476-2.570804 1.9124859-5.14727 3.8362882-7.71241 5.7600905-3.233324 2.4330442-6.506285 4.8208224-9.626357 7.3953226-3.171035 2.6141078-6.155205 5.4545454-8.952511 8.4703885-.70782.7638627-1.415641 1.5333836-2.083823 2.3311958-.46433.5488495-.741796 1.0184836-.679508 1.7653715.028313.3621275.118914.7129385.226503 1.0580913.26614.8600528.770108 1.8615617 1.681781 2.0143342.88336.1471143 1.727082-.4809506 2.463215-.8713693.860709-.4526594 1.755394-.8600528 2.644416-1.2504715 1.857321-.8091286 3.765604-1.4994342 5.713526-2.0596001 4.071382-1.1712562 8.239028-1.9803848 12.389687-2.8234629.922997-.186722 1.85732-.350811 2.774655-.5714825 2.191412-.4583176 6.749775-1.2844209 8.499507-1.5333836.385054-.0565824 1.319377-.2036967 1.330702-.7751792.011325-.5771407-.968298-.7525462-1.245764-.8374198-1.274076-.3904187-2.54249-.7185968-3.856205-.8996605-2.627429-.3564693-5.288833-.2206715-7.9106.1471143-4.909441.6959638-9.739607 1.9917012-14.558448 3.1799321-.113251.0282912-.181202-.1357978-.084938-.209355 7.327355-5.748774 14.530135-11.5993964 22.078331-17.0143342 3.250311-2.3311958 6.500622-4.7698981 9.971772-6.6937005.181202-.1018483.928661-.4752923 1.953584-.4526593.775771.0169747 1.115525.3394945 1.676119-.2489627.792759-.8204451.651195-2.1331573.294453-3.106375m-91.359783-.7129385c-.41903.4073935-.645532 1.44851-.951311 1.986043-.203852.3564693-.92866 1.1825726-.645532 1.6295738.334091.5262165 1.704431.1527725 2.214062.1527725.63987 0 1.200463.1471143 1.817683-.0565824.305778-.1018484.668182-.2829121 1.007936-.5205583.92866-.6506978.787096-2.0765749-.237828-2.5745002-1.183475-.5771407-2.684054-1.1203319-3.20501-.6167484m304.41936 7.1859676c.651194-.186722 2.03286-.2772539 2.287675-.9845341.373729-1.0467748-1.206126-2.2689552-2.208399-2.4613354-1.817683-.3394945-2.876582 1.1316484-3.805242 2.2067145-.334092.3847604-1.308052 1.0807242-1.013599 1.6861561.322766.6676726 1.415641.4696341 1.964909.396077.92866-.2715956 1.840333-.5714825 2.774656-.8430781m-202.578174-7.0954357c.66252-.2036967 2.044185-.3055451 2.355626-1.0807242.46433-1.142965-1.002273-2.4839684-1.976234-2.6933233-1.772382-.373444-2.955858 1.239155-3.969456 2.4160694-.368067.4243681-1.387328 1.1825726-1.1495 1.8445869.260477.7299133 1.364677.5092418 1.919608.4356847.939986-.2998869 1.874308-.6337231 2.819956-.9222935m-74.994977 26.7408525c8.080476-5.8789136 14.994465-12.6122218 20.322936-20.4998114.147227-.2206714-.203852-.5035835-.453005-.3621275-9.111063 5.1320257-16.234566 11.7238778-20.00017 20.7827235-.022651.0565824.073613.1188231.130239.0792154m16.630946-10.9147491c-3.023809 3.2421727-6.268457 6.3259147-9.632019 9.3078083-1.574193 1.3975859-3.103084 2.8008299-4.943417 3.9437948-.509631.3168616-1.013599 1.0241419-1.693106 1.097699-.889023.1018484-1.693107-.8147869-2.146112-1.425877-2.383938-3.2082233.277466-7.5537533 2.106474-10.0037722 2.310325-3.0894002 5.135944-6.0203696 8.057826-8.6797435 2.842606-2.5914749 6.257132-5.0075443 10.090686-6.5635609.855047-.3451528 1.772383-.5205583 2.791644-.3960769 1.160825.1471143 1.432628.1018483 1.942259-.7582045.719145-1.2108638 1.693106-2.0709166 3.612715-1.5277254 2.76333.7808374 1.160825 2.6197661.515293 4.017352-.889023 1.9238023-1.772382 3.8532629-2.610442 5.7996982-1.681781 3.8872124-3.216335 7.8366654-4.360173 11.916258-.594569 2.1218408-.283128 1.8615617-1.109862 3.9041871-.209515.5149-.809746 2.1161826-1.61383 2.1444738-.889023.0339494-1.930934-1.6182573-2.225387-2.2123727-1.002274-2.008676-1.087212-1.7427386-.673845-3.6608827.498305-2.336854 1.308052-4.5888344 1.891296-6.9030554m-100.9748148-.9166353c.090601-.2772538-.2151774-.5035835-.4586676-.3451527-.7531208.5092418-1.81202 1.7653715-2.1687614 2.104866-.9739608.93361-1.9479215 1.8615617-2.9162197 2.7895134-1.8969584 1.8162958-3.7939169 3.6269333-5.6908753 5.443229-.1132513.1075066-.0113251.2942286.141564.2602791 1.3250397-.3225198 2.6500793-.6450396 3.9751189-.9732176.6908326-.1697473 1.3873278-.3394945 2.0781605-.5092418.5266183-.1301396 1.5685298-.1923802 2.0215348-.5035836.8550469-.5827989 1.1891381-2.8574123 1.5175667-3.8362881.4983055-1.471143.996611-2.9536025 1.5005791-4.4304037m-9.7735829 17.4387374c2.2253871.0056233 3.5560893-.6733658 4.5753505-2.6254594.3397538-.6506978.6625198-1.2674462.9739608-1.9294605.1925271-.4130517.8323966-1.44851.7587833-1.9068277-.1019261-.678989-2.0611727.1018484-2.6670669.2772539-2.5311654.7412297-5.1755821 1.5956243-7.4915702 2.8913618-1.3307022.7468879-.3171035 1.3636363.6115568 2.0482836.956973.6959638 2.0328599 1.2221803 3.2389857 1.2448483m17.6105694-9.0701972c.232165.0961901.2265025.4356847-.0056626.5318748-.7361331.2885703-1.5062416.4413429-2.2990004.5431912-.7474582.0905319-1.6138303.0735572-2.2763501.4809506-.8607095.537533-1.0249238 1.6804979-1.2231135 2.5914749-.8380592 3.807997-3.352237 9.2908337-7.8086737 9.743493-1.4156406.1414561-2.8539315-.2263296-4.1166829-.8487363-1.4382909-.701622-2.7067049-1.7144474-3.9184933-2.7499057-.7587833-.6506978-1.5458795-2.3821199-2.768993-2.1784232-.8493844.141456-1.5855175 1.2900792-2.1008107 1.8841946-.7644459.8713693-1.4949165 1.7653716-2.1630989 2.7046398-.5889065.8261033-1.3533524 1.799321-1.681781 2.7668804-.2038523.6054319.0283128 1.4089023-.6455322 1.7427386-.4586675.2319879-1.6591308.022633-2.1234609-.1697473-.9229977-.3847604-1.3760027-1.3466616-1.0305864-2.2802716.3454163-.9336099 1.2740766-1.7823463 1.8969585-2.5405507.7587833-.93361 1.5345544-1.8559034 2.315988-2.7668804 3.0181458-3.5250849 6.200506-6.914372 9.5244301-10.1565447 4.4337865-4.3285553 9.1450385-8.3911732 13.9695417-12.289702.7927588-.6393814 1.5911801-1.2787628 2.395264-1.9068276.4020419-.3168616.8040838-.6280649 1.2061258-.9449265.1925271-.1471143 2.2423747-2.0426254 3.0181458-1.96341 1.1721504.1244813 1.5685298 1.2221803.8550469 1.9973595-.7361331.7921539-1.5232293 1.4315352-2.1291235 2.359487-1.0702243 1.6522067-1.5741923 3.7174651-2.1177983 5.5903432-.4473425 1.5333837-.7701085 3.106375-.9739608 4.6906828-.0849384.6620143-.4643301 1.9690683-.1755394 2.3877782.2038522.2942286 1.5628672.3338363 2.1800865.3564692.7757711.0169748 1.4666037.1188231 2.1970743.4243682m252.9523293 16.2278386c1.013599-.4583177 1.642143-1.8502452 2.27635-2.591475.939986-1.1090154 1.749732-2.3085628 2.502853-3.5420596 2.950195-4.8264805 5.628587-9.8000754 8.64107-14.5869483 5.356784-8.5156545 11.698854-16.4428517 17.021663-24.9867974 1.823345-2.9253112 5.730513-7.40663902 3.18236-11.12976237-.934323-1.3692946-2.785981-2.36514523-4.496074-2.55752546-1.228776-.13579781-1.477929.23198793-1.398653 1.23349679.079276 1.03545832-.402042 1.88985289-.849385 2.78385515-2.106473 4.16446629-4.728239 8.12523579-7.27073 12.06337229-2.667067 4.1361751-5.419072 8.2270841-8.261679 12.2614108-3.176697 4.5039608-6.308094 9.0531875-9.111063 13.7778197-1.296727 2.1840815-2.51984 4.4021124-3.652353 6.6710675-1.081549 2.172765-2.383938 4.4021124-2.735017 6.8351566.130239 1.4994341 1.998884 4.7472652 4.150658 3.7683893m-181.22465-34.7529235c.232165-.9845341.300116-2.0199924-.453005-2.8064881-.849385-.8826858-2.525503-1.3579781-3.697653-1.5503583-.900348-.1471143-1.574193.0622406-1.976235.8826857-.458667.9392682-.775771 1.5390419-1.523229 2.3142211-3.561752 3.7118069-7.168804 7.4405884-10.560679 11.3108261-3.188023 3.6382497-5.911715 7.6725764-9.331903 11.1127876 1.183475-2.7272727 2.332976-5.4715202 3.533439-8.1931346.798421-1.8106375 3.057784-4.7302905.583244-6.0826104-2.236712-1.2165221-2.93887 1.6804979-3.675003 3.2251981-1.109863 2.3255375-2.259363 4.6284421-3.369225 6.9539796-.88336 1.8502452-2.378276 4.4304036-1.885633 6.5522444.203852.888344.798421 1.7540551 1.551542 2.2746134.934323.6450396 1.642143.2715956 2.446227-.3791023 3.776929-3.0667672 6.60821-7.2255752 9.677319-10.9656733 3.120072-3.8023387 6.472309-7.3557148 9.813221-10.9600151-2.440564 5.7827235-5.19257 11.4409657-7.395307 17.3255376-.764446 2.0482836-1.896958 4.4134289-1.913946 6.6427763-.005662 1.1655979.407705 2.172765 1.155163 3.0554507.436017.5092418 1.064562 1.5956243 1.681781 1.8785364.702158.3168616 1.857321-.3960769 2.434902-.7978121.866372-.6110902 1.121187-1.4994342 1.466604-2.4500189.911672-2.4952848 1.959246-4.8547717 3.238985-7.1803093 2.638754-4.7981893 5.481361-9.5284798 8.624083-14.0154658 1.387328-1.9803848 2.91622-3.8758959 4.705589-5.5111279.673845-.6167484 1.845996-2.1557903 2.627429-.9732177.560594.8430781-.736133 1.6691815-.113251 2.2519804.622882.582799 3.080434-1.589966 4.258247-2.8234628.543606-.5658242 2.315988-3.0215013.702158-4.2663146s-5.724851 1.1995473-7.803011 2.8008298c-2.553816 1.9690683-4.722577 4.2436817-7.00459 6.5013203.730471-2.008676 1.715756-4.0456431 2.202737-6.1278763m346.667739 26.6503207c-.68517 1.8559034-2.106474 4.0456431-.990949 6.1109015 1.087212 2.008676 3.776929 3.0441343 6.047617 3.0555474 2.752005.0168781 4.416799-2.2068111 6.14388-3.7741441 3.691991-3.3496794 7.440607-6.563561 11.693192-9.3360996 4.195959-2.732931 8.669383-5.115051 13.250396-7.3217654 4.598001-2.2180309 9.320578-4.3172388 14.416884-5.607318 2.508515-.6337231 5.385097-1.3692946 8.091802-.910977.719145.1188231 2.536828 1.2278386 2.910557.3677858.305779-.7072803-.611557-.9619012-1.177813-1.1712562-5.345459-1.9464353-10.577667-.5601659-15.419158 1.1655979-5.113293 1.821954-9.971772 4.1701245-14.711337 6.6144851-4.541375 2.3425123-8.941186 4.9000377-13.029556 7.8253489s-7.655785 6.3089401-11.325125 9.6359865c1.200463-4.7076575 2.451889-9.3304414 4.252584-13.8457186.798422-2.0030178 1.642143-3.994719 2.45189-5.9920785.702158-1.7314221 1.896958-3.7344398 1.976234-5.6356092.056626-1.2504715-.934323-1.6295737-2.123461-1.9407771-.696495-.1810637-1.574192-.4979253-2.197074-.1188231-.634207.3847605-.815409 1.3862694-1.132513 1.9690683-1.053236 1.9294606-2.910557 3.457186-4.445111 5.0414938-1.070224 1.1090155-2.157436 2.2010562-3.267299 3.2761222-3.340912 3.2195398-6.466646 6.6767258-10.40779 9.3360996-.090601.0622407-.22084-.0452659-.158551-.1357978 1.976234-3.0215013 3.782591-6.0486609 6.200506-8.8042248 2.412251-2.7499057 4.524387-5.4771785 7.457594-7.7744248 1.353353-1.052433 3.012484-2.2406639 4.456437-3.1912486 1.013599-.6676725 2.321651-1.2221803 3.556089-1.5729913.690833-.1980385 3.946806.0678989 2.315988-1.4089023-1.075886-.9732176-2.927544-.4470011-4.094032-.1754055-6.591223 1.5164089-12.327399 6.1788005-16.721547 10.5356469-2.293338 2.2746134-4.552701 4.7529235-6.223157 7.4632215-1.39299 2.2576386-2.32165 4.6454168-.515293 7.1803093 2.219725 3.1233497 5.804127.5488495 7.757711-.9675594 2.972845-2.3029046 5.385097-5.2395323 7.944575-7.9045644-1.189138 2.5971332-1.993222 5.3413807-2.98417 8.012071m-441.7308384-49.77555643c-2.8539315 1.76537156-5.3794344 4.0116937-7.8086737 6.31459823-5.0396806 4.7868729-9.7339449 10.4507733-11.8007802 17.195398-.8040839 2.6141079-.5322809 5.816673 1.59118 7.802716.8267342.7695209 2.6897172.305545 2.6614044-1.0071672-.0113251-.6337231-.5266183-1.261788-.6625198-1.8898528-.1528892-.7016221-.1415641-1.4258771-.0679507-2.1388156.3057783-3.0724255 1.8686456-5.8336477 3.5391015-8.3685402 3.391875-5.1546586 7.5312081-9.8340248 12.4406498-13.59109765 1.268414-.97321765 2.5877911-1.88419464 3.9468061-2.72727273.815409-.50924179 2.5255029-2.05394191 3.5221139-1.85590343 1.449616.28857035-.5492686 2.34251226-.9116726 2.93662769-.8550469 1.39192757-1.6704559 2.81214636-2.4575521 4.24933982-1.5345545 2.7838552-3.0238084 5.7035082-4.5130623 8.4420974-3.3125991 6.0826103-6.5176095 12.2218031-9.8811716 18.2704639-3.1540473 5.6582422-6.3986956 11.3787251-10.328514 16.5503584-1.5288919 2.0143342-3.2672986 3.8815541-5.2038949 5.5054696-4.2186091 3.5250849-9.4508168 6.0373444-14.898202 6.891739-2.5708033.4017352-5.2718457.3055451-7.73506034-.5884572-2.44056444-.8826858-4.60932587-2.314221-6.99326469-3.3383629-.22650249-.0961901-.56059368-.1584307-.66818237.0622407-.05662562.1131648-.01698769.2546209.03963794.373444.12457637.2376462.32842862.4243681.53228087.5997737 3.36356213 2.9253112 7.05555288 5.4545454 11.33645009 6.8294983 5.4643728 1.7483968 11.415726 1.6578649 16.800823-.3281781 5.5323235-2.0426254 9.8585213-6.6427763 13.2843716-11.2825349 4.8188407-6.5296115 8.1937279-14.2191626 11.8177679-21.4560543 3.7939169-7.5820445 7.4462697-15.2263297 10.9683836-22.9385138 1.1721504-2.5575254 8.2503536-14.1456054 1.2457637-14.11736591-3.3069365 0-7.066878 1.91253757-9.7962331 3.60435198m391.0509034 28.47227463c2.304663-1.7540551 5.175582-4.2663146 8.561795-2.89702.73047.2942286 1.659131.6280649 1.579855-.4639759-.033976-.4356846-.588907-1.0184836-.928661-1.3296869-1.189138-1.075066-2.76333-.8940022-4.212946-.724255-7.055553.8317616-12.944618 6.1561675-16.868774 11.0109393-2.03286 2.5179178-3.714641 5.3130894-4.592338 8.3968314-.600232 2.1048661-1.687444 5.9411543 1.489254 7.0614862 3.703316 1.307054 6.460984-2.1557903 8.459868-4.2663146 2.661405-2.8121463 5.164257-5.7770652 7.757711-8.645794-.503968 2.5462089-1.659131 5.1772916-2.735018 7.5311203-.990948 2.1671068-2.553815 4.532252-1.687443 6.9030555 1.630818 4.486986 6.817725.5601659 8.61842-2.0878914 3.137059-4.6058091 7.627472-8.7193512 11.466689-12.8102603.402042-.4300264 6.698811-6.8521313 5.866415-4.4983025-.113252.3225198-6.421346 12.1652207-7.587834 14.7453791-1.002274 2.2067144-3.414525 4.3059223-2.972845 6.8804225.271803 1.6012825 1.262751 2.9592606 2.361288 4.2493398.679508.7978122 1.976234.8034704 2.553816.0282913 6.647848-9.0305546 10.826819-18.5364014 19.337651-26.4862317.033975-.0282912.084938.0113165.062288.045266-1.262751 2.0426254-2.027197 4.3059223-2.887907 6.5296114-.990948 2.568842-1.998884 5.1320257-2.904894 7.7291589-.656858 1.8841946-1.795033 4.1192003-1.370341 6.2070916.147227.7355715.741796 2.2463222 1.647806 2.5292343 1.013599.3168615 1.217451-1.097699 1.466604-1.7257639 1.817682-4.5492267 3.4032-9.183327 4.966067-13.8230856.781434-2.3198793 1.562867-4.6397586 2.361289-6.9539797.503968-1.4598264 1.058899-3.2534892-.979624-4.1588079-2.485865-1.1033573-4.513062 1.1259901-5.917377 2.500943-1.732745 1.6974726-5.16992 4.5831762-6.891339 6.2919653.939985-2.0878914 1.596843-4.2889476 2.332976-6.4503961.549268-1.6012825 4.082707-5.1659751 2.451889-6.7559411-.600231-.582799-1.426965-.769521-2.180086-1.0920408-.724808-.3055451-1.506242-.9166352-2.327313-.8826858-.922998.0396077-1.262752.6733309-1.596843 1.3296869-.520956 1.0298001-1.234439 1.7031309-2.089486 2.5009431-6.834713 6.3768389-12.70679 13.4100339-18.895971 20.2847982 1.070225-3.8985289 3.103085-7.5650698 5.141607-11.050547.872035-1.4824594 1.693106-3.1346661 1.449616-4.9339872-.22084-1.6295737-1.840333-2.314221-3.148385-1.1542814-.68517.6054319-1.166488 1.2334968-1.925271 1.7936628-.92866.6846473-1.83467 1.3919276-2.723693 2.1218408-1.653468 1.3466617-3.238985 2.755564-4.779202 4.204074-3.261636 3.0667672-6.432671 6.1391927-10.000086 8.9230479 2.485865-6.4503961 6.545923-12.2500943 12.270773-16.6069408m-358.5308069 14.790645c.6625198-1.3183704 1.319377-2.6423991 1.9818968-3.9607695 1.398653-2.7895134 2.8029685-5.5677103 4.2469219-8.3345907 1.2004633-2.3029046 2.9218823-4.4586948 2.6217664-7.1972841-.2208399-2.0199924-1.1834755-4.7076574-3.5107887-2.9592606-2.0555102 1.5447001-3.3012739 4.4417201-4.5583628 6.5805356-6.2458065 10.6148623-11.4893393 21.6654093-16.4667318 32.9139947-2.5594782 5.7883818-3.0238083 6.9313467-5.5096733 12.7536779-1.0588992 2.4669936-2.6614044 5.2451905-2.0611727 8.0799698.2378276 1.1033573.8550469 2.2972464 2.225387 2.1840815 1.1891382-.1018484 1.6081678-1.4202188 2.2310497-2.2067144 3.6976533-4.6793663 3.2333231-5.1772916 5.9003901-10.4960393 2.7350177-5.4602037 5.9853285-10.5243304 8.4202304-16.1090154.8946849-2.0426255 2.4745398-3.2534893 4.8301658-3.3496794 2.8709192-.1188231 5.8041266-1.3296869 8.4315556-2.2972463 5.1982325-1.9238024 10.2265875-4.8264806 14.7056745-7.9385138 4.224272-2.9366277 8.386255-6.7842324 10.498391-11.4805734 1.947922-4.3285552.203852-9.0871369-3.84488-11.8992833-4.541375-3.1572991-10.521041-4.8660882-15.894813-5.6695586-6.2288184-.93361-12.8087161-.6337231-18.7430816.9562429-1.2004632.3225198-2.3612885.7412297-3.4711508 1.2674463-.7701085.3621275-2.3216506.8713693-2.8426064 1.5843078-1.1551627 1.5843078 2.1630989 4.2436816 3.6976534 3.1346661.4246921-.305545.6795075-.7468879 1.1551627-1.0128253.5719188-.3225198 1.2570889-.537533 1.8799708-.7525462 1.0305863-.350811 2.0781604-.6506979 3.1540473-.8713693 3.2503108-.6676726 6.6478483-1.0128254 10.0114105-1.0694078 5.7871391-.0961901 12.0386081.8657111 17.2538281 3.7174651 1.761057.9675594 3.340912 2.3990947 3.573077 4.4077707.260478 2.2576386-1.013599 4.4813278-2.163099 6.286307-2.989833 4.6850245-7.842649 7.9724633-12.644502 10.7959261-4.920767 2.89702-11.3987385 6.1391928-17.0103379 7.6895511 1.0645617-1.821954 1.2854016-3.5194266 1.902621-4.7472652m135.6580099-18.2534892c-.815409-.8317616-2.038523-1.3013957-2.984171-.4526594-1.115524.9958506-1.953584 2.6593738-2.768993 3.9041871-2.327313 3.5873255-4.348848 7.3726896-6.064604 11.2881931-.288791.6563561-.690833 1.9690683-.277466 2.5745002.61722.9053188 1.919609 2.008676 2.412252 1.8841947.492643-.1188231.88336-.7185968 1.279739-1.3183705.430355-.6563561.86071-1.3127121 1.262752-1.986043 1.61383-2.6933232 2.950195-5.539419 4.445111-8.3062995.821072-1.5277254 1.715757-2.9932101 2.667067-4.4417201.696495-1.0467748 1.019261-2.1388155.028313-3.1459826m71.053834 6.5635609c-.079276.1471143.090601.3055451.237828.2150132 3.074771-2.0030177 7.106516-3.9834025 9.954785-6.1335345 1.466603-1.1090155 7.07254-5.0811015 4.184633-7.0954357-1.308052-.910977-3.278623.5262165-4.337523 1.2334968-1.489254.9958506-2.808631 2.1784232-4.060057 3.4515277-2.383939 2.4330442-4.365836 5.3130894-5.979666 8.3289325m-26.897172-3.1969068c1.37034-1.1090155 2.746343-2.2236892 4.116683-3.3327047 1.234439-.9958506 2.553816-2.4273859 3.958131-3.1572991 1.172151-.6054319 2.752006.0905319 2.610442 1.44851-.164215 1.5390419-.821072 3.1233497-1.34769 4.5662014-1.183476 3.2308563-1.981897 6.5748774-3.210673 9.7831007-1.177813 3.0724255-2.299001 6.1222181-3.267299 9.2682007 4.762215-3.7966805 8.369268-9.0305545 12.434988-13.5231988 2.129123-2.3538287 4.337522-4.6341003 6.721461-6.7276499 2.214062-1.9464353 4.648964-3.5929838 6.919652-5.4715202 2.208399-1.821954 4.609325-4.2549981 7.457594-4.9962278 2.004548-.5262166 4.30921.1188231 5.911716 1.3862693 1.732744 1.3692946 2.723692 3.6891739 1.41564 5.6978499-.758783 1.1712561-1.993222 2.0482836-3.040796 2.9366277-1.098537.9336099-2.972845 2.3651452-4.150658 3.202565-2.338638 1.6691815-4.903779 3.3440211-7.604822 4.2663146-1.138175.3904187-2.553815 1.0637495-3.052121 1.5843078-.922997.956243-1.562867 2.5518672-1.953584 3.7966805-.430355 1.3692946-.741795 3.0215013-.515293 4.4586949.19819 1.2787627 1.693106 1.2504715 2.735018 1.216522 3.244648-.1075066 6.557247-1.1712561 9.643344-2.1105243 6.194843-1.8841946 12.100896-4.486986 17.89936-7.3500566.396379-.1980385 3.018146-1.7936628 2.49719-.4356846-.186865.4752923-1.007936.7355714-1.409978 1.0015088-.798422.5262166-1.551542 1.1259902-2.338639 1.6691815-6.376045 4.3794794-13.43726 7.4575632-20.66269 10.0999623-1.732744.6337231-3.550427 1.1373066-5.39076 1.075066-3.66934-.1188231-6.443996-2.9309695-7.242417-6.4164467-.741796-3.2421727.186864-6.4786872.973961-9.6133534-2.746343 3.1969068-5.526661 6.3768389-8.210716 9.6246699-1.460941 1.7653716-2.870919 3.5760091-4.292222 5.3753301-1.392991 1.7540551-2.944533 3.4062618-4.280898 5.1942663-.866372 1.1655979-1.262751 2.4952848-2.955857 1.7597133-1.772382-.7695209-3.086097-2.6423991-3.556089-4.4813278-.928661-3.6325915 1.693106-7.6216522 3.091759-10.8242173 1.041911-2.3821199 2.146111-4.7416069 3.306936-7.0671444.600232-1.1995474 1.211789-2.3934365 1.845996-3.5816673.481317-.8996605 1.17215-1.7823463 1.251426-2.8064881-.945648.8940022-1.964909 1.7031308-2.904895 2.5971331-.985286.93361-1.766719 2.0199925-2.655742 3.0384761-1.579854 1.8162957-3.369224 3.4402112-4.909441 5.2961146-1.625156 1.9577518-2.785981 4.2153905-4.212947 6.3145983-1.517566 2.2293474-2.887907-1.6465485-2.848269-2.9988684.073614-2.4104111 1.681781-4.8434553 2.763331-6.9256884 1.285402-2.4613353 2.655742-4.883063 3.969456-7.3330818 1.274077-2.3708035 2.536828-4.7698982 3.57874-7.2538665.577581-1.3749528 2.05551-4.5888344-.407705-4.673708-2.582128-.0848737-5.334134.6959638-7.791686 1.4145605-1.353352.396077-1.721419.4413429-1.647806 1.8898529.067951 1.284421.033976 2.5745002-.101926 3.8532629-.566256 5.3074312-2.882244 10.2074689-5.668225 14.6887967-2.355626 3.7910223-5.390759 7.1124104-8.88456 9.8906073-3.510789 2.7951716-7.769036 5.8732554-12.355712 6.167484-2.03286.1301396-5.118956.3960769-6.557247-1.3183704-1.449616-1.7370804-2.27635-4.4134289-2.51984-6.6258016-.532281-4.7868729 1.800695-9.4662392 4.682939-13.1440966 3.278624-4.1757827 7.68976-7.6329687 12.163184-10.2980007 1.472266-.8770276 3.018146-1.6069408 4.598001-2.2632969 2.191412-.910977 4.988717-2.2576386 7.208442-.6676726 2.315988 1.6635232-2.633092 2.2406639-3.595727 2.5348925-2.214062.6846473-4.377161 2.3481705-6.149543 3.8136552-1.953584 1.612599-4.337523 3.7797058-5.962678 5.6978499-1.891296 2.2293474-3.210673 4.0909091-4.790528 6.5692192-1.56853 2.4613353-2.655742 5.2791399-2.644417 8.2327423 0 .5035836.135901 1.0467748.520956 1.3692946.237827.1980385.549268.2942286.860709.3281781 1.132513.1188231 2.327313-.4809506 3.3579-.8826858 1.075887-.4187099 2.10081-1.0128254 3.063446-1.6408902 2.03286-1.3183705 3.861868-2.9253112 5.747501-4.4417201 3.980781-3.2025651 6.902664-7.4915127 9.615031-11.7691438 1.398653-2.2067144 2.831281-4.5265937 3.810905-6.9539796.68517-1.6974726-.118914-3.6325915 1.245763-5.1376839 1.443954-1.6012825 4.348848-2.0652584 6.347733-2.4783101 1.993222-.4130516 4.235597-.8091286 6.240144-.2263296 4.207284 1.2221803 3.680666 5.5167861 3.091759 8.9513391-.41903 2.4104111-1.602505 4.6341003-2.565141 6.869106" transform="translate(-277.033493 58.915702)"/></g></svg>