<svg height="128" viewBox="0 0 300 128" width="300" xmlns="http://www.w3.org/2000/svg"><g fill="#fff" fill-rule="evenodd" opacity=".6" transform="translate(0 34)"><path d="m176.933586 25.8491747c-.709998 1.6929085-1.618443 2.9672675-2.70122 4.1108553-3.205208 3.3852068-7.259389 5.7458013-10.792005 8.7397112-.470266.3984151-.64378.7459861-.417333 1.3801149.526469 1.4740751.626 3.0433304.81239 4.5835029.149602 1.2357175-.449829 1.5737297-1.641538 1.0547121-1.5604-.6792785-2.801159-1.7380581-3.755384-3.122444-.302475-.4390905-.515024-.5387451-1.030253-.2584919-2.424701 1.3186952-4.939122 2.4502837-7.554096 3.3479889-1.575933.5409823-3.228711.7030736-4.78482.1588373-1.884334-.6587375-3.023519-3.5135376-2.279186-5.6430961.385655-1.1037259.116698-1.160468-.893117-1.1252838-4.529147.1572103-8.9324.9278049-13.226311 2.3734072-.636832.2143592-.963627.5788104-1.239124 1.1383-1.692631 3.4370679-3.344591 6.9207091-6.188465 9.6056896-6.327031 5.9735833-13.700255 9.3244195-22.6038376 8.7417449-1.0623395-.0695548-1.0051146-.7754757-1.0813464-1.530207-.194769-1.9330965.8912779-3.1706443 2.2090858-4.3244009 7.1950102-6.299393 15.4454112-10.8015452 24.3602342-14.1692616.484368-.1830391.824243-.4116346 1.051916-.9027896 1.256495-2.7093857 2.54753-5.4027047 3.662598-8.1995424-1.393222 1.4736683-2.693658 3.0500419-4.200512 4.3978199-2.381782 2.130372-4.615802 4.4999151-7.768077 5.5906248-.747398.2584919-1.710003.5011205-2.44289.076063-.391991-.2273753-.649298-.6264006-.860009-1.0262394-.407318-.7736453-.696713-1.6068801-.871658-2.4622829-.0701-.3426899-.099735-.6609746-.088085-1.0091557.006335-.1948349-.048846-.970514.07848-1.0905064-1.245868 1.1767382-2.404059 2.2039944-3.481523 3.3093473-.859191.8812317-1.813212 1.6255908-2.901507 2.1647427-1.162279.5755563-3.024132-1.018511-3.156362-2.7311471-.166157-2.1527434.526265-4.1407516 1.360726-6.0850338.102801-.2395779.211733-.4765118.465157-1.0455601-2.461693 2.5426167-4.829373 4.6632266-7.2234181 6.7547536-.4872292.4256677-1.0278001.7905256-1.5309706 1.199313-.7032532.5712854-1.5193212 1.0500344-2.3756511.625587-.9779327-.4848503-1.6335667-1.379098-1.6190561-2.531431.0378093-2.9768262 1.484782-5.4596502 2.923784-7.9355593.1874116-.3223522.4161068-.6211128.7594562-1.1285379-1.4347101.7339869-2.3069812 1.8029354-3.3104608 2.6918953-3.9389129 3.4887257-7.7400773 7.133848-11.8582268 10.41818-1.6625879 1.3258133-3.5315942.8486913-5.1849852-1.2892056-1.8591964-2.4037104-1.3431503-4.9882227-.1998785-7.4224396 2.3938405-5.0972328 5.663222-9.6860235 8.8138618-14.3307428 3.5289374-5.2023785 7.2963799-10.2361577 11.2929265-15.09462606.2432059-.29570986.0880855-.35896005-.158186-.23937449-1.4426807.69920944-2.673425 1.51820781-3.8449005 2.41123533-2.9248059 2.22982323-5.4222643 4.92985362-8.0059688 7.51639972-2.3116818 2.3138179-4.3846541 4.8718913-6.4745894 7.3945771-2.9356377 3.5434339-5.8224298 7.1277467-8.6642595 10.7458199-1.4508558 1.8476782-2.8616541 3.7144739-4.8872114 4.9827316-.5630522.3522486-1.2274742 1.0905064-1.8487732.6445011-.9194816-.6603645-1.3889302-1.7175171-1.1886431-2.922728.2417753-1.4539407.9299048-2.754332 1.484782-4.0984493 2.6378638-6.3890821 6.106715-12.3142618 10.0685179-17.9732212.5514028-.7876784.9442109-1.6847734 1.4338926-2.71630056.0978955-.20622407-.158186-.39800839-.3312913-.24872982-1.1451113.98800448-2.1633059 1.83913638-3.1116043 2.76165358-3.7320858 3.6304792-7.4024504 7.3242086-11.1408717 10.9481798-3.2301416 3.1311892-6.273076 6.4403331-9.343601 9.7238516-3.0006288 3.2088791-5.5070797 6.8350874-8.5236497 10.036645-.0762318.080944-.1528723.1618879-.2297172.2424251-.4743536.4984766-.9194816 1.0221718-1.2626267 1.620303-.3762537.6554834-.6699401 1.35693-1.1009663 1.98089-.4590255.6825326-.7854118 1.0323407-1.6264136.3369954-1.091565-.9025863-2.3932273-1.4970566-3.3803569-2.6068838-1.89721-2.1330159-2.0852347-4.0921446-.321277-6.3821674 2.5244359-3.2772137 5.064813-6.5422248 7.5955844-9.8143542 2.6615713-3.440932 5.0805498-7.0620559 7.334598-10.7785636 1.1093457-1.8289675 2.1784296-3.6819335 3.2211491-5.5495427.7950175-1.4236376 1.6025018-2.8409705 2.3082075-4.3128084.2444321-.51006901.4569817-1.03539128.6294739-1.57372967.1324348-.41326166.3703269-.95993849.200696-1.3595739-.1659523-.39068683-.6989614-.42017647-1.0633614-.45332689-.335992-.03050652-.6746408-.03782808-1.011859-.04677666-3.9887803-.10494243-7.6889836 1.17775504-11.3425895 2.52553309-7.6846918 2.83466583-14.890125 6.66852183-22.0442601 10.61220143-3.2810309 1.8084265-6.6395198 3.4893357-10.19482144 4.7291207-1.681186.5863353-3.44657435 1.0195279-5.18723337.7057175-2.55897518-.4616654-3.84817057-1.9646199-3.34234328-5.3268452.0161456-.1075863.11731106-.185683.22624276-.1736838.15185038.0164736.17187909.180802.21643277.2987606.11240606.2987605.23564399.5963007.40629683.867402.10607045.168396.230739.3256063.37788876.4600383.91191975.8320145 2.2845.5373215 3.36421136.2410015 1.45698698-.3998387 2.87514278-.8926207 4.26509488-1.4785493.66503516-.2802532 1.32312163-.5759631 1.97855113-.8777743.6556339-.3022179 1.308611-.6103337 1.9628143-.9151955.0688742-.0321336.1375441-.0640637.206214-.0959939 7.1948057-3.3439213 14.1212675-7.23838366 21.4268443-10.35635337 4.5450881-1.94001129 9.1704956-3.63617379 14.11391-4.23816912 2.9699726-.36160395 5.7703142.2428319 8.3139613 1.85113563 2.1921227 1.38621626 2.1602402 3.97805019 1.6405155 6.22129629-.4872292 2.10372957-1.3129029 4.15742857-2.1048547 6.16394407-1.470067 3.7244393-3.273469 7.3052946-5.3519594 10.7466334-.1240554.2056139-.1966084.4874942.1444929.170023.8777892-.817168 2.5618365-2.4543512 2.6971325-2.6001724 1.5209562-1.6400305 2.9959282-3.325414 4.5745181-4.9082956 4.3427573-4.3545007 8.7120832-8.6821556 13.5561715-12.50279215 1.6707629-1.31788166 3.4361513-1.83323847 5.4917517-1.05145805.5626434.21395239.6304958.59019947.4943823 1.09579419-.6836333 2.54139648-1.847547 4.87046761-3.1600411 7.13649191-3.40059 5.8720983-7.2223963 11.5103133-9.9601993 17.750727-.0735749.1677859-.1547116.3325211-.3325176.7136492 1.8293577-2.2281962 3.500938-4.2741668 5.1833503-6.3109855 4.2458836-5.1411621 8.6037646-10.1798223 13.3264544-14.9026383 2.8322241-2.8322253 5.7488549-5.53184893 9.2401873-7.56032913.7106107-.4128549 1.4813076-.71222555 2.2640626-.95912499.7283913-.23001916 1.5675537-.56904828 2.3413161-.51840746.6347877.04169225 1.1530819.37462007 1.6977404.66321175.4201943.22269759.9746628.50844199 1.1070975 1.01057931.2430016.92150028-.2875551 1.73175345-.7520987 2.46268966-2.5716464 4.04557129-5.2591733 8.01975736-7.7654198 12.10437696-2.4898965 4.0579773-4.781754 8.2353367-7.2185132 12.3264644-1.7061197 2.8641555-3.3895538 5.7366494-4.7856371 8.7657435-.1295736.2810667-.1592079.6076898-.2744752 1.0705754 2.055396-1.1759246 3.5712429-2.7669413 5.2272908-4.1661737 5.0131062-4.235932 9.9460975-8.5580957 15.2958087-12.3935788 1.1657531-.8358786 1.8976191-.3221488 2.7441391-.0085418.637444.2363238.260577.9495663.018598 1.3376092-1.052939 1.6866038-2.140008 3.3544969-3.2777613 4.9855789-1.7835777 2.5568531-3.5655204 5.1076049-4.6636255 8.4204096 1.466797-1.1956522 2.7420949-2.1647427 3.9376867-3.2229122 3.1363341-2.7760933 5.9943091-5.8434222 9.1001911-8.6601908 1.164118-1.0555256 1.992653-.5344743 3.010234-.4132617.57511.068538.375436.4236339.195791.770188-1.459848 2.8149382-2.686301 5.7329886-3.837543 8.682969-.446559 1.1441979-1.000414 2.2607365-1.053347 3.694543 1.414681-.9387873 2.471707-2.1165424 3.598629-3.1960664 4.631539-4.437275 9.382023-8.7195769 14.823294-12.1861345.872272-.5556254 1.785418-1.0492209 2.735147-1.461669.99837-.4335994 2.053556-.8100498 3.126523-1.0050882.546907-.0992478 1.105667-.1323983 1.660544-.0994512.280198.0164735.559374.0500307.835484.1004681.247089.0449463.482937.0748427.726961.1423638.824856.2287989 1.622735.5546085 2.370541.9697006.226652.1256868.448603.2595087.66524.4012624.090129.0589792.17985.1022985.2289.1986991.016758.0329471.111179.2041903.069691.2387644-.172288.1431772-.31024.2615425-.539344.2312394-.263031-.0349808-.523404-.0819609-.787456-.1100269-.53771-.0573522-1.078894-.0791135-1.619465-.0656907-1.058661.026439-2.114256.188327-3.13102.4840368-1.759461.5112893-3.4104 1.4224174-4.769287 2.6479659-1.55386 1.4014696-2.986118 2.94754-4.329473 4.5485222-1.353369 1.612778-2.613134 3.3020257-3.801369 5.0384568-.574905.8403529-1.352551 1.7244319-1.590443 2.7258592-.051094.2149693-.085633.4744781.074392.6280276.145311.1393131.385246.1165349.567753.0307099 1.782147-.8377091 3.472734-2.0892899 5.01515-3.298365 1.606794-1.2597158 3.109356-2.6479659 4.520972-4.1204139.113632-.1183653.226447-.2371374.338649-.3567229 1.311268-1.394148 2.66525-2.7496543 4.123667-3.9906596.876563-.7457827 1.580634-1.6800957 2.325988-2.562751.459843-.5442363.920504-.2407981 1.255065.057759.435931.3892632.957087 1.0705755.473741 1.5295969-1.442681 1.3697427-2.081556 3.1755254-2.709804 4.9109396-.889847 2.4578086-1.817095 4.8987369-2.77316 7.3305133-.035561.0907061-.030043.1974789-.049663.3418764 2.007981-.3819416 3.958533-.8041518 5.926661-1.1147082 2.657893-.4195663 5.339084-.5586761 8.025793-.32764.662583.0569455 1.084616-.1124674 1.497453-.6682962 2.402016-3.2334877 5.546933-5.7045158 8.661194-8.1991357.422443-.3384189.706523-.6355525.722669-1.2369376.101574-3.8275514 1.099536-7.4195924 3.23382-10.6160656 1.493775-2.2373482 3.432677-3.9961507 6.411847-3.5816688 2.428584.3380122 4.686924 2.9867917 3.374839 5.5973363-1.349895 2.6853872-3.357876 4.8356901-5.751921 6.5904251-1.121608.8218457-1.378507 1.8171717-1.380142 3.0404832-.002657 2.2702952.53771 4.428123 1.322304 6.5401911.281628.7581887.716742.4126515 1.052325.1159248 2.398746-2.1202032 5.135118-3.7529121 7.817127-5.4728697 2.135715-1.3699461 4.290028-2.7026743 6.321717-4.2450839.684859-.5198311.667692-.0380315.54425.2564581m-53.495478 17.5331139c-.282854.0673177-.444719.0783001-.581446.1421604-5.728826 2.668507-11.599897 5.0714038-16.717847 8.8800412-1.603933 1.1936184-3.228098 2.3605945-4.831622 3.5550264-.323729.2410015-.724712.6095203-.617007.9697006.11118.3711626.693443.2340867 1.012881.2076477 6.167619-.9436684 11.766871-3.2111163 16.596449-7.2367567 2.125701-1.772022 3.854915-3.8952758 5.138592-6.5178196m24.725247-4.8226741c.332313.1203991.086042.6672793-.266709.6430775-.557125-.0386416-1.101988-.0787068-1.36604-.0907061-.365218-.0160667-.639488.0736224-.791134.4218035-.365013.8368955-.739428 1.6699269-1.090748 2.512517-.310241.7439523-.577154 1.5784073.099531 2.1893512.603518.5450499 1.400579.196462 2.086052-.0181005 3.327832-1.0408825 6.304345-2.8127011 9.334608-4.4738828.470675-.2580852.295526-.5407789.155938-.871673-.896183-2.1230504-1.612312-4.2997923-1.913764-6.5930691-.067853-.5159669-.475376-.6961588-.910694-.4075671-2.012682 1.3343552-3.807091 2.9123558-5.423082 4.7030885-1.591261 1.6959591-1.098105 1.5558325.086042 1.9851609m12.294363-15.2636321c-.015942.2349002.259964.3754336.441858.2247314 1.935836-1.6064734 3.63419-3.2103028 4.603335-5.4441936.259147-.5973176.217454-1.2288026-.041489-1.8175784-.23503-.5342709-.512776-1.2196507-1.136323-1.3900805-.688334-.1881235-1.47395.0357944-2.023309.4679701-.776419.6109439-.941758 1.5363083-1.151855 2.4409283-.241571 1.0404757-.3924 2.0992553-.500718 3.1606788-.08032.7844243-.137953 1.5708824-.191499 2.3575439"/><path d="m257.267428 23.9600043c-2.23071-.4540944-4.496004-.5454002-6.763536-.5699513-.574309-.0060871-.708172-.1079438-.433529-.682156.89086-1.8620302 2.183919-3.5126366 2.858116-5.4895093.18696-.5480378.55844-1.1865699-.121453-1.4789515-.768593-.3309329-1.863909-.8022739-2.468123-.0462616-2.247596 2.8130311-3.516038 5.3071005-6.028511 7.8687363-.420916.4289344-2.081793.4407028-2.565978.4889934-2.151775.2138585-4.265914.6281841-6.340586 1.2441941-.224394.0665518-.396096.1067263-.451228.3696871-.197336.9412617 1.164078 2.2889357 2.085861 1.9920903 1.483885-.4776309 2.979773-.6026185 4.536285-.5573714 1.069073.0308411.977932.3688756.616827 1.099728-.602383 1.2192372-1.206597 2.4372569-1.797791 3.6613637-.305972.3230197-.633306.6647064-.780392.8055203-.992783.9505951-2.069586 1.8092757-3.181381 2.6180425-2.084437 1.5162854-4.220344 2.961961-6.404059 4.33236-1.794944 1.1263082-3.627726 2.3920098-5.709519 2.9165111-.478082.1205237-.967556.1960032-1.46171.2091918-.444107.0117683-.886384-.1588722-1.172012-.4983269-.765949-.909609-.158276-2.3934301.165599-3.3671561.619879-1.8632476 1.667387-3.5591011 2.568826-5.2953322.859326-1.6546645 1.856585-3.2273567 3.329891-4.4076367.03194-.0253627.063676-.0505225.09582-.0756823 4.011208-3.133819 7.802499-6.6253538 11.515263-10.2094119 2.887615-2.7874655 5.649097-5.6114533 7.711359-9.14113371.594042-1.01714693 1.232027-2.20878943.507988-3.34727166-.653854-1.02830652-1.87225-1.07416234-2.992996-.95647927-3.592125.37739742-6.028511 2.48960558-8.43723 4.92036964-3.2121 3.2417627-5.594169 6.8686331-8.261255 10.4520825-2.667087 3.5834494-4.958625 7.1752177-7.036959 11.1176005-.487236.9242179-1.081889 1.7100567-1.948336 2.3372263-2.392647 1.7323759-4.690085 3.5915654-7.081105 5.3255646-.854851.620068-1.740625 1.2147733-2.721812 1.6185479-.18757.0771027-.389586.1483213-.589566.1134222-.379211-.0665518-.417457-.4595727-.330385-.7651429.394672-1.3837905 1.029808-2.6192598 1.670845-3.8979472.71224-1.3109488 1.443401-2.6115496 2.160523-3.9198607 1.048322-1.9121469 2.070604-3.8419463 2.949257-5.8387033.201405-.4579495.482558-.6705906.963691-.7107652 1.05239-.0882623 2.090947-.0933348 3.14822-.1915393.44248-.0411891 1.034488-.0470732 1.027774-.6314305-.005289-.4741816-.584073-.446587-.950264-.5228781-.79626-.1655679-1.6682-.3207878-2.455713-.4571378-.458348-.0791317-.589566-.264584-.394062-.6933156.627814-1.3758774 1.14109-2.8446838 1.914159-4.1669951 3.263163-5.5802064 6.848167-10.78910242 10.878296-15.91135936.491915-.62493767 1.053814-1.25778851.279932-2.02597488-.054725-.05437769-.073442-.28385967-.02543-.33701995.910593-1.00943666-.0059-1.26935391-.751708-1.25853481-2.783453.04152957-5.252187.4412462-7.64341 1.60793178-5.046307 2.46160512-9.171848 5.97687949-13.21459 9.72995482-9.985402 9.2699764-18.777633 19.5700854-28.827117 28.7846695-2.304762 2.1134256-4.631495 4.1349366-7.654193 5.2768682-1.028385.388557-1.994924.458761-2.920368-.2862945-.225411-.1813943-.601773-.4323838-.831863-.04545s-.757404.7361278-.35968 1.2606291c.813349 1.072742 1.710109 2.0722365 3.088612 2.4222422.736246.1868726 1.491412.276961 2.26855.2420619 2.538716-.113828 4.831475-.965407 6.813175-2.5208525 2.35257-1.8464067 4.523265-3.7193936 6.689485-5.7234551 2.068568-1.9133643 4.000833-3.9166142 5.897903-5.9896623 1.258677-1.3756745 2.371082-2.8582782 3.591717-4.2633735.524669-.6036329 1.096537-1.140917 1.633006-1.7400862.450617-.5033994.790564-1.097496 1.435669-1.3965733.645106-.2992802 1.419395-.2686421 2.112919-.3396577.575732-.0590444 1.137631-.1077409 1.701158-.1617128 1.126645-.1079437 2.2775-.2258297 3.39255-.3392518 1.369959-.1393936 2.832279-.3112515 4.150971-.4398912.656498-.064117.66545.1548141.44899.6488801-.975287 2.2264418-2.004892 4.3776072-2.967566 6.6367162-1.0589 2.4851418-2.018726 4.9073839-2.103967 7.6629938-.018106.5924734.05086 1.1273226.722006 1.3659352 1.833393.651112 3.541467.3922093 5.282092-.4924428 2.537293-1.2894411 4.597114-3.1437611 6.86017-4.8294695-.060014.0750736-.05208.1432487-.080155.2436851-.028074.1006393-.048011.1535967-.085444.2915699-.03723.1379733-.101109.3510202-.136304.5289651-.358053 1.8092757-.14729 3.5834494.999903 5.0924304.767576 1.0094366 2.113732 2.0501202 3.422252 2.1945863 1.477579.1631331 3.05708-.2763523 4.393064-.8803911 1.92372-.8696373 3.613893-2.2027024 5.275787-3.483013 1.730656-1.3330651 3.41798-2.7221311 5.058513-4.1641544.608893-.5352551 1.209242-1.0800465 1.804911-1.6297076-.725056 1.6451281-1.397219 3.3141986-1.967256 5.0305453-.4555 1.3712106-1.072327 2.6097235-.248806 4.0407901.445125.7736648.591194 1.8242905 1.722926 1.8961177 1.081279.0685809 1.228162-.9296962 1.524369-1.6264611.7631-1.7954784 1.29367-3.6749581 2.12187-5.4576537 1.983124-4.268446 3.869412-8.5809217 6.077743-12.7420327.366191-.6900691.728923-1.3815586 1.64745-1.4746905.988511-.1000306 1.972342-.2998889 2.961667-.326672 1.298755-.0353049 2.598527-.0355078 3.955263-.0231308 2.286858.0204931 1.083923-.5348492.658125-.6214883m-28.682675 2.0229313c.376158-.6429959.758624-1.2916731 1.157161-1.9269588.286849-.4573407.581022-.9075799.881502-1.3602539.300479-.452674.611945-.9096089.9228-1.3584278.310651-.4488189.630457-.9039277.947415-1.3460508.316755-.4421231.63473-.8893188.954537-1.3212968.320009-.431978.620896-.8659851.945992-1.2861948 2.447575-3.1620222 5.191562-5.9720098 8.082228-8.73654739.59689-.57076288 1.275156-1.0362197 2.029509-1.43147248.422339-.22136591.983424-.22197462 1.318895.21913398.404234.53139992.469334 1.06787239.072221 1.68570849-1.87347 2.9152936-4.216072 5.38258-6.772894 7.7358355-.066525.0612764-.13488.1201179-.201608.1801769-.430885.388557-.862582.7767082-1.293263 1.1656711-.430477.3889628-.860751.7785343-1.290618 1.1683087-.429663.3897745-.859123.7799547-1.288176 1.1703379-.429053.3903831-.857903.781172-1.286549 1.1717581-.428646.390586-.857089.781375-1.285328 1.171961-.428239.3903832-.857292.7815779-1.285125 1.1715552-.427629.3899774-.85892.7819837-1.284921 1.1705408-.212797.1943799-.43658.3956585-.64124.5847631-.204457.1893074-.374328.3717161-.613776.493863-.055946.0284063-.100702.0194786-.124912-.0194785-.024005-.0387543-.010578.0014203-.017495-.060059-.006917-.0612763.028278-.1649592.073645-.2428735m-27.686435-1.4864589c7.23165-7.4296566 14.294852-14.97476446 23.252479-20.37398242-.487033.61844481-.957384 1.19326572-1.445841 1.82347883-.488661.63001022-1.004176 1.25231016-1.479816 1.91174114-3.542079 4.91225355-6.708608 9.87563835-9.234101 15.40714835-.148714.3256574-.208525.7511426-.707561.7756937-3.432425.1690172-6.932798.3011063-10.38516.4559204m98.675288 4.1241828c-3.8924-4.1042984-8.953761-4.8207448-14.220596-4.6563943-6.289117.1960032-12.51476 1.103786-18.742234 1.9602347-1.060325.1458864-2.267533.6768805-3.229596.016435-1.620189-1.1119021-3.424084-.7042723-4.738911-.082581-4.803197 2.2706745-8.280581 6.0058944-10.573543 10.8138564-.966133 2.0255691-.719158 3.9862096.323264 5.8736025.604825 1.0952641 1.561395 1.7522603 2.871747 1.756927 1.895238-.0480877 3.509121-.6892575 4.946621-1.8884074 1.306486-1.0897858 2.49925-2.2970517 3.540044-3.6248414 2.345043-2.9917876 4.367227-6.1860713 5.535985-9.8383044.178009-.5561539.46852-.8195205.993393-.8895216 1.94915-.2607289 3.894231-.6673442 5.850705-.7349105 4.523876-.1564373 9.017032-.7679835 13.557385-.7231422 3.394382.0336817 6.754179.1371617 9.922539 1.449125 1.790264.7414033 3.503832 1.6911868 4.527944 3.4773317.121657.2120324.048622.636706.430884.5713716.382873-.0657402.419899-.4407028.429664-.7760995.033567-1.1674972-.707358-1.9478577-1.425295-2.7046816m-38.718326-.0046667c-1.403933 3.0307448-3.062369 5.9070813-5.076619 8.5809217-.969591 1.2872093-2.096237 2.4013433-3.403536 3.5073612-.382059.3232226-.965116.0259714-.937041-.4727613.057777-1.0279007.304141-1.9401474.67969-2.7489141 1.381352-2.9749468 3.361221-5.5741194 5.728438-7.8602144.712647-.6880401 1.627716-1.1545115 2.222166-1.9762639.202218-.2795987.391416-.1949887.607265-.0229279.354595.2826422.366394.5900385.179637.9927987"/></g></svg>