<svg id="Layer_1" data-name="Layer 1" xmlns="http://www.w3.org/2000/svg" viewBox="0 0 25.5 25.5"><defs><style>.cls-1{fill:#fff;}</style></defs><path class="cls-1" d="M12.75,25.5A12.75,12.75,0,1,1,25.5,12.75,12.76,12.76,0,0,1,12.75,25.5Zm0-24.5A11.75,11.75,0,1,0,24.5,12.75,11.76,11.76,0,0,0,12.75,1Z"/><rect class="cls-1" x="0.82" y="12.25" width="23.86" height="1"/><path class="cls-1" d="M12.75,21C5.72,21,0,17.29,0,12.75S5.72,4.51,12.75,4.51,25.5,8.21,25.5,12.75,19.78,21,12.75,21Zm0-15.48C6.27,5.51,1,8.76,1,12.75S6.27,20,12.75,20,24.5,16.74,24.5,12.75,19.23,5.51,12.75,5.51Z"/><rect class="cls-1" x="12.25" y="0.82" width="1" height="23.86"/><path class="cls-1" d="M12.75,25.5c-4.54,0-8.24-5.72-8.24-12.75S8.21,0,12.75,0,21,5.72,21,12.75,17.29,25.5,12.75,25.5Zm0-24.5c-4,0-7.24,5.27-7.24,11.75S8.76,24.5,12.75,24.5,20,19.23,20,12.75,16.74,1,12.75,1Z"/></svg>