<svg id="Layer_1" data-name="Layer 1" xmlns="http://www.w3.org/2000/svg" viewBox="0 0 195.26 60"><defs><style>.cls-1{fill:#fff;}.cls-2{fill:#ffef65;}.cls-3{fill:#0b4899;}.cls-4{fill:#e40e33;}</style></defs><path class="cls-1" d="M66.56,59.9H46.34a4.71,4.71,0,0,1-4.87-4.26,5.29,5.29,0,0,1,3.24-6.06,5,5,0,0,1,1.49-.2c4.65,0,9.3,0,13.95,0,1.25,0,1.27,0,1.27-1.28,0-.95,0-1.9,0-2.85s-.33-1.11-1.13-1.1c-3.2,0-6.4,0-9.59,0l-1.33,0A3.91,3.91,0,0,1,45.28,40c-.05-6.32-.07-12.64,0-19a4,4,0,0,1,4.29-4.16c8.38,0,16.77,0,25.16,0,1.56,0,1.56,0,1.57-1.59,0-1.2,0-2.4,0-3.6.05-.9-.27-1.27-1.19-1.23-1.14,0-2.28,0-3.42,0H50.16a4.64,4.64,0,0,1-4.89-4c-.53-2.75.68-5.34,3-6.23A4.34,4.34,0,0,1,49.8,0H82.46a3.7,3.7,0,0,1,3.82,3.23A9.68,9.68,0,0,1,86.43,5q0,8.82,0,17.63A5.26,5.26,0,0,1,85.52,26,3.33,3.33,0,0,1,83,27.41c-.5,0-1,0-1.51,0H57.14c-1.68,0-1.68,0-1.68,1.63,0,1.13,0,2.28,0,3.41,0,.91.29,1.22,1.19,1.2,3.33,0,6.65,0,10,0,5.64,0,11.27,0,16.9,0,2.7,0,4.21,1.33,4.85,4.14a5.37,5.37,0,0,1-2.69,5.93,4.33,4.33,0,0,1-1.75.34c-3.6,0-7.21,0-10.82.07-1.35,0-1.35,0-1.36,1.39,0,.92,0,1.84,0,2.75s.23,1.1,1.08,1.09c4.62,0,9.24.06,13.86,0a4.68,4.68,0,0,1,4.79,3.13A5.92,5.92,0,0,1,89.9,59a4.85,4.85,0,0,1-3.11.95c-6.74,0-13.48,0-20.23,0"/><path class="cls-1" d="M12.43,25.64l3.9-8.29c2.43-5.21,4.87-10.41,7.28-15.62A2.46,2.46,0,0,1,26.12.12c2.15.05,4.31.12,6.46,0C35.2-.06,35.88,2,34.86,3.94,31.13,11,27.47,18.17,23.78,25.29c-1.2,2.31-1.2,2.3-.09,4.66Q29.84,43,36,56.08a4.29,4.29,0,0,1,.46,1.62,2,2,0,0,1-2.05,2.12c-2.94,0-5.89,0-8.83,0a2.07,2.07,0,0,1-2-1.47Q19,47.48,14.45,36.61c-.67-1.61-1.36-3.22-2-4.83l-.27,0c0,.41-.12.82-.12,1.23V51.82a8.68,8.68,0,0,1-1.4,5.12,6.19,6.19,0,0,1-5.17,2.88c-1.11,0-2.22,0-3.32,0A2,2,0,0,1,0,57.72c0-.29,0-.57,0-.85V3.49A11.14,11.14,0,0,1,0,2.07C.16,1.2.54.39,1.47.27,3.57,0,5.74-.23,7.74.65,10.83,2,12,4.68,12,7.87c.05,5.5,0,11,0,16.5,0,.41.07.83.11,1.25l.3,0"/><path class="cls-1" d="M167.85,59.63h-17c-2.72,0-4.24-1.47-4.25-4.2,0-5.24,0-10.48,0-15.73a3.85,3.85,0,0,1,4.21-4.17c11.33,0,22.66,0,34,0a3.93,3.93,0,0,1,4.28,4.06q.15,8,0,16c-.05,2.65-1.68,4-4.35,4H167.85m0-10c3.35,0,6.71,0,10.06,0,.78,0,1.09-.26,1-1a12,12,0,0,1,0-2c.07-.88-.29-1.13-1.15-1.12-4.87,0-9.74,0-14.61,0-1.83,0-3.66,0-5.5,0-.68,0-1,.24-1,.94a20.62,20.62,0,0,1,0,2.08c-.06.87.31,1.14,1.17,1.13,3.32,0,6.64,0,10,0"/><path class="cls-1" d="M159.26,32.25c-3.95,0-7.91-.09-11.86,0a3.92,3.92,0,0,1-4.33-3.88,13.78,13.78,0,0,1,.4-4,3.23,3.23,0,0,1,2.88-2.29c.63-.09.87-.33.87-1,0-2.56,0-5.12,0-7.68,0-.48-.09-.83-.69-.94a3.62,3.62,0,0,1-3.39-3.47,19.53,19.53,0,0,1,.09-4.52,3.49,3.49,0,0,1,3.58-3q12.52,0,25.06,0a3.61,3.61,0,0,1,3.63,3.32,29.91,29.91,0,0,1,0,4.44,3.62,3.62,0,0,1-3.22,3.23c-.71.07-.91.37-.9,1,0,2.53,0,5.06,0,7.58,0,.62.2.88.84,1a3.73,3.73,0,0,1,3.32,3.77,13.55,13.55,0,0,1-.42,4.18,3.24,3.24,0,0,1-3.41,2.21c-4.14,0-8.29,0-12.43,0m2.57-15c0-1.29,0-2.59,0-3.88,0-.6-.21-.86-.83-.85-1.11,0-2.22,0-3.32,0-.6,0-.87.21-.87.82,0,2.62,0,5.24,0,7.86,0,.61.22.86.84.84,1.1,0,2.21,0,3.32,0,.67,0,.87-.27.86-.9,0-1.3,0-2.59,0-3.89"/><path class="cls-1" d="M118.45,25.84c-1.42,2.58-2.66,5.1-4.16,7.46-1.78,2.79-3.74,5.46-5.72,8.12a7.24,7.24,0,0,1-4.39,3.12,15.49,15.49,0,0,1-5,.11c-2-.33-3-3.36-1.63-5.29s3-4,4.5-6a56.65,56.65,0,0,0,9.13-17.23,42.36,42.36,0,0,0,2-10,3.3,3.3,0,0,0-.84-2.69A2,2,0,0,1,112,.89a2,2,0,0,1,1.32-.83c2.24-.08,4.49-.07,6.73,0a3.86,3.86,0,0,1,3.41,3.81,44.64,44.64,0,0,0,1.44,9.62,54.72,54.72,0,0,0,9,18.72c1.7,2.28,3.45,4.52,5.14,6.8a3.7,3.7,0,0,1-1,5.51,1.59,1.59,0,0,1-.53.21c-3.16.3-6.18.23-8.55-2.42A60.67,60.67,0,0,1,122,32.36c-1.11-1.91-2.06-3.9-3.1-5.85a7.29,7.29,0,0,0-.43-.67"/><path class="cls-1" d="M118.8,60c-6.74,0-13.48-.07-20.22,0a4.53,4.53,0,0,1-4.89-4.87c.07-2.61,1-4.16,3.1-4.85a4.35,4.35,0,0,1,1.3-.18h41.58A4.17,4.17,0,0,1,144,54.37a9,9,0,0,1-.25,2.8A4.08,4.08,0,0,1,139.68,60H118.8"/><path class="cls-1" d="M179.06,17.75c0-3.92,0-7.83,0-11.75a2.94,2.94,0,0,0-.74-2.17,5.94,5.94,0,0,1-.66-.92A1.83,1.83,0,0,1,179.31,0h5.32c2.84,0,4.44,1.55,4.49,4.42,0,2.5,0,5,0,7.49,0,.93.25,1.31,1.23,1.27a6.86,6.86,0,0,1,2.52.26c1.67.6,2.68,2.81,2.32,4.74a3.94,3.94,0,0,1-3.94,3.41c-2.12,0-2.12,0-2.12,2.1s.05,4.11,0,6.16c-.07,1.85-.76,3.57-2.7,4a11.43,11.43,0,0,1-4.66,0c-1.75-.36-2.67-2-2.68-4.12,0-4,0-8,0-12Z"/><path class="cls-2" d="M34.45,34.59A6.34,6.34,0,0,1,28,28.15a6.43,6.43,0,1,1,12.85,0,6.36,6.36,0,0,1-6.36,6.48m5.4-6.44a5.47,5.47,0,1,0-5.52,5.55,5.5,5.5,0,0,0,5.52-5.55"/><path class="cls-3" d="M34.37,28.27c-1.71,2.2-4.9,2.08-5.37-1.11a6.35,6.35,0,0,0-.09,1.07,5.46,5.46,0,0,0,10.85.91c-.46-3.17-3.68-3.08-5.39-.87"/><path class="cls-4" d="M34.39,22.56A5.44,5.44,0,0,0,29,27.16c.47,3.19,3.66,3.31,5.37,1.11s4.93-2.3,5.39.87a5.36,5.36,0,0,0,.09-1,5.49,5.49,0,0,0-5.46-5.59"/></svg>