<svg id="Layer_1" data-name="Layer 1" xmlns="http://www.w3.org/2000/svg" viewBox="0 0 60 60"><defs><style>.cls-1{fill:#fff;}.cls-2{fill:#961916;}</style></defs><path class="cls-1" d="M60,30A30,30,0,1,1,30,0,30,30,0,0,1,60,30"/><path class="cls-2" d="M19.37,45.7a3,3,0,0,1-3-3.63L20.5,21.54a3.35,3.35,0,0,1,3.28-2.69H36.22a3.37,3.37,0,0,1,3.29,2.69l4.1,20.53a3,3,0,0,1-3,3.63Zm4.41-24.11a.61.61,0,0,0-.59.49L19.08,42.61a.26.26,0,0,0,.06.24.28.28,0,0,0,.23.11H40.63a.28.28,0,0,0,.23-.11.26.26,0,0,0,.06-.24L36.81,22.08a.61.61,0,0,0-.59-.49Z"/><rect class="cls-2" x="18.56" y="37.35" width="23.53" height="2.75"/><path class="cls-2" d="M27.08,24.52a1.38,1.38,0,0,1-1.38-1.38V20.75a6.49,6.49,0,0,1,3.62-7.93,1.42,1.42,0,0,1,.57-.12,1.36,1.36,0,0,1,1.25.8,1.32,1.32,0,0,1,0,1.05,1.36,1.36,0,0,1-.72.77,3.77,3.77,0,0,0-2.08,4.8l.07.2v2.82a1.37,1.37,0,0,1-1.37,1.38"/><path class="cls-2" d="M32.92,24.52a1.37,1.37,0,0,1-1.37-1.38v-2.6a1.38,1.38,0,0,1,2.75,0v2.6a1.38,1.38,0,0,1-1.38,1.38"/></svg>