<svg id="Layer_1" data-name="Layer 1" xmlns="http://www.w3.org/2000/svg" viewBox="0 0 60 60"><defs><style>.cls-1{fill:#fff;}.cls-2{fill:#961916;}</style></defs><path class="cls-1" d="M60,30A30,30,0,1,1,30,0,30,30,0,0,1,60,30"/><path class="cls-2" d="M39.44,44.17H17.8c-2.83,0-5-2.48-5-5.77V31.6a1.37,1.37,0,0,1,2.74,0v6.8c0,1.71.89,3,2.14,3,.14-.06,1.12-.49,1.12-3.13V20a4.2,4.2,0,0,1,4.2-4.2H43a4.2,4.2,0,0,1,4.2,4.2v16.4a7.74,7.74,0,0,1-7.73,7.74M21.06,41.43H39.44a5,5,0,0,0,5-5V20A1.47,1.47,0,0,0,43,18.57H23A1.47,1.47,0,0,0,21.57,20V38.3a8.54,8.54,0,0,1-.51,3.13"/><rect class="cls-2" x="23.87" y="30.01" width="17.6" height="2.37"/><rect class="cls-2" x="23.87" y="36.41" width="17.6" height="2.37"/><rect class="cls-2" x="23.87" y="21.13" width="17.6" height="5.6"/></svg>