<svg id="Layer_1" data-name="Layer 1" xmlns="http://www.w3.org/2000/svg" viewBox="0 0 60 60"><defs><style>.cls-1{fill:#fff;}.cls-2{fill:#961916;}</style></defs><path class="cls-1" d="M60,30A30,30,0,1,1,30,0,30,30,0,0,1,60,30"/><path class="cls-2" d="M41.27,16h.25a1.05,1.05,0,0,1,.81.75,1.92,1.92,0,0,1,.15.71c0,2.85,0,5.69,0,8.54,0,.15,0,.21.2.25a3.83,3.83,0,0,1,2.81,2.85c0,.18.07.37.11.56v.7l0,.11a3.9,3.9,0,0,1-2.88,3.3c-.15,0-.21.09-.21.26q0,4.6,0,9.21c0,.36-.08.46-.41.59l-.52.19h-.29a1.56,1.56,0,0,1-.77-.52A19,19,0,0,0,32,38.05a23.84,23.84,0,0,0-4.25-.91A13.55,13.55,0,0,0,26.22,37c-.86,0-1.72,0-2.58,0h-.22c0,.34,0,.65.09,1a4.63,4.63,0,0,0,1,2.38,3.83,3.83,0,0,0,3,1.38.82.82,0,0,1,.86.62,1.6,1.6,0,0,1,0,.92.84.84,0,0,1-1,.71,4.59,4.59,0,0,1-1.74-.46,7.78,7.78,0,0,1-3.13-2.78A6.76,6.76,0,0,1,21.35,37c0-.12-.08-.11-.15-.12a8.8,8.8,0,0,1-4.86-2.42,6.36,6.36,0,0,1-1.83-3.32c0-.23-.07-.46-.11-.68v-.93l0-.14a6.79,6.79,0,0,1,1-3.12,6.93,6.93,0,0,1,3.91-2.93A6.09,6.09,0,0,1,20.94,23c1.39,0,2.79,0,4.18,0a22,22,0,0,0,4.13-.32,20.81,20.81,0,0,0,4.33-1.23,18.79,18.79,0,0,0,6.89-4.9,1.51,1.51,0,0,1,.8-.56m-1,3.45h0l-.12.1a19.33,19.33,0,0,1-4.47,3.13,24,24,0,0,1-8.41,2.47c-.17,0-.19.08-.19.22v9.15a.33.33,0,0,1,0,.1c0,.09,0,.12.12.13a25.71,25.71,0,0,1,3.49.6,23.09,23.09,0,0,1,6.06,2.32,12.89,12.89,0,0,1,3.47,2.76l.09.08ZM24.65,25.3c-.63,0-1.24,0-1.85,0a13.79,13.79,0,0,0-1.7,0,5.15,5.15,0,0,0-3.69,2.21,4,4,0,0,0-.75,3.1,4.23,4.23,0,0,0,1.12,2.24,5.11,5.11,0,0,0,3.62,1.76c1.05,0,2.1,0,3.15,0h.1Zm17.84,6.86A2.3,2.3,0,0,0,44,29.81c-.09-.91-.88-1.93-1.54-2Z"/></svg>