<svg id="Layer_1" data-name="Layer 1" xmlns="http://www.w3.org/2000/svg" viewBox="0 0 221.81 62.27"><defs><style>.cls-1{fill:#fff;}</style></defs><path class="cls-1" d="M217.66,39.57a9.49,9.49,0,0,0,.88-4,9.59,9.59,0,0,0-2.14-6.05,8.75,8.75,0,0,0,2.07-5.07,4.26,4.26,0,0,0,0-.5V10.91c-.2-6.15-5.53-9.37-10.68-9.37H173.36l-.45,0a9.6,9.6,0,0,0-6.24,2.3,10.91,10.91,0,0,0-16.24-.38,9.29,9.29,0,0,0-5.23-2.09l-.27,0-.39,0H119.13A9.65,9.65,0,0,0,109.05,11c0,.26,0,.51,0,.76V25.56a65.68,65.68,0,0,1-7.42-5.26c-.11-.1-1.64-1.5-1.9-1.75l-.07-.06h0a14,14,0,0,1-2.37-3,3.39,3.39,0,0,0-.32-.66,14.84,14.84,0,0,1-.11-2.63c0-.26,0-.52,0-.79,0-.06,0-.35,0-.4a11.11,11.11,0,0,0-22.21,0v.41c0,.28,0,.55,0,.82a14.26,14.26,0,0,1-.12,2.61,3,3,0,0,0-.31.65,14.1,14.1,0,0,1-2.38,3h0l0,.05-1,.95a9.67,9.67,0,0,0-8-6.47V11.28c0-.1,0-.21,0-.3a10.43,10.43,0,0,0-.13-1.64l0-.23c0-.27-.1-.53-.17-.81a10.39,10.39,0,0,0-2.58-4.77A11,11,0,0,0,51.87,0a11.49,11.49,0,0,0-1.95.17,10.13,10.13,0,0,0-5,2.21,9.6,9.6,0,0,0-4.11-.93H9.64a9.64,9.64,0,0,0-4,18.42V33.73c0,.15,0,.3,0,.45a10.89,10.89,0,0,0,.85,4.19,9.63,9.63,0,0,0,3,18.74H41.25A9,9,0,0,0,42.53,57a10.85,10.85,0,0,0,4.58,4.16l.24.11.34.15a11.06,11.06,0,0,0,4,.9h.09a10.5,10.5,0,0,0,6.93-2.47,11,11,0,0,0,2.74-3.27,9.45,9.45,0,0,0,3.23.61h42.57a9.5,9.5,0,0,0,4.65-1.44,9.45,9.45,0,0,0,5,1.44H146.8l.4,0a9.54,9.54,0,0,0,1.78-.24,10.94,10.94,0,0,0,18.78,0,9.31,9.31,0,0,0,2.25.29h42.16l.4,0a9.64,9.64,0,0,0,5.09-17.55M41.06,14.75s-2.33.32-2.33,2.22V26.9s-.22,5.47-2.12,8.38c0,0-1.27,2-2.73,4l-.22.3a26.3,26.3,0,0,1-2.34,2.83s-1.36,1.28.17,1.45h9.33a3.64,3.64,0,0,1,0,7.28H9.62a3.64,3.64,0,0,1,0-7.28h8a11.34,11.34,0,0,0,6.8-4.28l.22-.3a10.28,10.28,0,0,0,.66-1A22.13,22.13,0,0,0,28.87,27V18.23h0a3.62,3.62,0,0,0-3.48-3.49h-.29a3.64,3.64,0,0,0-3.5,3.63c0,.07,0,.14,0,.21V34.27h0a5,5,0,0,1-4.29,4.84,5.06,5.06,0,0,1-.68,0,5.21,5.21,0,0,1-.69,0,5,5,0,0,1-4.29-4.93,2.65,2.65,0,0,1,0-.27V17a2.12,2.12,0,0,0-1.42-2.23H9.62a3.64,3.64,0,0,1,0-7.28l.23,0H40.6l.22,0a3.64,3.64,0,1,1,0,7.28h.24Zm32.8,10.12,2.2-2,.15-.15a17.63,17.63,0,0,0,3.62-4.89c.94-1.34.94-4.19.9-5.95a4,4,0,0,1,0-.49v-.19h0A5.07,5.07,0,0,1,85.77,6.3h.09a5.06,5.06,0,0,1,5.06,4.88v0s0,.1,0,.15a4,4,0,0,1,0,.49c0,1.76,0,4.61.91,5.95a17.36,17.36,0,0,0,3.62,4.89c0,.05.09.1.15.15l2.19,2a81.85,81.85,0,0,0,9.32,6.53s3.76,2.55,2.08,5.71a4.14,4.14,0,0,1-3.5,2.06,6.75,6.75,0,0,1-3-.73c-5.78-3-9.26-5.84-14.16-10.28A4.3,4.3,0,0,0,86,26.82h-.29a4.33,4.33,0,0,0-2.54,1.34A61.44,61.44,0,0,1,69,38.44a6.78,6.78,0,0,1-3,.73,4.16,4.16,0,0,1-3.51-2.06C60.79,34,64.55,31.4,64.55,31.4a80.66,80.66,0,0,0,9.31-6.53M58.33,26.26a1.52,1.52,0,0,0-1.46,1.54c0,.69,0,6.67,0,11.46v.3c0,1.77,0,5.59,0,7v4.76h0a5,5,0,0,1-2,3.86,4.47,4.47,0,0,1-3.1,1.1A5.11,5.11,0,0,1,50,55.82l-.1,0-.12-.06a5,5,0,0,1-2.85-4.49c0-.09,0-.18,0-.26,0-.33,0-.69,0-1.07V11.41a5.28,5.28,0,0,1,.06-.69,4.83,4.83,0,0,1,.71-2.32,4.2,4.2,0,0,1,3.26-2.3,5.33,5.33,0,0,1,1-.09,5,5,0,0,1,3.7,1.64,4.3,4.3,0,0,1,1.11,2.06c0,.14.07.29.09.45l0,.08a4.52,4.52,0,0,1,.06.74s0,.07,0,.12v6.3A1.66,1.66,0,0,0,58.21,19h3.51a3.63,3.63,0,0,1,3.64,3.64v.09a.47.47,0,0,0,0,.16,0,0,0,0,1,0,0,3.63,3.63,0,0,1-3.54,3.35v0Zm48.53,24.88H64.78a3.65,3.65,0,0,1,0-7.29h42.07a3.65,3.65,0,0,1,0,7.29m39.94,0H117a3.64,3.64,0,0,1,0-7.28h7.77c.76,0,2.21-.35,2.21-1.92V41.3a2.32,2.32,0,0,0-.4-1.29h0a1.51,1.51,0,0,0-1.24-.75h-6.73a3.55,3.55,0,0,1-3.45-3.69V30.43l0-.8V10.7a2.36,2.36,0,0,1,0,.44,1.33,1.33,0,0,1,0-.17,3.72,3.72,0,0,1,4.08-3.65h25.52a3.89,3.89,0,0,1,3.53,3.91,3.41,3.41,0,0,1-3.64,3.36h-18a2.31,2.31,0,0,0-2,2.52s.15,2.59,2.2,2.59h17.78a3.62,3.62,0,0,1,3.57,3,3.5,3.5,0,0,1,.07.65,3.19,3.19,0,0,1-.06.55,0,0,0,0,1,0,0,3.88,3.88,0,0,1-3.57,3.36H126.84a2.62,2.62,0,0,0-2.3,2.73,2.2,2.2,0,0,0,2.19,2.07h17.81a3.77,3.77,0,0,1,3.64,3.8,3.42,3.42,0,0,1-3.66,3.36h0v0H139a3.62,3.62,0,0,0-1.54.75c-.46.39-.83.53-.83,1.41V42s0,1.81,2.47,1.91h7.66a3.64,3.64,0,1,1,0,7.28m16.54-28.61h0V51.3h0a5,5,0,0,1-9.94-.08,2.44,2.44,0,0,1,0-.27V37.57h0V10.89h0a5,5,0,0,1,10,.09,2.46,2.46,0,0,1,0,.26V22.52Zm5.75.18a3.2,3.2,0,0,1,3.55-2.91h28l.13,0a2.5,2.5,0,0,0-.13-5l-.19,0H172.91a3.64,3.64,0,1,1,0-7.28l.15,0h34.75s4.57,0,4.68,3.57V24c0,.42-.34,2.94-4.13,2.89H180.79a2.51,2.51,0,0,0,.1,5h28a3.63,3.63,0,0,1,.28,7.26v0H173s-3.91-.07-3.91-3.2V23.14a2.37,2.37,0,0,1,0-.44m43.08,28.43H170.09a3.64,3.64,0,0,1,0-7.28h42.06a3.64,3.64,0,1,1,0,7.28"/></svg>