<svg id="Layer_1" data-name="Layer 1" xmlns="http://www.w3.org/2000/svg" viewBox="0 0 219.47 59.98"><defs><style>.cls-1{fill:#fff;}.cls-2{fill:#e30d1c;}.cls-3{fill:#009f48;}.cls-4{fill:#0784c7;}</style></defs><path class="cls-1" d="M57,57.65l-.11.06-.17.17.28-.23M48.82.19h0l.13,0,.1,0-.24,0m9,2.9a.24.24,0,0,1,.06.08.73.73,0,0,1,.09.08s-.09-.11-.15-.16M215,38.83a8.34,8.34,0,0,0,1.25-4.38,8.45,8.45,0,0,0-2.55-6.05,7.72,7.72,0,0,0,2.49-5.22c0-.09,0-.26,0-.35v-13c-.18-5.43-4.93-8.27-9.54-8.27H171.87a8.65,8.65,0,0,0-6.5,2.87,9.79,9.79,0,0,0-16-.49,8.34,8.34,0,0,0-5.72-2.59c-.15,0-.73,0-.88,0l.55,0H118a8.5,8.5,0,0,0-8.89,8h0c0,.15,0,.31,0,.47s0,.13,0,.2V26.55c-.14-.1-.27-.22-.41-.31A76.73,76.73,0,0,1,99.77,20l-2-1.84.09.1-.06-.06a.1.1,0,0,1,0-.05l0,0a13.56,13.56,0,0,1-2.63-3.42l-.29-.52a8.84,8.84,0,0,1-.22-2.6c0-.24,0-.5,0-.78,0,0,0,.3,0,.34l0-.93s0-.3,0-.36a10,10,0,0,0-19.91,0v.37l0,1.06c0-.06,0-.42,0-.48,0,.28,0,.53,0,.77a8.94,8.94,0,0,1-.22,2.63c-.12.21-.25.44-.28.51a14.49,14.49,0,0,1-2.64,3.43l-.06.08-.09.08.08-.08-2,1.8-.54.43A8.52,8.52,0,0,0,60.56,13h0v-3c0-.2-.11-1.57-.11-1.57s-.19-1-.19-1a9.08,9.08,0,0,0-2.33-4.24A9.86,9.86,0,0,0,50.72,0L49,.17a8.94,8.94,0,0,0-5,2.47,8.41,8.41,0,0,0-4.3-1.19l-.3,0H8.81l-.31,0A8.48,8.48,0,0,0,5.65,17.93V32.68c0,.15,0,.36,0,.36A9.79,9.79,0,0,0,7,38,8.49,8.49,0,0,0,8.46,54.82H39.67A8.43,8.43,0,0,0,42,54.5,9.86,9.86,0,0,0,46.52,59l.34.16a9.91,9.91,0,0,0,3.71.86,9.4,9.4,0,0,0,6.3-2.27,10,10,0,0,0,2.89-3.81,8.51,8.51,0,0,0,3.83,1H105.7a8.4,8.4,0,0,0,5-1.69,8.32,8.32,0,0,0,5,1.68h29.86a8.56,8.56,0,0,0,2.74-.46A9.8,9.8,0,0,0,166,54.32a8.29,8.29,0,0,0,2.86.52H211a8.51,8.51,0,0,0,4-16M5.66,15.63h0a2.28,2.28,0,0,1,0-.26c0,.09,0,.17,0,.26m17.2,1.66s0,0,0,0v0c0-.05,0-.11,0-.16Zm74.9.89h0"/><path class="cls-2" d="M72.7,23.73a81.29,81.29,0,0,1-9.3,6.53s-3.77,2.55-2.09,5.7c0,0,1.8,3.55,6.51,1.33A61.4,61.4,0,0,0,82,27a4.3,4.3,0,0,1,2.54-1.34h.29A4.3,4.3,0,0,1,87.34,27c4.9,4.43,8.37,7.31,14.15,10.27C106.2,39.51,108,36,108,36c1.68-3.15-2.08-5.7-2.08-5.7a80.66,80.66,0,0,1-9.31-6.53l-2.2-2-.15-.15H75.05l-.15.15-2.2,2"/><path class="cls-3" d="M152.22,38.41h0V49.8a2.44,2.44,0,0,0,0,.27,5,5,0,0,0,9.94.08h0v-12h-9.93Z"/><polygon class="cls-2" points="162.15 22.65 162.15 21.56 152.21 21.56 152.21 22.65 152.21 22.68 152.21 36.42 152.22 36.42 152.22 38.12 162.15 38.12 162.15 22.68 162.15 22.65"/><path class="cls-2" d="M167.88,22.87v12c0,3.12,3.9,3.19,3.9,3.19H208v0a3.63,3.63,0,0,0-.28-7.25h-28a2.51,2.51,0,0,1-.1-5h27.56c3.79.05,4.11-2.47,4.13-2.89V21.56H167.9a2.74,2.74,0,0,0,0,.43Z"/><path class="cls-3" d="M125.37,38.86h0a2.31,2.31,0,0,1,.41,1.3v.64c0,1.56-1.45,1.86-2.21,1.91H115.8a3.64,3.64,0,0,0,0,7.28h29.85a3.64,3.64,0,1,0,0-7.28H138c-2.47-.1-2.47-1.91-2.47-1.91v-.53c0-.87.38-1,.84-1.41a3.49,3.49,0,0,1,1.53-.74H124.14a1.49,1.49,0,0,1,1.23.74"/><path class="cls-2" d="M143.3,38.1h0A3.43,3.43,0,0,0,147,34.73a3.78,3.78,0,0,0-3.64-3.8h-17.8a2.19,2.19,0,0,1-2.19-2.07,2.61,2.61,0,0,1,2.3-2.72h17.62a3.88,3.88,0,0,0,3.57-3.36,0,0,0,0,0,0,0,3.31,3.31,0,0,0,.06-.55,3.5,3.5,0,0,0-.07-.65H113.92v6.93l0,.79v5.14a3.55,3.55,0,0,0,3.45,3.68H124l.14,0h13.72l.08,0Z"/><path class="cls-3" d="M211,42.7H168.92a3.64,3.64,0,0,0,0,7.28H211a3.64,3.64,0,1,0,0-7.28"/><path class="cls-3" d="M105.7,42.7l-.23,0H63.86l-.22,0a3.65,3.65,0,0,0,0,7.29H105.7a3.65,3.65,0,0,0,0-7.29"/><path class="cls-2" d="M10.51,22.68V32.77c0,.09,0,.18,0,.27A5,5,0,0,0,14.79,38a5.19,5.19,0,0,0,.68,0,5,5,0,0,0,5-4.89h0V21.56H10.51v1.12Z"/><path class="cls-3" d="M45.71,38.41h0V48.76c0,.37,0,.72,0,1.06,0,.08,0,.17,0,.26a5,5,0,0,0,2.85,4.49l.11,0,.11.05a5.11,5.11,0,0,0,1.82.45,4.47,4.47,0,0,0,3.1-1.1,5,5,0,0,0,1.95-3.86h0v-12h-10Z"/><path class="cls-2" d="M57.17,25.11h3.46a3.64,3.64,0,0,0,3.55-3.35v0a.88.88,0,0,1,0-.16H45.71V38.12h10c0-4.8,0-10.77,0-11.46a1.51,1.51,0,0,1,1.45-1.55"/><path class="cls-3" d="M23.27,38.41h0a11.32,11.32,0,0,1-6.8,4.28h-8a3.64,3.64,0,0,0,0,7.28H39.67a3.64,3.64,0,0,0,0-7.28H30.34c-1.53-.17-.17-1.44-.17-1.44a25.36,25.36,0,0,0,2.34-2.84c.08-.09.15-.2.23-.29H23.49c-.07.09-.14.2-.22.29"/><path class="cls-2" d="M37.58,25.76v-4.2H27.72v4.31a22.17,22.17,0,0,1-3.57,11.28c-.21.35-.43.66-.66,1h9.25c1.45-2,2.72-4,2.72-4,1.9-2.9,2.12-8.37,2.12-8.37"/><path class="cls-4" d="M20.45,17.44a1.48,1.48,0,0,1,0-.21,3.63,3.63,0,0,1,3.49-3.63h.29a3.63,3.63,0,0,1,3.49,3.49h0v4.47h9.86V15.83c0-1.9,2.33-2.22,2.33-2.22h-.24a3.64,3.64,0,1,0,0-7.27H8.5a3.64,3.64,0,0,0,0,7.27H9.1a2.12,2.12,0,0,1,1.41,2.23v5.73h9.94Z"/><path class="cls-4" d="M90.64,16.67c-.94-1.34-.94-4.19-.9-6a3.93,3.93,0,0,0,0-.49v-.18A5.06,5.06,0,0,0,84.7,5.17h-.09a5.06,5.06,0,0,0-5.06,4.88h0v0c0,.05,0,.1,0,.15a3.91,3.91,0,0,0,0,.49c0,1.76,0,4.61-.9,6a17.63,17.63,0,0,1-3.62,4.89H94.27a17.56,17.56,0,0,1-3.63-4.89"/><path class="cls-4" d="M64.21,21.47a3.64,3.64,0,0,0-3.65-3.64h-3.5a1.66,1.66,0,0,1-1.37-1.56V9.84a4.52,4.52,0,0,0-.06-.74s0-.06,0-.08-.06-.3-.1-.45a4.3,4.3,0,0,0-1.11-2.06,5,5,0,0,0-3.69-1.64,5.44,5.44,0,0,0-1,.09,4.19,4.19,0,0,0-3.25,2.3,5,5,0,0,0-.72,2.33,6.07,6.07,0,0,0,0,.68V21.56H64.2s0-.06,0-.09"/><path class="cls-4" d="M143.29,18.57H125.51c-2.05,0-2.2-2.59-2.2-2.59a2.32,2.32,0,0,1,2-2.52h18.05A3.41,3.41,0,0,0,147,10.09a3.88,3.88,0,0,0-3.53-3.9H118a3.72,3.72,0,0,0-4.08,3.65c0,.19,0,.35,0-.27v12h32.94a3.64,3.64,0,0,0-3.57-3"/><path class="cls-4" d="M162.15,21.38h0V10.1c0-.08,0-.17,0-.26a5,5,0,0,0-9.94-.09h0V21.56h9.94Z"/><path class="cls-4" d="M211.29,10c-.11-3.57-4.68-3.57-4.68-3.57H171.87l-.15,0a3.64,3.64,0,1,0,0,7.28h27.56l.19,0a2.5,2.5,0,0,1,.12,5l-.12,0h-28a3.21,3.21,0,0,0-3.55,2.91h43.39Z"/></svg>