<svg id="Layer_1" data-name="Layer 1" xmlns="http://www.w3.org/2000/svg" viewBox="0 0 227.13 105.82"><defs><style>.cls-1{fill:#fff;}</style></defs><path class="cls-1" d="M175.82,39.52c-1.35-.06-1.93.55-1.92,1.82,0,3-.08,6,.11,8.92.1,1.65,1.2,2.59,3,2.7,2,.12,4-.23,4.15-2.41.31-3.76.08-7.55.08-11-2.07,0-3.75.06-5.42,0"/><path class="cls-1" d="M227,26c-.7-4.66-4.51-7.8-9.48-7.8a11.35,11.35,0,0,0-1.44.1V13.54c0-1.73,0-3.46,0-5.19a8,8,0,0,0-7.9-8.29Q206.85,0,205.56,0c-.83,0-1.68,0-2.5.05a8.56,8.56,0,0,0-8,8.33v.26A9.11,9.11,0,0,0,188.1,6c-.53,0-1,0-1.5,0s-.67,0-1,0a8.66,8.66,0,0,0-8.67,7.52,10.77,10.77,0,0,0-4.48-3.63A9.71,9.71,0,0,0,168.25,9a14.87,14.87,0,0,0-3.73.56l-.45.1A8.73,8.73,0,0,0,159,12.5a7.11,7.11,0,0,0-3.15-4.67,11.19,11.19,0,0,0-6.55-1.89c-.62,0-1.23,0-1.76.06s-.89,0-1.32,0c-5.16,0-8.12,3-8.12,8.21v2.39a12.23,12.23,0,0,0-7.72-3.2,8.49,8.49,0,0,0-2,.25c-3.8,1-6.72,1.59-9.49,2s-5.4.71-8.26,1l-3.74.41c-.28,0-.55.08-.83.14l-3.14.65c-2.37.5-4.81,1-7.2,1.44a11.45,11.45,0,0,0-6,3.35c0-.11-.08-.22-.13-.34-1.23-2.65-5-5.51-10.45-5.51a12.4,12.4,0,0,0-3.09.38,7.1,7.1,0,0,0-5.17,4.33l-.22-.1L70,21.13a8.56,8.56,0,0,0-2.83-1L66,20a18.26,18.26,0,0,0-3.32-.38,9.19,9.19,0,0,0-9.22,9.16v.4c-2.3-1.56-5.08-1.61-6.71-1.64l-.89,0h-.18a4.58,4.58,0,0,0-.9.09c-.81.16-1.61.34-2.42.52-1.74.38-3.38.74-5,1-2.38.35-4.85.63-7.25.89l-3.31.37a7.21,7.21,0,0,0-1,.19l-2.71.65c-2.22.54-4.53,1.1-6.8,1.7l-.88.22a18.92,18.92,0,0,0-5.1,1.82A20.41,20.41,0,0,0,.52,49,24.56,24.56,0,0,0,3.59,66.82c3,5,8.43,8,14.83,8.35.61,0,1.25,0,1.9,0,1,0,2,0,3-.1a11.59,11.59,0,0,0-.21,2c0,.47,0,1,0,1.42,0,.85,0,1.72,0,2.6a18.48,18.48,0,0,0-2,.28c-4,.79-7.22,1.47-10.17,2.14l-.36.09A17.83,17.83,0,0,0,5.4,85.42a7.81,7.81,0,0,0-3.68,4.87,11.9,11.9,0,0,0,1.62,8.95c1.88,3.13,6.8,3.81,8.54,3.81a7.32,7.32,0,0,0,1.87-.22c2.77-.72,5.74-1.45,8.67-2,2.46-.41,4.91-.71,7.51-1l3.42-.43c.24,0,.48-.08.74-.13l3.18-.63c2.47-.48,5-1,7.56-1.54,2.21-.5,4.39-1.07,6.51-1.63L53.45,95l.1,0c0,.75,0,1.48,0,2.23a8.59,8.59,0,0,0,1,3.55l.07.15c1.57,3.3,4.37,5,8.32,5,.55,0,1.08,0,1.55,0s.74,0,1,0a7.37,7.37,0,0,0,7.17-4.57,10.63,10.63,0,0,0,6.82,2.35,14.28,14.28,0,0,0,4.51-.76,8.63,8.63,0,0,0,6.11-8.23c0-4,0-8,0-12,2,4.77,5.31,5.8,7.78,5.8a12.6,12.6,0,0,0,4.59-1,29.25,29.25,0,0,0,14.33-11.53h0c3.43,3.43,9,7.1,14,7.1l.91,0a10.16,10.16,0,0,0,6.31-2.64c0,1,0,2,0,3A8.75,8.75,0,0,0,141.32,90a12.67,12.67,0,0,0,7.5,2.47,12.88,12.88,0,0,0,2.14-.18,9.39,9.39,0,0,0,8.2-9.79q0-13.19,0-26.37A18.72,18.72,0,0,0,160.63,59a19.27,19.27,0,0,0,15.26,8.85c4.3.25,10.7-.48,14.11-3.38a23.36,23.36,0,0,0,5-5.91v7.07a7.21,7.21,0,0,0,.87,3.84c2,3.28,6.76,5,10.49,5a8.62,8.62,0,0,0,4.6-1.17,9.65,9.65,0,0,0,5.11-9.05c-.17-4.87-.14-9.88-.11-14.73,0-2,0-3.95,0-5.92s0-4,0-6c1.22-.23,2.41-.51,3.57-.78l.28-.06c5.58-1.3,8-4.92,7.07-10.79M18.64,70.7A13.69,13.69,0,0,1,7.41,64.5,20.12,20.12,0,0,1,4.89,49.92a16.11,16.11,0,0,1,7.69-11.11,20,20,0,0,1,4.9-1.6c3.13-.83,6.28-1.56,9.43-2.33.14,0,.29-.07.44-.09,3.56-.42,7.14-.75,10.69-1.28,2.58-.38,5.11-1,7.67-1.54,2.67.1,5.52-.28,6.64,2.79a9.61,9.61,0,0,1,.4,5.74,4.41,4.41,0,0,1-4.13,2.67,97.7,97.7,0,0,0-10.9,1.34c-3.6.62-7.14,1.55-10.72,2.29s-6.62,3.88-6.63,6.76,2.37,5.59,5.18,5.27c4-.46,8-1.47,12-2.13,3.47-.57,7-.94,10.45-1.47,2.65-.41,4.09,1.55,4.72,3.27a6.86,6.86,0,0,1-1.17,7.1,1.45,1.45,0,0,1-.77.41c-2.42.46-4.87.84-7.29,1.33-3.32.69-6.63,1.45-9.94,2.18a2.29,2.29,0,0,1-.44.09C28.3,70,23.44,71,18.64,70.7m64,27.8c-2.37.78-5.2.91-7.33-1-.56-.5-.64-1.75-.64-2.66,0-9.85,0-19.7,0-29.55,0-1.35.46-2.92-1.93-2.83-2.93.11-3.87.66-3.88,3,0,8.88,0,17.76,0,26.64,0,1.94.06,3.88,0,5.82,0,2.16-1.17,3.33-3.32,3.33-2.53,0-5.37.78-6.85-2.32A5.17,5.17,0,0,1,58.05,97C58,94.49,58,92,58,89.08c-2.16.58-3.93,1.07-5.7,1.53-2.82.73-5.63,1.51-8.47,2.14-3.53.79-7.1,1.45-10.65,2.16l-.44.08c-3.7.48-7.42.86-11.09,1.48-3.05.51-6.06,1.25-9.05,2-1.33.34-4.81-.5-5.45-1.57-1.82-3-1.73-6.39.43-7.62A15.72,15.72,0,0,1,11.86,88c3.33-.76,6.68-1.45,10-2.11a11.21,11.21,0,0,1,2.89-.22c2.08.12,3-.65,2.85-2.85-.16-1.85,0-3.72,0-5.59,0-2.54,1-3.56,3.55-3.7a38.63,38.63,0,0,1,4.69,0,2.71,2.71,0,0,1,2.72,2.82c0,1,0,2.09,0,3.13v3.72c1.37-.3,2.49-.57,3.62-.77s2.19-.25,3.26-.47c3.28-.65,6.55-1.33,9.25-3.51a8,8,0,0,0,3.4-6.75c-.13-14.32,0-28.65-.11-43a4.34,4.34,0,0,1,3.33-4.43c1.53-.53,3.47.07,5.21.31a11.23,11.23,0,0,1,2.38,1v7.15c0,5.45,0,10.9,0,16.34,0,1.69.19,2.7,2.25,2.61,2.81-.12,3.57-.64,3.57-3,0-7.39,0-14.78,0-22.17,0-2.13-.11-4.21,2.53-4.89,3.13-.81,7.37.54,8.35,2.67a3.9,3.9,0,0,1,.12,1.54q0,34.37,0,68.73a4.24,4.24,0,0,1-3,4m39.28-49c-.09,7.14,3.84,12.08,8.9,16.38,1.32,1.12,3.21,1.67,4.29,2.94s2,3.11,1.73,4.5c-.47,2.73-2,4.86-5.4,5.11s-5.65-1.79-8.21-3.28a19.51,19.51,0,0,1-3.34-2.61c-1.22-1.12-2.31-2.38-3.85-4-.79,1.28-1.68,2.7-2.53,4.14a24.6,24.6,0,0,1-12.64,10.51c-3.64,1.42-5.49.71-6.81-2.85s-.62-5.89,3-7.78c3.11-1.62,4.85-4.24,6.73-6.88,3.31-4.66,3.94-10,4-15.49.08-4.85,0-9.7-.08-14.54,0-2.18-.72-2.34-2.79-1.77-3.72,1-7.61,1.77-11.21-.38-1.83-1.08-2.5-3.67-1.93-5.81.47-1.78,2.81-3.6,4.63-3.93,3.5-.62,7-1.4,10.46-2.11l.44-.08c4.06-.47,8.14-.82,12.18-1.45,3.33-.52,6.63-1.27,9.9-2.1,2.48-.62,5.78,1.52,7.26,3.68s.15,4-.56,5.39a5.89,5.89,0,0,1-5.21,2.81,68.81,68.81,0,0,0-8.82,1.4c0,.66-.15,1.38-.16,2.1,0,5.37.06,10.74,0,16.11m28.28,38.32A8.18,8.18,0,0,1,144,86.36a4.34,4.34,0,0,1-1.34-3.14c-.1-11.49-.06-23-.06-34.48h0q0-17.24,0-34.47c0-2.69.91-3.74,3.66-3.74,2.37,0,4.75-.6,7.08,1a2.88,2.88,0,0,1,1.35,2.89q0,12.77,0,25.53,0,21.27,0,42.53c0,3-1.55,4.89-4.45,5.37m43-38.89A16,16,0,0,1,189.32,59c-2.91,3.3-6.65,4-10.86,4.33a15.68,15.68,0,0,1-14.05-6.75c-2.68-4.25-2.54-9.13-2.49-14,.1-8.36,0-16.72,0-25.07,0-2.36.81-3,3.14-3.56,1.86-.44,3.46-.95,5.44,0s3.38,2.26,3.39,4.42V30.23l7.37-1.61V15a4.19,4.19,0,0,1,4.32-4.47c2.4,0,5.06-.66,6.72,1.92a4.9,4.9,0,0,1,.91,2.28c.06,11.41.14,22.83,0,34.25m25.62-16.57A54.74,54.74,0,0,1,213,33.54c-1.37.17-1.5,1-1.5,2,0,2.68,0,5.37,0,8.05,0,6.94-.16,13.88.09,20.81.09,2.6-1.14,3.95-3,5.07-2.17,1.32-7.61-.12-8.91-2.31a3.47,3.47,0,0,1-.24-1.72q0-28.53,0-57.06a4.08,4.08,0,0,1,3.74-3.85c1.56-.07,3.13-.07,4.7,0a3.52,3.52,0,0,1,3.61,3.82c0,4.17,0,8.35,0,12.53,0,.88.08,1.76.15,3.26,1.44-.43,2.56-.66,3.59-1.08,2.35-1,6.64-.34,7.23,3.58.53,3.47-.23,5-3.66,5.75"/></svg>