<svg id="Layer_1" data-name="Layer 1" xmlns="http://www.w3.org/2000/svg" viewBox="0 0 60 60"><defs><style>.cls-1{fill:#fff;}.cls-2{fill:#961916;}</style></defs><path class="cls-1" d="M60,30A30,30,0,1,1,30,0,30,30,0,0,1,60,30"/><path class="cls-2" d="M38.54,20.19H21.46a8.26,8.26,0,1,0,0,16.51h.7a6.89,6.89,0,0,0,1.15,3.07,7.68,7.68,0,0,0,3.13,2.77,4.42,4.42,0,0,0,1.74.47.85.85,0,0,0,1-.71,1.64,1.64,0,0,0,0-.93.83.83,0,0,0-.86-.62,3.79,3.79,0,0,1-3-1.37,4.67,4.67,0,0,1-1-2.38c0-.1,0-.2,0-.3H38.54a8.26,8.26,0,1,0,0-16.51m0,14.11H21.46a5.86,5.86,0,1,1,0-11.71H38.54a5.86,5.86,0,1,1,0,11.71"/><path class="cls-2" d="M24,28.45a1.2,1.2,0,1,1-1.2-1.2,1.2,1.2,0,0,1,1.2,1.2"/><path class="cls-2" d="M31.2,28.45a1.2,1.2,0,1,1-1.2-1.2,1.2,1.2,0,0,1,1.2,1.2"/><path class="cls-2" d="M38.4,28.45a1.2,1.2,0,1,1-1.2-1.2,1.2,1.2,0,0,1,1.2,1.2"/></svg>